SourceCodePro-Italic_0.ufo
<glyph name="exclam" format="1">
  <advance width="600"/>
  <unicode hex="0021"/>
  <outline>
    <contour>
      <point x="332" y="213" type="line"/>
      <point x="354" y="213" type="line"/>
      <point x="435" y="610" type="line"/>
      <point x="447" y="670" type="line"/>
      <point x="422" y="670" type="line"/>
      <point x="410" y="610" type="line"/>
    </contour>
    <contour>
      <point x="318" y="102" type="curve" smooth="yes"/>
      <point x="286" y="102"/>
      <point x="256" y="68"/>
      <point x="256" y="34" type="curve" smooth="yes"/>
      <point x="256" y="8"/>
      <point x="272" y="-12"/>
      <point x="298" y="-12" type="curve" smooth="yes"/>
      <point x="330" y="-12"/>
      <point x="360" y="22"/>
      <point x="360" y="56" type="curve" smooth="yes"/>
      <point x="360" y="82"/>
      <point x="344" y="102"/>
    </contour>
  </outline>
</glyph>
<glyph name="numbersign" format="1">
  <advance width="600"/>
  <unicode hex="0023"/>
  <outline>
    <contour>
      <point x="92" y="0" type="line"/>
      <point x="120" y="0" type="line"/>
      <point x="322" y="650" type="line"/>
      <point x="294" y="650" type="line"/>
    </contour>
    <contour>
      <point x="286" y="0" type="line"/>
      <point x="314" y="0" type="line"/>
      <point x="516" y="650" type="line"/>
      <point x="488" y="650" type="line"/>
    </contour>
    <contour>
      <point x="138" y="424" type="line"/>
      <point x="528" y="424" type="line"/>
      <point x="536" y="452" type="line"/>
      <point x="146" y="452" type="line"/>
    </contour>
    <contour>
      <point x="78" y="218" type="line"/>
      <point x="468" y="218" type="line"/>
      <point x="476" y="246" type="line"/>
      <point x="86" y="246" type="line"/>
    </contour>
  </outline>
</glyph>
<glyph name="dollar" format="1">
  <advance width="599"/>
  <unicode hex="0024"/>
  <outline>
    <contour>
      <point x="414" y="601" type="line"/>
      <point x="442" y="601" type="line"/>
      <point x="473" y="750" type="line"/>
      <point x="445" y="750" type="line"/>
    </contour>
    <contour>
      <point x="125" y="107" type="line"/>
      <point x="162" y="69"/>
      <point x="236" y="34"/>
      <point x="321" y="34" type="curve" smooth="yes"/>
      <point x="434" y="34"/>
      <point x="541" y="76"/>
      <point x="541" y="187" type="curve" smooth="yes"/>
      <point x="541" y="273"/>
      <point x="469" y="311"/>
      <point x="383" y="352" type="curve" smooth="yes"/>
      <point x="297" y="393"/>
      <point x="257" y="428"/>
      <point x="257" y="485" type="curve" smooth="yes"/>
      <point x="257" y="559"/>
      <point x="328" y="592"/>
      <point x="415" y="592" type="curve" smooth="yes"/>
      <point x="478" y="592"/>
      <point x="540" y="564"/>
      <point x="576" y="534" type="curve"/>
      <point x="594" y="553" type="line"/>
      <point x="563" y="582"/>
      <point x="492" y="618"/>
      <point x="423" y="618" type="curve" smooth="yes"/>
      <point x="321" y="618"/>
      <point x="227" y="583"/>
      <point x="227" y="479" type="curve" smooth="yes"/>
      <point x="227" y="409"/>
      <point x="279" y="370"/>
      <point x="368" y="326" type="curve" smooth="yes"/>
      <point x="449" y="286"/>
      <point x="511" y="252"/>
      <point x="511" y="181" type="curve" smooth="yes"/>
      <point x="511" y="104"/>
      <point x="432" y="60"/>
      <point x="326" y="60" type="curve" smooth="yes"/>
      <point x="245" y="60"/>
      <point x="174" y="93"/>
      <point x="141" y="127" type="curve"/>
    </contour>
    <contour>
      <point x="301" y="37" type="line"/>
      <point x="272" y="-110" type="line"/>
      <point x="300" y="-110" type="line"/>
      <point x="329" y="37" type="line"/>
    </contour>
  </outline>
</glyph>
<glyph name="ampersand" format="1">
  <advance width="600"/>
  <unicode hex="0026"/>
  <outline>
    <contour>
      <point x="179" y="-12" type="curve" smooth="yes"/>
      <point x="254" y="-12"/>
      <point x="330" y="26"/>
      <point x="388" y="84" type="curve" smooth="yes"/>
      <point x="456" y="152"/>
      <point x="517" y="242"/>
      <point x="563" y="341" type="curve"/>
      <point x="533" y="341" type="line"/>
      <point x="491" y="248"/>
      <point x="437" y="167"/>
      <point x="370" y="102" type="curve" smooth="yes"/>
      <point x="318" y="52"/>
      <point x="246" y="15"/>
      <point x="184" y="15" type="curve" smooth="yes"/>
      <point x="112" y="15"/>
      <point x="59" y="58"/>
      <point x="59" y="136" type="curve" smooth="yes"/>
      <point x="59" y="336"/>
      <point x="435" y="380"/>
      <point x="435" y="584" type="curve" smooth="yes"/>
      <point x="435" y="630"/>
      <point x="407" y="672"/>
      <point x="347" y="672" type="curve" smooth="yes"/>
      <point x="269" y="672"/>
      <point x="193" y="597"/>
      <point x="193" y="482" type="curve" smooth="yes"/>
      <point x="193" y="348"/>
      <point x="278" y="183"/>
      <point x="367" y="83" type="curve" smooth="yes"/>
      <point x="409" y="35"/>
      <point x="459" y="4"/>
      <point x="493" y="-12" type="curve"/>
      <point x="507" y="12" type="line"/>
      <point x="473" y="28"/>
      <point x="426" y="58"/>
      <point x="387" y="102" type="curve" smooth="yes"/>
      <point x="293" y="206"/>
      <point x="221" y="358"/>
      <point x="221" y="486" type="curve" smooth="yes"/>
      <point x="221" y="577"/>
      <point x="276" y="646"/>
      <point x="347" y="646" type="curve" smooth="yes"/>
      <point x="390" y="646"/>
      <point x="407" y="612"/>
      <point x="407" y="577" type="curve" smooth="yes"/>
      <point x="407" y="394"/>
      <point x="30" y="356"/>
      <point x="30" y="130" type="curve" smooth="yes"/>
      <point x="30" y="40"/>
      <point x="95" y="-12"/>
    </contour>
  </outline>
</glyph>
<glyph name="quotesingle" format="1">
  <advance width="600"/>
  <unicode hex="0027"/>
  <outline>
    <contour>
      <point x="302" y="394" type="line"/>
      <point x="328" y="394" type="line"/>
      <point x="390" y="608" type="line"/>
      <point x="405" y="688" type="line"/>
      <point x="346" y="688" type="line"/>
      <point x="328" y="608" type="line"/>
    </contour>
  </outline>
</glyph>
<glyph name="parenleft" format="1">
  <advance width="600"/>
  <unicode hex="0028"/>
  <outline>
    <contour>
      <point x="433" y="-173" type="curve"/>
      <point x="452" y="-151" type="line"/>
      <point x="355" y="-66"/>
      <point x="307" y="54"/>
      <point x="307" y="185" type="curve" smooth="yes"/>
      <point x="307" y="393"/>
      <point x="405" y="572"/>
      <point x="624" y="707" type="curve"/>
      <point x="613" y="729" type="line"/>
      <point x="404" y="610"/>
      <point x="275" y="419"/>
      <point x="275" y="182" type="curve" smooth="yes"/>
      <point x="275" y="35"/>
      <point x="333" y="-92"/>
    </contour>
  </outline>
</glyph>
<glyph name="parenright" format="1">
  <advance width="600.0"/>
  <unicode hex="0029"/>
  <outline>
    <contour>
      <point x="283" y="728" type="curve"/>
      <point x="266" y="707" type="line"/>
      <point x="363" y="622"/>
      <point x="411" y="505"/>
      <point x="411" y="371" type="curve" smooth="yes"/>
      <point x="411" y="163"/>
      <point x="313" y="-16"/>
      <point x="94" y="-151" type="curve"/>
      <point x="109" y="-173" type="line"/>
      <point x="318" y="-54"/>
      <point x="443" y="137"/>
      <point x="443" y="374" type="curve" smooth="yes"/>
      <point x="443" y="521"/>
      <point x="383" y="647"/>
    </contour>
  </outline>
</glyph>
<glyph name="asterisk" format="1">
  <advance width="600"/>
  <unicode hex="002A"/>
  <outline>
    <contour>
      <point x="202" y="129" type="line"/>
      <point x="360" y="302" type="line"/>
      <point x="450" y="129" type="line"/>
      <point x="476" y="145" type="line"/>
      <point x="392" y="319" type="line"/>
      <point x="576" y="391" type="line"/>
      <point x="572" y="414" type="line"/>
      <point x="387" y="349" type="line"/>
      <point x="422" y="548" type="line"/>
      <point x="397" y="548" type="line"/>
      <point x="353" y="349" type="line"/>
      <point x="193" y="414" type="line"/>
      <point x="180" y="391" type="line"/>
      <point x="335" y="319" type="line"/>
      <point x="182" y="145" type="line"/>
    </contour>
  </outline>
</glyph>
<glyph name="plus" format="1">
  <advance width="599"/>
  <unicode hex="002B"/>
  <outline>
    <contour>
      <point x="348" y="110" type="line"/>
      <point x="376" y="110" type="line"/>
      <point x="376" y="318" type="line"/>
      <point x="556" y="318" type="line"/>
      <point x="556" y="344" type="line"/>
      <point x="376" y="344" type="line"/>
      <point x="376" y="546" type="line"/>
      <point x="348" y="546" type="line"/>
      <point x="348" y="344" type="line"/>
      <point x="168" y="344" type="line"/>
      <point x="168" y="318" type="line"/>
      <point x="348" y="318" type="line"/>
    </contour>
  </outline>
</glyph>
<glyph name="comma" format="1">
  <advance width="600"/>
  <unicode hex="002C"/>
  <outline>
    <contour>
      <point x="331" y="21" type="line"/>
      <point x="327" y="2" type="line"/>
      <point x="318" y="-80"/>
      <point x="263" y="-150"/>
      <point x="175" y="-187" type="curve"/>
      <point x="186" y="-211" type="line"/>
      <point x="297" y="-170"/>
      <point x="371" y="-70"/>
      <point x="371" y="46" type="curve" smooth="yes"/>
      <point x="371" y="84"/>
      <point x="356" y="106"/>
      <point x="327" y="106" type="curve" smooth="yes"/>
      <point x="291" y="106"/>
      <point x="265" y="75"/>
      <point x="265" y="41" type="curve" smooth="yes"/>
      <point x="265" y="13"/>
      <point x="282" y="-5"/>
      <point x="309" y="-5" type="curve" smooth="yes"/>
      <point x="322" y="-5"/>
      <point x="343" y="-1"/>
      <point x="352" y="13" type="curve"/>
    </contour>
  </outline>
</glyph>
<glyph name="period" format="1">
  <advance width="600"/>
  <unicode hex="002E"/>
  <outline>
    <contour>
      <point x="238" y="-12" type="curve" smooth="yes"/>
      <point x="270" y="-12"/>
      <point x="300" y="22"/>
      <point x="300" y="56" type="curve" smooth="yes"/>
      <point x="300" y="84"/>
      <point x="284" y="102"/>
      <point x="258" y="102" type="curve" smooth="yes"/>
      <point x="226" y="102"/>
      <point x="196" y="68"/>
      <point x="196" y="34" type="curve" smooth="yes"/>
      <point x="196" y="6"/>
      <point x="212" y="-12"/>
    </contour>
  </outline>
</glyph>
<glyph name="slash" format="1">
  <advance width="599"/>
  <unicode hex="002F"/>
  <outline>
    <contour>
      <point x="621" y="710" type="line"/>
      <point x="589" y="710" type="line"/>
      <point x="89" y="-160" type="line"/>
      <point x="121" y="-160" type="line"/>
    </contour>
  </outline>
</glyph>
<glyph name="zero" format="1">
  <advance width="600"/>
  <unicode hex="0030"/>
  <outline>
    <contour>
      <point x="293" y="-14" type="curve" smooth="yes"/>
      <point x="428" y="-14"/>
      <point x="535" y="111"/>
      <point x="579" y="322" type="curve" smooth="yes"/>
      <point x="623" y="535"/>
      <point x="567" y="654"/>
      <point x="431" y="654" type="curve" smooth="yes"/>
      <point x="296" y="654"/>
      <point x="190" y="535"/>
      <point x="146" y="322" type="curve" smooth="yes"/>
      <point x="102" y="111"/>
      <point x="157" y="-14"/>
    </contour>
    <contour>
      <point x="430" y="626" type="curve" smooth="yes"/>
      <point x="538" y="626"/>
      <point x="589" y="521"/>
      <point x="547" y="322" type="curve" smooth="yes"/>
      <point x="506" y="123"/>
      <point x="403" y="14"/>
      <point x="294" y="14" type="curve" smooth="yes"/>
      <point x="186" y="14"/>
      <point x="136" y="123"/>
      <point x="177" y="322" type="curve" smooth="yes"/>
      <point x="219" y="521"/>
      <point x="321" y="626"/>
    </contour>
    <contour>
      <point x="352" y="274" type="curve" smooth="yes"/>
      <point x="378" y="274"/>
      <point x="408" y="294"/>
      <point x="416" y="332" type="curve" smooth="yes"/>
      <point x="424" y="370"/>
      <point x="402" y="390"/>
      <point x="377" y="390" type="curve" smooth="yes"/>
      <point x="351" y="390"/>
      <point x="321" y="370"/>
      <point x="313" y="332" type="curve" smooth="yes"/>
      <point x="305" y="294"/>
      <point x="327" y="274"/>
    </contour>
  </outline>
</glyph>
<glyph name="one" format="1">
  <advance width="600"/>
  <unicode hex="0031"/>
  <outline>
    <contour>
      <point x="310" y="8" type="line"/>
      <point x="338" y="8" type="line"/>
      <point x="464" y="640" type="line"/>
      <point x="443" y="640" type="line"/>
      <point x="405" y="624"/>
      <point x="353" y="610"/>
      <point x="289" y="603" type="curve"/>
      <point x="285" y="582" type="line"/>
      <point x="425" y="582" type="line"/>
    </contour>
    <contour>
      <point x="114" y="0" type="line"/>
      <point x="521" y="0" type="line"/>
      <point x="526" y="26" type="line"/>
      <point x="119" y="26" type="line"/>
    </contour>
  </outline>
</glyph>
<glyph name="two" format="1">
  <advance width="600"/>
  <unicode hex="0032"/>
  <outline>
    <contour>
      <point x="50" y="0" type="line"/>
      <point x="481" y="0" type="line"/>
      <point x="487" y="27" type="line"/>
      <point x="215" y="27" type="line" smooth="yes"/>
      <point x="174" y="27"/>
      <point x="143" y="24"/>
      <point x="101" y="22" type="curve"/>
      <point x="359" y="241"/>
      <point x="492" y="357"/>
      <point x="492" y="503" type="curve" smooth="yes"/>
      <point x="492" y="594"/>
      <point x="438" y="652"/>
      <point x="342" y="652" type="curve" smooth="yes"/>
      <point x="252" y="652"/>
      <point x="180" y="606"/>
      <point x="126" y="549" type="curve"/>
      <point x="146" y="530" type="line"/>
      <point x="195" y="583"/>
      <point x="261" y="625"/>
      <point x="334" y="625" type="curve" smooth="yes"/>
      <point x="415" y="625"/>
      <point x="460" y="576"/>
      <point x="460" y="501" type="curve" smooth="yes"/>
      <point x="460" y="372"/>
      <point x="343" y="262"/>
      <point x="54" y="18" type="curve"/>
    </contour>
  </outline>
</glyph>
<glyph name="three" format="1">
  <advance width="600"/>
  <unicode hex="0033"/>
  <outline>
    <contour>
      <point x="40" y="91" type="line"/>
      <point x="76" y="47"/>
      <point x="136" y="-12"/>
      <point x="247" y="-12" type="curve" smooth="yes"/>
      <point x="378" y="-12"/>
      <point x="478" y="57"/>
      <point x="478" y="179" type="curve" smooth="yes"/>
      <point x="478" y="264"/>
      <point x="423" y="318"/>
      <point x="325" y="334" type="curve"/>
      <point x="325" y="337" type="line"/>
      <point x="447" y="355"/>
      <point x="508" y="425"/>
      <point x="508" y="516" type="curve" smooth="yes"/>
      <point x="508" y="614"/>
      <point x="437" y="652"/>
      <point x="348" y="652" type="curve" smooth="yes"/>
      <point x="263" y="652"/>
      <point x="193" y="615"/>
      <point x="142" y="570" type="curve"/>
      <point x="159" y="550" type="line"/>
      <point x="206" y="591"/>
      <point x="263" y="626"/>
      <point x="348" y="626" type="curve" smooth="yes"/>
      <point x="422" y="626"/>
      <point x="478" y="593"/>
      <point x="478" y="516" type="curve" smooth="yes"/>
      <point x="478" y="421"/>
      <point x="400" y="350"/>
      <point x="223" y="350" type="curve"/>
      <point x="220" y="324" type="line"/>
      <point x="382" y="320"/>
      <point x="447" y="262"/>
      <point x="447" y="176" type="curve" smooth="yes"/>
      <point x="447" y="73"/>
      <point x="357" y="15"/>
      <point x="248" y="15" type="curve" smooth="yes"/>
      <point x="150" y="15"/>
      <point x="94" y="67"/>
      <point x="63" y="109" type="curve"/>
    </contour>
  </outline>
</glyph>
<glyph name="four" format="1">
  <advance width="600"/>
  <unicode hex="0034"/>
  <outline>
    <contour>
      <point x="83" y="197" type="line"/>
      <point x="574" y="197" type="line"/>
      <point x="580" y="224" type="line"/>
      <point x="139" y="224" type="line"/>
      <point x="434" y="509" type="line" smooth="yes"/>
      <point x="460" y="535"/>
      <point x="483" y="562"/>
      <point x="508" y="589" type="curve"/>
      <point x="513" y="589" type="line"/>
      <point x="505" y="559"/>
      <point x="496" y="529"/>
      <point x="490" y="499" type="curve" smooth="yes"/>
      <point x="391" y="0" type="line"/>
      <point x="419" y="0" type="line"/>
      <point x="547" y="641" type="line"/>
      <point x="533" y="641" type="line"/>
      <point x="86" y="212" type="line"/>
    </contour>
  </outline>
</glyph>
<glyph name="five" format="1">
  <advance width="600"/>
  <unicode hex="0035"/>
  <outline>
    <contour>
      <point x="80" y="74" type="line"/>
      <point x="118" y="34"/>
      <point x="173" y="-12"/>
      <point x="287" y="-12" type="curve" smooth="yes"/>
      <point x="430" y="-12"/>
      <point x="560" y="71"/>
      <point x="560" y="221" type="curve" smooth="yes"/>
      <point x="560" y="348"/>
      <point x="481" y="397"/>
      <point x="376" y="397" type="curve" smooth="yes"/>
      <point x="313" y="397"/>
      <point x="268" y="384"/>
      <point x="221" y="362" type="curve"/>
      <point x="293" y="614" type="line"/>
      <point x="603" y="614" type="line"/>
      <point x="608" y="640" type="line"/>
      <point x="271" y="640" type="line"/>
      <point x="188" y="345" type="line"/>
      <point x="210" y="329" type="line"/>
      <point x="262" y="355"/>
      <point x="307" y="371"/>
      <point x="369" y="371" type="curve" smooth="yes"/>
      <point x="470" y="371"/>
      <point x="529" y="321"/>
      <point x="529" y="220" type="curve" smooth="yes"/>
      <point x="529" y="89"/>
      <point x="411" y="15"/>
      <point x="294" y="15" type="curve" smooth="yes"/>
      <point x="186" y="15"/>
      <point x="139" y="54"/>
      <point x="103" y="94" type="curve"/>
    </contour>
  </outline>
</glyph>
<glyph name="six" format="1">
  <advance width="600"/>
  <unicode hex="0036"/>
  <outline>
    <contour>
      <point x="318" y="-12" type="curve" smooth="yes"/>
      <point x="461" y="-12"/>
      <point x="564" y="93"/>
      <point x="564" y="232" type="curve"/>
      <point x="564" y="345"/>
      <point x="487" y="388"/>
      <point x="391" y="388" type="curve" smooth="yes"/>
      <point x="297" y="388"/>
      <point x="223" y="339"/>
      <point x="166" y="274" type="curve"/>
      <point x="166" y="246" type="line"/>
      <point x="239" y="324"/>
      <point x="310" y="361"/>
      <point x="390" y="361" type="curve" smooth="yes"/>
      <point x="468" y="361"/>
      <point x="533" y="325"/>
      <point x="533" y="226" type="curve" smooth="yes"/>
      <point x="533" y="114"/>
      <point x="447" y="15"/>
      <point x="328" y="15" type="curve" smooth="yes"/>
      <point x="214" y="15"/>
      <point x="168" y="98"/>
      <point x="168" y="211" type="curve" smooth="yes"/>
      <point x="168.0" y="496.0"/>
      <point x="323" y="626"/>
      <point x="466" y="626" type="curve" smooth="yes"/>
      <point x="520" y="626"/>
      <point x="562" y="610"/>
      <point x="595" y="572" type="curve"/>
      <point x="617" y="591" type="line"/>
      <point x="585" y="627"/>
      <point x="541" y="652"/>
      <point x="473" y="652" type="curve" smooth="yes"/>
      <point x="314" y="652"/>
      <point x="138.0" y="518.0"/>
      <point x="138" y="207" type="curve" smooth="yes"/>
      <point x="138" y="70"/>
      <point x="203" y="-12"/>
    </contour>
  </outline>
</glyph>
<glyph name="seven" format="1">
  <advance width="600"/>
  <unicode hex="0037"/>
  <outline>
    <contour>
      <point x="243" y="0" type="curve"/>
      <point x="275" y="0" type="line"/>
      <point x="333" y="252"/>
      <point x="420" y="415"/>
      <point x="637" y="622" type="curve"/>
      <point x="641" y="640" type="line"/>
      <point x="192" y="640" type="line"/>
      <point x="187" y="614" type="line"/>
      <point x="597" y="614" type="line"/>
      <point x="402" y="427"/>
      <point x="307" y="267"/>
    </contour>
  </outline>
</glyph>
<glyph name="eight" format="1">
  <advance width="599"/>
  <unicode hex="0038"/>
  <outline>
    <contour>
      <point x="305" y="-12" type="curve" smooth="yes"/>
      <point x="440" y="-12"/>
      <point x="540" y="56"/>
      <point x="540" y="167" type="curve" smooth="yes"/>
      <point x="540" y="241"/>
      <point x="496" y="282"/>
      <point x="441" y="310" type="curve"/>
      <point x="441" y="312" type="line"/>
      <point x="523" y="359"/>
      <point x="583" y="430"/>
      <point x="583" y="510" type="curve" smooth="yes"/>
      <point x="583" y="599"/>
      <point x="514" y="652"/>
      <point x="428" y="652" type="curve" smooth="yes"/>
      <point x="316" y="652"/>
      <point x="225" y="584"/>
      <point x="225" y="484" type="curve" smooth="yes"/>
      <point x="225" y="425"/>
      <point x="248" y="386"/>
      <point x="294" y="349" type="curve"/>
      <point x="294" y="346" type="line"/>
      <point x="207" y="300"/>
      <point x="120" y="249"/>
      <point x="120" y="138" type="curve" smooth="yes"/>
      <point x="120" y="52"/>
      <point x="190" y="-12"/>
    </contour>
    <contour>
      <point x="423" y="626" type="curve" smooth="yes"/>
      <point x="496" y="626"/>
      <point x="553" y="584"/>
      <point x="553" y="509" type="curve" smooth="yes"/>
      <point x="553" y="440"/>
      <point x="504" y="373"/>
      <point x="416" y="324" type="curve"/>
      <point x="303" y="361"/>
      <point x="255" y="412"/>
      <point x="255" y="485" type="curve" smooth="yes"/>
      <point x="255" y="568"/>
      <point x="337" y="626"/>
    </contour>
    <contour>
      <point x="310" y="17" type="curve" smooth="yes"/>
      <point x="214" y="17"/>
      <point x="150" y="68"/>
      <point x="150" y="142" type="curve" smooth="yes"/>
      <point x="150" y="237"/>
      <point x="235" y="289"/>
      <point x="317" y="330" type="curve"/>
      <point x="439" y="283"/>
      <point x="510" y="250"/>
      <point x="510" y="164" type="curve" smooth="yes"/>
      <point x="510" y="68"/>
      <point x="416" y="17"/>
    </contour>
  </outline>
</glyph>
<glyph name="nine" format="1">
  <advance width="600"/>
  <unicode hex="0039"/>
  <outline>
    <contour>
      <point x="411" y="652" type="curve" smooth="yes"/>
      <point x="285" y="652"/>
      <point x="167" y="553"/>
      <point x="167" y="413" type="curve"/>
      <point x="167" y="313"/>
      <point x="230" y="252"/>
      <point x="336" y="252" type="curve" smooth="yes"/>
      <point x="413" y="252"/>
      <point x="505" y="294"/>
      <point x="568" y="365" type="curve"/>
      <point x="565" y="395" type="line"/>
      <point x="488" y="309"/>
      <point x="400" y="279"/>
      <point x="342" y="279" type="curve" smooth="yes"/>
      <point x="246" y="279"/>
      <point x="197" y="334"/>
      <point x="197" y="416" type="curve" smooth="yes"/>
      <point x="197" y="534"/>
      <point x="299" y="627"/>
      <point x="404" y="627" type="curve" smooth="yes"/>
      <point x="518" y="627"/>
      <point x="562" y="544"/>
      <point x="562" y="430" type="curve" smooth="yes"/>
      <point x="562" y="145"/>
      <point x="410" y="14"/>
      <point x="273" y="14" type="curve" smooth="yes"/>
      <point x="208" y="14"/>
      <point x="156" y="32"/>
      <point x="125" y="68" type="curve"/>
      <point x="102" y="48" type="line"/>
      <point x="136" y="12"/>
      <point x="194" y="-12"/>
      <point x="269" y="-12" type="curve" smooth="yes"/>
      <point x="419" y="-12"/>
      <point x="592" y="122"/>
      <point x="592" y="433" type="curve" smooth="yes"/>
      <point x="592" y="567"/>
      <point x="531" y="652"/>
    </contour>
  </outline>
</glyph>
<glyph name="less" format="1">
  <advance width="599"/>
  <unicode hex="003C"/>
  <outline>
    <contour>
      <point x="124" y="317" type="line"/>
      <point x="485" y="63" type="line"/>
      <point x="485" y="96" type="line"/>
      <point x="154" y="330" type="line"/>
      <point x="154" y="334" type="line"/>
      <point x="485" y="568" type="line"/>
      <point x="485" y="601" type="line"/>
      <point x="124" y="347" type="line"/>
    </contour>
  </outline>
</glyph>
<glyph name="question" format="1">
  <advance width="600"/>
  <unicode hex="003F"/>
  <outline>
    <contour>
      <point x="297" y="213" type="curve"/>
      <point x="322" y="213" type="line"/>
      <point x="325" y="285"/>
      <point x="370" y="322"/>
      <point x="438" y="379" type="curve" smooth="yes"/>
      <point x="499" y="430"/>
      <point x="564" y="478"/>
      <point x="564" y="557" type="curve" smooth="yes"/>
      <point x="564" y="626"/>
      <point x="518" y="682"/>
      <point x="424" y="682" type="curve" smooth="yes"/>
      <point x="348" y="682"/>
      <point x="286" y="645"/>
      <point x="242" y="591" type="curve"/>
      <point x="262" y="575" type="line"/>
      <point x="304" y="625"/>
      <point x="352" y="656"/>
      <point x="417" y="656" type="curve" smooth="yes"/>
      <point x="502" y="656"/>
      <point x="534" y="609"/>
      <point x="534" y="554" type="curve" smooth="yes"/>
      <point x="534" y="483"/>
      <point x="474" y="443"/>
      <point x="419" y="396" type="curve" smooth="yes"/>
      <point x="358" y="344"/>
      <point x="297" y="296"/>
    </contour>
    <component base="period" xOffset="-22"/>
  </outline>
</glyph>
<glyph name="at" format="1">
  <advance width="599"/>
  <unicode hex="0040"/>
  <outline>
    <contour>
      <point x="495.0" y="-85.0" type="curve"/>
      <point x="483.0" y="-64.0" type="line"/>
      <point x="435.0" y="-95.0"/>
      <point x="382.0" y="-115.0"/>
      <point x="315.0" y="-115.0" type="curve" smooth="yes"/>
      <point x="197.0" y="-115.0"/>
      <point x="131.0" y="-12.0"/>
      <point x="131.0" y="147.0" type="curve" smooth="yes"/>
      <point x="131.0" y="418.0"/>
      <point x="304.0" y="601.0"/>
      <point x="479.0" y="601.0" type="curve" smooth="yes"/>
      <point x="593.0" y="601.0"/>
      <point x="616.0" y="520.0"/>
      <point x="592.0" y="397.0" type="curve" smooth="yes"/>
      <point x="589.0" y="379.0" type="line"/>
      <point x="377.0" y="356.0"/>
      <point x="276.0" y="298.0"/>
      <point x="276.0" y="187.0" type="curve" smooth="yes"/>
      <point x="276.0" y="120.0"/>
      <point x="316.0" y="88.0"/>
      <point x="376.0" y="88.0" type="curve" smooth="yes"/>
      <point x="438.0" y="88.0"/>
      <point x="504" y="124"/>
      <point x="545" y="165" type="curve"/>
      <point x="547" y="165" type="line"/>
      <point x="539" y="100" type="line"/>
      <point x="562.0" y="100.0" type="line"/>
      <point x="621.0" y="399.0" type="line" smooth="yes"/>
      <point x="649.0" y="541.0"/>
      <point x="610.0" y="628.0"/>
      <point x="485.0" y="628.0" type="curve" smooth="yes"/>
      <point x="281.0" y="628.0"/>
      <point x="101.0" y="430.0"/>
      <point x="101.0" y="147.0" type="curve" smooth="yes"/>
      <point x="101.0" y="-34.0"/>
      <point x="175.0" y="-142.0"/>
      <point x="309.0" y="-142.0" type="curve" smooth="yes"/>
      <point x="379.0" y="-142.0"/>
      <point x="440.0" y="-123.0"/>
    </contour>
    <contour>
      <point x="386" y="114" type="curve" smooth="yes"/>
      <point x="336" y="114"/>
      <point x="308" y="139"/>
      <point x="308" y="192" type="curve" smooth="yes"/>
      <point x="308" y="278"/>
      <point x="394" y="330"/>
      <point x="584" y="356" type="curve"/>
      <point x="553" y="201" type="line"/>
      <point x="495" y="144"/>
      <point x="440" y="114"/>
    </contour>
  </outline>
</glyph>
<glyph name="A" format="1">
  <advance width="600"/>
  <unicode hex="0041"/>
  <outline>
    <contour>
      <point x="52" y="0" type="line"/>
      <point x="84" y="0" type="line"/>
      <point x="308" y="400" type="line" smooth="yes"/>
      <point x="350" y="478"/>
      <point x="392" y="544"/>
      <point x="432" y="626" type="curve"/>
      <point x="436" y="626" type="line"/>
      <point x="444" y="546"/>
      <point x="458" y="470"/>
      <point x="466" y="396" type="curve" smooth="yes"/>
      <point x="518" y="0" type="line"/>
      <point x="548" y="0" type="line"/>
      <point x="456" y="660" type="line"/>
      <point x="426" y="660" type="line"/>
    </contour>
    <contour>
      <point x="210" y="238" type="line"/>
      <point x="492" y="238" type="line"/>
      <point x="498" y="264" type="line"/>
      <point x="218" y="264" type="line"/>
    </contour>
  </outline>
</glyph>
<glyph name="B" format="1">
  <advance width="600"/>
  <unicode hex="0042"/>
  <outline>
    <contour>
      <point x="120" y="0" type="line"/>
      <point x="310" y="0" type="line" smooth="yes"/>
      <point x="468" y="0"/>
      <point x="574" y="66"/>
      <point x="574" y="206" type="curve" smooth="yes"/>
      <point x="574" y="290"/>
      <point x="512" y="334"/>
      <point x="448" y="348" type="curve"/>
      <point x="448" y="352" type="line"/>
      <point x="510" y="362"/>
      <point x="598" y="418"/>
      <point x="598" y="518" type="curve" smooth="yes"/>
      <point x="598" y="606"/>
      <point x="530" y="660"/>
      <point x="408" y="660" type="curve" smooth="yes"/>
      <point x="252" y="660" type="line"/>
    </contour>
    <contour>
      <point x="222" y="364" type="line"/>
      <point x="276" y="634" type="line"/>
      <point x="392" y="634" type="line" smooth="yes"/>
      <point x="514" y="634"/>
      <point x="568" y="590"/>
      <point x="568" y="516" type="curve" smooth="yes"/>
      <point x="568" y="428"/>
      <point x="492" y="364"/>
      <point x="340" y="364" type="curve" smooth="yes"/>
    </contour>
    <contour>
      <point x="154" y="26" type="line"/>
      <point x="218" y="338" type="line"/>
      <point x="358" y="338" type="line" smooth="yes"/>
      <point x="476" y="338"/>
      <point x="544" y="280"/>
      <point x="544" y="203" type="curve" smooth="yes"/>
      <point x="544" y="74"/>
      <point x="442" y="26"/>
      <point x="292" y="26" type="curve" smooth="yes"/>
    </contour>
  </outline>
</glyph>
<glyph name="C" format="1">
  <advance width="600"/>
  <unicode hex="0043"/>
  <outline>
    <contour>
      <point x="83" y="246" type="curve" smooth="yes"/>
      <point x="83" y="96"/>
      <point x="147" y="-12"/>
      <point x="290" y="-12" type="curve" smooth="yes"/>
      <point x="363" y="-12"/>
      <point x="430" y="11"/>
      <point x="490" y="61" type="curve"/>
      <point x="473" y="83" type="line"/>
      <point x="419.672111885" y="37.721604431"/>
      <point x="364.0" y="14.0"/>
      <point x="294" y="14" type="curve" smooth="yes"/>
      <point x="165.0" y="14.0"/>
      <point x="114.0" y="117.434599156"/>
      <point x="114" y="252" type="curve" smooth="yes"/>
      <point x="114" y="443"/>
      <point x="241" y="646"/>
      <point x="419" y="646" type="curve" smooth="yes"/>
      <point x="480" y="646"/>
      <point x="518" y="610"/>
      <point x="546" y="565" type="curve"/>
      <point x="568" y="579" type="line"/>
      <point x="540" y="627"/>
      <point x="496" y="672"/>
      <point x="421" y="672" type="curve" smooth="yes"/>
      <point x="220" y="672"/>
      <point x="83" y="451"/>
    </contour>
    <contour>
      <point x="412" y="682" type="move" name="aboveUC"/>
    </contour>
    <contour>
      <point x="276" y="-22" type="move" name="belowLC"/>
    </contour>
    <contour>
      <point x="276" y="0" type="move" name="baseLC"/>
    </contour>
  </outline>
</glyph>
<glyph name="D" format="1">
  <advance width="600"/>
  <unicode hex="0044"/>
  <outline>
    <contour>
      <point x="90" y="0" type="line"/>
      <point x="258" y="0" type="line" smooth="yes"/>
      <point x="490" y="0"/>
      <point x="610" y="180"/>
      <point x="610" y="404" type="curve" smooth="yes"/>
      <point x="610" y="556"/>
      <point x="522" y="660"/>
      <point x="340" y="660" type="curve" smooth="yes"/>
      <point x="222" y="660" type="line"/>
    </contour>
    <contour>
      <point x="124" y="26" type="line"/>
      <point x="246" y="634" type="line"/>
      <point x="338" y="634" type="line" smooth="yes"/>
      <point x="502" y="634"/>
      <point x="580" y="538"/>
      <point x="580" y="402" type="curve" smooth="yes"/>
      <point x="580" y="191"/>
      <point x="464" y="26"/>
      <point x="260" y="26" type="curve" smooth="yes"/>
    </contour>
  </outline>
</glyph>
<glyph name="E" format="1">
  <advance width="600"/>
  <unicode hex="0045"/>
  <outline>
    <contour>
      <point x="132" y="0" type="line"/>
      <point x="526" y="0" type="line"/>
      <point x="532" y="26" type="line"/>
      <point x="166" y="26" type="line"/>
      <point x="230" y="338" type="line"/>
      <point x="526" y="338" type="line"/>
      <point x="532" y="364" type="line"/>
      <point x="234" y="364" type="line"/>
      <point x="289" y="635" type="line"/>
      <point x="645" y="635" type="line"/>
      <point x="650" y="660" type="line"/>
      <point x="264" y="660" type="line"/>
    </contour>
  </outline>
</glyph>
<glyph name="F" format="1">
	<unicode hex="0046"/>
	<advance width="600"/>
	<outline>
		<contour>
			<point x="98" y="0" type="line"/>
			<point x="128" y="0" type="line"/>
			<point x="194" y="326" type="line"/>
			<point x="484" y="326" type="line"/>
			<point x="490" y="352" type="line"/>
			<point x="198" y="352" type="line"/>
			<point x="254" y="634" type="line"/>
			<point x="604" y="634" type="line"/>
			<point x="610" y="660" type="line"/>
			<point x="230" y="660" type="line"/>
		</contour>
		<contour>
			<point name="aboveUC" x="430" y="680" type="move"/>
		</contour>
		<contour>
			<point name="baseLC" x="114" y="0" type="move"/>
		</contour>
		<contour>
			<point name="belowLC" x="120" y="-20" type="move"/>
		</contour>
	</outline>
</glyph>
<glyph name="G" format="1">
  <advance width="600"/>
  <unicode hex="0047"/>
  <outline>
    <contour>
      <point x="127" y="248" type="curve" smooth="yes"/>
      <point x="127" y="91"/>
      <point x="191" y="-12"/>
      <point x="330" y="-12" type="curve" smooth="yes"/>
      <point x="411" y="-12"/>
      <point x="495" y="19"/>
      <point x="544" y="63" type="curve"/>
      <point x="594" y="317" type="line"/>
      <point x="402" y="317" type="line"/>
      <point x="397" y="291" type="line"/>
      <point x="559" y="291" type="line"/>
      <point x="517" y="77" type="line"/>
      <point x="477" y="42"/>
      <point x="405" y="15"/>
      <point x="333" y="15" type="curve" smooth="yes"/>
      <point x="213" y="15"/>
      <point x="157" y="109"/>
      <point x="157" y="250" type="curve" smooth="yes"/>
      <point x="157" y="452"/>
      <point x="291" y="646"/>
      <point x="461" y="646" type="curve" smooth="yes"/>
      <point x="531" y="646"/>
      <point x="562" y="605"/>
      <point x="589" y="565" type="curve"/>
      <point x="611" y="579" type="line"/>
      <point x="575" y="640"/>
      <point x="528" y="672"/>
      <point x="458" y="672" type="curve" smooth="yes"/>
      <point x="279" y="672"/>
      <point x="127" y="474"/>
    </contour>
  </outline>
</glyph>
<glyph name="I" format="1">
  <advance width="600"/>
  <unicode hex="0049"/>
  <outline>
    <contour>
      <point x="114" y="0" type="line"/>
      <point x="488" y="0" type="line"/>
      <point x="494" y="26" type="line"/>
      <point x="320" y="26" type="line"/>
      <point x="442" y="634" type="line"/>
      <point x="616" y="634" type="line"/>
      <point x="622" y="660" type="line"/>
      <point x="246" y="660" type="line"/>
      <point x="240" y="634" type="line"/>
      <point x="412" y="634" type="line"/>
      <point x="290" y="26" type="line"/>
      <point x="120" y="26" type="line"/>
    </contour>
  </outline>
</glyph>
<glyph name="J" format="1">
  <advance width="600"/>
  <unicode hex="004A"/>
  <outline>
    <contour>
      <point x="119" y="98" type="line"/>
      <point x="140" y="25"/>
      <point x="201" y="-12"/>
      <point x="276" y="-12" type="curve" smooth="yes"/>
      <point x="424" y="-12"/>
      <point x="491" y="83"/>
      <point x="515" y="200" type="curve" smooth="yes"/>
      <point x="607" y="661" type="line"/>
      <point x="286" y="661" type="line"/>
      <point x="281" y="637" type="line"/>
      <point x="572" y="637" type="line"/>
      <point x="486" y="203" type="line" smooth="yes"/>
      <point x="461" y="78"/>
      <point x="399" y="15"/>
      <point x="283" y="15" type="curve" smooth="yes"/>
      <point x="225" y="15"/>
      <point x="175" y="46"/>
      <point x="151" y="113" type="curve"/>
    </contour>
  </outline>
</glyph>
<glyph name="K" format="1">
  <advance width="600"/>
  <unicode hex="004B"/>
  <outline>
    <contour>
      <point x="660" y="660" type="curve"/>
      <point x="621" y="660" type="line"/>
      <point x="215" y="283" type="line"/>
      <point x="211" y="283" type="line"/>
      <point x="286" y="660" type="line"/>
      <point x="256" y="660" type="line"/>
      <point x="124" y="0" type="line"/>
      <point x="154" y="0" type="line"/>
      <point x="201" y="235" type="line"/>
      <point x="201" y="235"/>
      <point x="660" y="660"/>
    </contour>
    <contour>
      <point x="351" y="380" type="line"/>
      <point x="537" y="0" type="line"/>
      <point x="569" y="0" type="line"/>
      <point x="374" y="403" type="line"/>
    </contour>
    <contour>
      <point x="329" y="682" type="move" name="aboveUC"/>
    </contour>
    <contour>
      <point x="349" y="-22" type="move" name="belowLC"/>
    </contour>
  </outline>
</glyph>
<glyph name="L" format="1">
  <advance width="600"/>
  <unicode hex="004C"/>
  <outline>
    <contour>
      <point x="126" y="0" type="line"/>
      <point x="508" y="0" type="line"/>
      <point x="514" y="26" type="line"/>
      <point x="162" y="26" type="line"/>
      <point x="288" y="660" type="line"/>
      <point x="258" y="660" type="line"/>
    </contour>
    <contour>
      <point x="280" y="682" type="move" name="aboveUC"/>
    </contour>
    <contour>
      <point x="330" y="-22" type="move" name="belowLC"/>
    </contour>
  </outline>
</glyph>
<glyph name="M" format="1">
  <advance width="600"/>
  <unicode hex="004D"/>
  <outline>
    <contour>
      <point x="96" y="0" type="line"/>
      <point x="125" y="0" type="line"/>
      <point x="225" y="502" type="line" smooth="yes"/>
      <point x="233" y="542"/>
      <point x="239" y="585"/>
      <point x="246" y="626" type="curve"/>
      <point x="252" y="626" type="line"/>
      <point x="257" y="590"/>
      <point x="263" y="550"/>
      <point x="269" y="517" type="curve" smooth="yes"/>
      <point x="327" y="181" type="line"/>
      <point x="357" y="181" type="line"/>
      <point x="549" y="516" type="line" smooth="yes"/>
      <point x="573" y="558"/>
      <point x="590" y="591"/>
      <point x="606" y="626" type="curve"/>
      <point x="609" y="626" type="line"/>
      <point x="600" y="585"/>
      <point x="590" y="542"/>
      <point x="582" y="502" type="curve" smooth="yes"/>
      <point x="482" y="0" type="line"/>
      <point x="512" y="0" type="line"/>
      <point x="643" y="660" type="line"/>
      <point x="600" y="660" type="line"/>
      <point x="400" y="314" type="line"/>
      <point x="350" y="219" type="line"/>
      <point x="346" y="219" type="line"/>
      <point x="333" y="313" type="line"/>
      <point x="271" y="660" type="line"/>
      <point x="228" y="660" type="line"/>
    </contour>
  </outline>
</glyph>
<glyph name="N" format="1">
  <advance width="600"/>
  <unicode hex="004E"/>
  <outline>
    <contour>
      <point x="36" y="0" type="line"/>
      <point x="63" y="0" type="line"/>
      <point x="151" y="438" type="line" smooth="yes"/>
      <point x="163" y="500"/>
      <point x="171" y="557"/>
      <point x="183" y="620" type="curve"/>
      <point x="186" y="620" type="line"/>
      <point x="232" y="489" type="line"/>
      <point x="412" y="0" type="line"/>
      <point x="443" y="0" type="line"/>
      <point x="574" y="660" type="line"/>
      <point x="547" y="660" type="line"/>
      <point x="460" y="226" type="line" smooth="yes"/>
      <point x="448" y="165"/>
      <point x="437" y="103"/>
      <point x="427" y="41" type="curve"/>
      <point x="424" y="41" type="line"/>
      <point x="378" y="172" type="line"/>
      <point x="198" y="660" type="line"/>
      <point x="168" y="660" type="line"/>
    </contour>
    <contour>
      <point x="370" y="682" type="move" name="aboveUC"/>
    </contour>
    <contour>
      <point x="250" y="-22" type="move" name="belowLC"/>
    </contour>
  </outline>
</glyph>
<glyph name="O" format="1">
  <advance width="600"/>
  <unicode hex="004F"/>
  <outline>
    <contour>
      <point x="432" y="672" type="curve" smooth="yes"/>
      <point x="255" y="672"/>
      <point x="115" y="471"/>
      <point x="115.0" y="233.0" type="curve" smooth="yes"/>
      <point x="115" y="84"/>
      <point x="186.934443843" y="-12.0"/>
      <point x="311.0" y="-12.0" type="curve" smooth="yes"/>
      <point x="512.0" y="-12.0"/>
      <point x="625.0" y="224.0"/>
      <point x="625.0" y="428.0" type="curve" smooth="yes"/>
      <point x="625.0" y="575.0"/>
      <point x="557" y="672"/>
    </contour>
    <contour>
      <point x="206" y="15"/>
      <point x="145.0" y="105.425719645"/>
      <point x="145.0" y="233.0" type="curve" smooth="yes"/>
      <point x="145" y="468"/>
      <point x="280" y="646"/>
      <point x="429" y="646" type="curve" smooth="yes"/>
      <point x="537" y="646"/>
      <point x="595" y="561"/>
      <point x="595" y="426" type="curve" smooth="yes"/>
      <point x="595" y="232"/>
      <point x="487" y="15"/>
      <point x="312" y="15" type="curve" smooth="yes"/>
    </contour>
  </outline>
</glyph>
<glyph name="P" format="1">
  <advance width="600"/>
  <unicode hex="0050"/>
  <outline>
    <contour>
      <point x="69" y="0" type="line"/>
      <point x="99" y="0" type="line"/>
      <point x="157" y="294" type="line"/>
      <point x="285" y="294" type="line" smooth="yes"/>
      <point x="455" y="294"/>
      <point x="561" y="366"/>
      <point x="561" y="510" type="curve" smooth="yes"/>
      <point x="561" y="615"/>
      <point x="493" y="660"/>
      <point x="373" y="660" type="curve" smooth="yes"/>
      <point x="201" y="660" type="line"/>
    </contour>
    <contour>
      <point x="163" y="320" type="line"/>
      <point x="225" y="634" type="line"/>
      <point x="359" y="634" type="line" smooth="yes"/>
      <point x="473" y="634"/>
      <point x="531" y="599"/>
      <point x="531" y="508" type="curve" smooth="yes"/>
      <point x="531" y="384"/>
      <point x="445" y="320"/>
      <point x="279" y="320" type="curve" smooth="yes"/>
    </contour>
    <contour>
      <point x="380" y="682" type="move" name="aboveUC"/>
    </contour>
    <contour>
      <point x="90" y="-22" type="move" name="belowLC"/>
    </contour>
  </outline>
</glyph>
<glyph name="Q" format="1">
  <advance width="600"/>
  <unicode hex="0051"/>
  <outline>
    <contour>
      <point x="214" y="6" type="line"/>
      <point x="228" y="-102"/>
      <point x="303" y="-148"/>
      <point x="391" y="-148" type="curve" smooth="yes"/>
      <point x="424" y="-148"/>
      <point x="456" y="-141"/>
      <point x="482" y="-132" type="curve"/>
      <point x="474" y="-107" type="line"/>
      <point x="453" y="-116"/>
      <point x="426" y="-122"/>
      <point x="393" y="-122" type="curve" smooth="yes"/>
      <point x="315" y="-122"/>
      <point x="256" y="-79"/>
      <point x="244" y="0" type="curve"/>
    </contour>
    <component base="O"/>
    <contour>
      <point x="374" y="682" type="move" name="aboveUC"/>
    </contour>
  </outline>
</glyph>
<glyph name="R" format="1">
  <advance width="600"/>
  <unicode hex="0052"/>
  <outline>
    <contour>
      <point x="337" y="322" type="line"/>
      <point x="470" y="0" type="line"/>
      <point x="504" y="0" type="line"/>
      <point x="370" y="324" type="line"/>
    </contour>
    <contour>
      <point x="107" y="0" type="line"/>
      <point x="137" y="0" type="line"/>
      <point x="199" y="310" type="line"/>
      <point x="343" y="310" type="line" smooth="yes"/>
      <point x="485" y="310"/>
      <point x="591" y="390"/>
      <point x="591" y="518" type="curve" smooth="yes"/>
      <point x="591" y="618"/>
      <point x="528" y="660"/>
      <point x="410" y="660" type="curve" smooth="yes"/>
      <point x="239" y="660" type="line"/>
    </contour>
    <contour>
      <point x="205" y="336" type="line"/>
      <point x="263" y="634" type="line"/>
      <point x="392" y="634" type="line" smooth="yes"/>
      <point x="510" y="634"/>
      <point x="561" y="602"/>
      <point x="561" y="516" type="curve" smooth="yes"/>
      <point x="561" y="404"/>
      <point x="477" y="336"/>
      <point x="329" y="336" type="curve" smooth="yes"/>
    </contour>
  </outline>
</glyph>
<glyph name="U" format="1">
  <advance width="600"/>
  <unicode hex="0055"/>
  <outline>
    <contour>
      <point x="82" y="262" type="line" smooth="yes"/>
      <point x="47" y="89"/>
      <point x="119" y="-12"/>
      <point x="244" y="-12" type="curve" smooth="yes"/>
      <point x="365" y="-12"/>
      <point x="456" y="53"/>
      <point x="494" y="241" type="curve" smooth="yes"/>
      <point x="578" y="660" type="line"/>
      <point x="548" y="660" type="line"/>
      <point x="466" y="249" type="line" smooth="yes"/>
      <point x="431.799360621" y="77.5797221385"/>
      <point x="353.0" y="14.0"/>
      <point x="248" y="14" type="curve" smooth="yes"/>
      <point x="136.0" y="14.0"/>
      <point x="81.137634195" y="105.688170977"/>
      <point x="114" y="270" type="curve" smooth="yes"/>
      <point x="192" y="660" type="line"/>
      <point x="162" y="660" type="line"/>
    </contour>
    <contour>
      <point x="374" y="682" type="move" name="aboveUC"/>
    </contour>
    <contour>
      <point x="234" y="-22" type="move" name="belowLC"/>
    </contour>
    <contour>
      <point x="240" y="0" type="move" name="ogonekUC"/>
    </contour>
    <contour>
      <point x="454" y="670" type="move" name="hornLC"/>
    </contour>
  </outline>
</glyph>
<glyph name="V" format="1">
  <advance width="600"/>
  <unicode hex="0056"/>
  <outline>
    <contour>
      <point x="276" y="0" type="line"/>
      <point x="310" y="0" type="line"/>
      <point x="670" y="660" type="line"/>
      <point x="639" y="660" type="line"/>
      <point x="420" y="260" type="line" smooth="yes"/>
      <point x="382" y="190"/>
      <point x="340" y="110"/>
      <point x="304" y="38" type="curve"/>
      <point x="298" y="38" type="line"/>
      <point x="290" y="112"/>
      <point x="282" y="188"/>
      <point x="274" y="260" type="curve" smooth="yes"/>
      <point x="232" y="660" type="line"/>
      <point x="204" y="660" type="line"/>
    </contour>
  </outline>
</glyph>
<glyph name="W" format="1">
  <advance width="600"/>
  <unicode hex="0057"/>
  <outline>
    <contour>
      <point x="146" y="0" type="line"/>
      <point x="192" y="0" type="line"/>
      <point x="340" y="315" type="line" smooth="yes"/>
      <point x="358" y="354"/>
      <point x="380" y="405"/>
      <point x="390" y="433" type="curve"/>
      <point x="395" y="433" type="line"/>
      <point x="398" y="406"/>
      <point x="403" y="354"/>
      <point x="408" y="316" type="curve" smooth="yes"/>
      <point x="447" y="0" type="line"/>
      <point x="492" y="0" type="line"/>
      <point x="698" y="660" type="line"/>
      <point x="670" y="660" type="line"/>
      <point x="509" y="147" type="line" smooth="yes"/>
      <point x="476" y="26" type="line"/>
      <point x="470" y="26" type="line"/>
      <point x="467" y="64"/>
      <point x="456" y="157"/>
      <point x="449" y="210" type="curve" smooth="yes"/>
      <point x="416" y="467" type="line"/>
      <point x="381" y="467" type="line"/>
      <point x="229" y="142" type="line" smooth="yes"/>
      <point x="177" y="20" type="line"/>
      <point x="173" y="20" type="line"/>
      <point x="173" y="20"/>
      <point x="177" y="69"/>
      <point x="180" y="140" type="curve" smooth="yes"/>
      <point x="205" y="660" type="line"/>
      <point x="176" y="660" type="line"/>
    </contour>
  </outline>
</glyph>
<glyph name="X" format="1">
  <advance width="600"/>
  <unicode hex="0058"/>
  <outline>
    <contour>
      <point x="85" y="0" type="line"/>
      <point x="114" y="0" type="line"/>
      <point x="280" y="214" type="line" smooth="yes"/>
      <point x="305" y="246"/>
      <point x="329" y="278"/>
      <point x="359" y="318" type="curve"/>
      <point x="363" y="318" type="line"/>
      <point x="379" y="278"/>
      <point x="393" y="246"/>
      <point x="405" y="214" type="curve" smooth="yes"/>
      <point x="485" y="0" type="line"/>
      <point x="516" y="0" type="line"/>
      <point x="384" y="340" type="line"/>
      <point x="634" y="660" type="line"/>
      <point x="605" y="660" type="line"/>
      <point x="446" y="454" type="line" smooth="yes"/>
      <point x="423" y="424"/>
      <point x="406" y="403"/>
      <point x="379" y="367" type="curve"/>
      <point x="375" y="367" type="line"/>
      <point x="360" y="403"/>
      <point x="349" y="424"/>
      <point x="338" y="454" type="curve" smooth="yes"/>
      <point x="262" y="660" type="line"/>
      <point x="231" y="660" type="line"/>
      <point x="354" y="342" type="line"/>
    </contour>
  </outline>
</glyph>
<glyph name="Y" format="1">
  <advance width="600"/>
  <unicode hex="0059"/>
  <outline>
    <contour>
      <point x="286" y="0" type="line"/>
      <point x="315" y="0" type="line"/>
      <point x="364" y="246" type="line"/>
      <point x="675" y="660" type="line"/>
      <point x="648" y="660" type="line"/>
      <point x="481" y="434" type="line" smooth="yes"/>
      <point x="442" y="381"/>
      <point x="402" y="329"/>
      <point x="359" y="276" type="curve"/>
      <point x="355" y="276" type="line"/>
      <point x="335" y="329"/>
      <point x="316" y="380"/>
      <point x="298" y="433" type="curve" smooth="yes"/>
      <point x="218" y="660" type="line"/>
      <point x="189" y="660" type="line"/>
      <point x="335" y="246" type="line"/>
    </contour>
  </outline>
</glyph>
<glyph name="Z" format="1">
  <advance width="600"/>
  <unicode hex="005A"/>
  <outline>
    <contour>
      <point x="61" y="14" type="line"/>
      <point x="573" y="644" type="line"/>
      <point x="576" y="660" type="line"/>
      <point x="144" y="660" type="line"/>
      <point x="139" y="635" type="line"/>
      <point x="551" y="635" type="line"/>
      <point x="541" y="650" type="line"/>
      <point x="28" y="17" type="line"/>
      <point x="25" y="0" type="line"/>
      <point x="480" y="0" type="line"/>
      <point x="486" y="26" type="line"/>
      <point x="51" y="26" type="line"/>
    </contour>
    <contour>
      <point x="366" y="682" type="move" name="aboveUC"/>
    </contour>
    <contour>
      <point x="262" y="-22" type="move" name="belowLC"/>
    </contour>
  </outline>
</glyph>
<glyph name="bracketleft" format="1">
  <advance width="600"/>
  <unicode hex="005B"/>
  <outline>
    <contour>
      <point x="248" y="-130" type="line"/>
      <point x="410" y="686" type="line"/>
      <point x="644" y="686" type="line"/>
      <point x="646" y="708" type="line"/>
      <point x="390" y="708" type="line"/>
      <point x="218" y="-152" type="line"/>
      <point x="474" y="-152" type="line"/>
      <point x="480" y="-130" type="line"/>
    </contour>
  </outline>
</glyph>
<glyph name="backslash" format="1">
  <advance width="600"/>
  <unicode hex="005C"/>
  <outline>
    <contour>
      <point x="361" y="-160" type="line"/>
      <point x="388" y="-160" type="line"/>
      <point x="236" y="710" type="line"/>
      <point x="209" y="710" type="line"/>
    </contour>
  </outline>
</glyph>
<glyph name="bracketright" format="1">
  <advance width="599"/>
  <unicode hex="005D"/>
  <outline>
    <contour>
      <point x="464" y="686" type="line"/>
      <point x="302" y="-130" type="line"/>
      <point x="68" y="-130" type="line"/>
      <point x="66" y="-152" type="line"/>
      <point x="322" y="-152" type="line"/>
      <point x="494" y="708" type="line"/>
      <point x="238" y="708" type="line"/>
      <point x="232" y="686" type="line"/>
    </contour>
  </outline>
</glyph>
<glyph name="asciicircum" format="1">
  <advance width="599"/>
  <unicode hex="005E"/>
  <outline>
    <contour>
      <point x="133" y="292" type="line"/>
      <point x="163" y="292" type="line"/>
      <point x="246" y="509" type="line"/>
      <point x="298" y="640" type="line"/>
      <point x="302" y="640" type="line"/>
      <point x="354" y="509" type="line"/>
      <point x="437" y="292" type="line"/>
      <point x="467" y="292" type="line"/>
      <point x="317" y="670" type="line"/>
      <point x="283" y="670" type="line"/>
    </contour>
  </outline>
</glyph>
<glyph name="underscore" format="1">
  <advance width="600"/>
  <unicode hex="005F"/>
  <outline>
    <contour>
      <point x="42" y="-83" type="line"/>
      <point x="35" y="-119" type="line"/>
      <point x="515" y="-119" type="line"/>
      <point x="522" y="-83" type="line"/>
    </contour>
  </outline>
</glyph>
<glyph name="a" format="1">
  <advance width="600"/>
  <unicode hex="0061"/>
  <outline>
    <contour>
      <point x="54" y="170" type="curve" smooth="yes"/>
      <point x="54" y="51"/>
      <point x="122" y="-12"/>
      <point x="224" y="-12" type="curve" smooth="yes"/>
      <point x="296" y="-12"/>
      <point x="361" y="26"/>
      <point x="414" y="78" type="curve"/>
      <point x="418" y="78" type="line"/>
      <point x="406" y="0" type="line"/>
      <point x="430" y="0" type="line"/>
      <point x="526" y="478" type="line"/>
      <point x="502" y="478" type="line"/>
      <point x="484" y="410" type="line"/>
      <point x="480" y="410" type="line"/>
      <point x="448" y="458"/>
      <point x="397" y="490"/>
      <point x="324" y="490" type="curve" smooth="yes"/>
      <point x="176" y="490"/>
      <point x="54" y="348"/>
    </contour>
    <contour>
      <point x="226" y="14" type="curve" smooth="yes"/>
      <point x="141" y="14"/>
      <point x="82" y="67"/>
      <point x="82" y="176" type="curve" smooth="yes"/>
      <point x="82" y="319"/>
      <point x="186" y="464"/>
      <point x="322" y="464" type="curve" smooth="yes"/>
      <point x="382" y="464"/>
      <point x="430" y="438"/>
      <point x="477" y="372" type="curve"/>
      <point x="426" y="122" type="line"/>
      <point x="363" y="54"/>
      <point x="295" y="14"/>
    </contour>
    <contour>
      <point x="258" y="500" type="move" name="aboveLC"/>
    </contour>
    <contour>
      <point x="238" y="-22" type="move" name="belowLC"/>
    </contour>
  </outline>
</glyph>
<glyph name="b" format="1">
  <advance width="600"/>
  <unicode hex="0062"/>
  <outline>
    <contour>
      <point x="76" y="0" type="line"/>
      <point x="94" y="68" type="line"/>
      <point x="98" y="68" type="line"/>
      <point x="133" y="21"/>
      <point x="182" y="-12"/>
      <point x="260" y="-12" type="curve" smooth="yes"/>
      <point x="412" y="-12"/>
      <point x="524" y="126"/>
      <point x="524" y="298" type="curve" smooth="yes"/>
      <point x="524" y="424"/>
      <point x="456" y="490"/>
      <point x="354" y="490" type="curve" smooth="yes"/>
      <point x="282" y="490"/>
      <point x="214" y="445"/>
      <point x="159" y="398" type="curve"/>
      <point x="157" y="398" type="line"/>
      <point x="180" y="506" type="line"/>
      <point x="223" y="722" type="line"/>
      <point x="196" y="722" type="line"/>
      <point x="52" y="0" type="line"/>
    </contour>
    <contour>
      <point x="352" y="464" type="curve" smooth="yes"/>
      <point x="440" y="464"/>
      <point x="496" y="407"/>
      <point x="496" y="292" type="curve" smooth="yes"/>
      <point x="496" y="154"/>
      <point x="402" y="14"/>
      <point x="262" y="14" type="curve" smooth="yes"/>
      <point x="198" y="14"/>
      <point x="149" y="38"/>
      <point x="100" y="106" type="curve"/>
      <point x="152" y="362" type="line"/>
      <point x="213" y="420"/>
      <point x="293" y="464"/>
    </contour>
    <contour>
      <point x="68" y="730" type="move" name="aboveLC"/>
    </contour>
    <contour>
      <point x="236" y="-22" type="move" name="belowLC"/>
    </contour>
  </outline>
</glyph>
<glyph name="c" format="1">
  <advance width="600"/>
  <unicode hex="0063"/>
  <outline>
    <contour>
      <point x="132" y="209" type="curve" smooth="yes"/>
      <point x="132" y="71"/>
      <point x="222" y="-12"/>
      <point x="356" y="-12" type="curve" smooth="yes"/>
      <point x="428" y="-12"/>
      <point x="491" y="16"/>
      <point x="545" y="56" type="curve"/>
      <point x="532" y="76" type="line"/>
      <point x="482" y="40"/>
      <point x="424" y="14"/>
      <point x="361" y="14" type="curve" smooth="yes"/>
      <point x="236" y="14"/>
      <point x="162" y="95"/>
      <point x="162" y="215" type="curve" smooth="yes"/>
      <point x="162" y="356"/>
      <point x="277" y="464"/>
      <point x="420" y="464" type="curve" smooth="yes"/>
      <point x="488" y="464"/>
      <point x="534" y="431"/>
      <point x="569" y="385" type="curve"/>
      <point x="592" y="405" type="line"/>
      <point x="558" y="448"/>
      <point x="512" y="490"/>
      <point x="426" y="490" type="curve" smooth="yes"/>
      <point x="273" y="490"/>
      <point x="132" y="384"/>
    </contour>
  </outline>
</glyph>
<glyph name="d" format="1">
  <advance width="600"/>
  <unicode hex="0064"/>
  <outline>
    <contour>
      <point x="485" y="410" type="line"/>
      <point x="481" y="410" type="line"/>
      <point x="451" y="458"/>
      <point x="396" y="490"/>
      <point x="323" y="490" type="curve" smooth="yes"/>
      <point x="175" y="490"/>
      <point x="55" y="348"/>
      <point x="55" y="170" type="curve" smooth="yes"/>
      <point x="55" y="51"/>
      <point x="123" y="-12"/>
      <point x="225" y="-12" type="curve" smooth="yes"/>
      <point x="293" y="-12"/>
      <point x="362" y="26"/>
      <point x="415" y="78" type="curve"/>
      <point x="419" y="78" type="line"/>
      <point x="407" y="0" type="line"/>
      <point x="431" y="0" type="line"/>
      <point x="577" y="722" type="line"/>
      <point x="549" y="722" type="line"/>
      <point x="505" y="506" type="line"/>
    </contour>
    <contour>
      <point x="227" y="14" type="curve" smooth="yes"/>
      <point x="139" y="14"/>
      <point x="83" y="67"/>
      <point x="83" y="176" type="curve" smooth="yes"/>
      <point x="83" y="319"/>
      <point x="185" y="464"/>
      <point x="321" y="464" type="curve" smooth="yes"/>
      <point x="381" y="464"/>
      <point x="435" y="438"/>
      <point x="479" y="372" type="curve"/>
      <point x="427" y="122" type="line"/>
      <point x="364" y="54"/>
      <point x="291" y="14"/>
    </contour>
    <contour>
      <point x="396" y="730" type="move" name="aboveLC"/>
    </contour>
    <contour>
      <point x="244" y="-22" type="move" name="belowLC"/>
    </contour>
  </outline>
</glyph>
<glyph name="e" format="1">
  <advance width="600"/>
  <unicode hex="0065"/>
  <outline>
    <contour>
      <point x="561" y="263" type="line"/>
      <point x="162" y="263" type="line"/>
      <point x="156" y="239" type="line"/>
      <point x="570" y="239" type="line"/>
      <point x="574" y="251"/>
      <point x="579" y="283"/>
      <point x="579" y="317" type="curve" smooth="yes"/>
      <point x="579" y="425"/>
      <point x="499" y="490"/>
      <point x="404" y="490" type="curve" smooth="yes"/>
      <point x="263" y="490"/>
      <point x="131" y="372"/>
      <point x="131" y="191" type="curve" smooth="yes"/>
      <point x="131" y="65"/>
      <point x="210" y="-12"/>
      <point x="328" y="-12" type="curve" smooth="yes"/>
      <point x="419" y="-12"/>
      <point x="482" y="20"/>
      <point x="527" y="51" type="curve"/>
      <point x="514" y="73" type="line"/>
      <point x="462" y="36"/>
      <point x="407" y="14"/>
      <point x="333" y="14" type="curve" smooth="yes"/>
      <point x="225" y="14"/>
      <point x="160" y="87"/>
      <point x="160" y="193" type="curve" smooth="yes"/>
      <point x="160" y="355"/>
      <point x="282" y="464"/>
      <point x="396" y="464" type="curve" smooth="yes"/>
      <point x="479" y="464"/>
      <point x="549" y="413"/>
      <point x="549" y="320" type="curve" smooth="yes"/>
      <point x="549" y="298"/>
      <point x="548" y="277"/>
      <point x="544" y="257" type="curve"/>
    </contour>
  </outline>
</glyph>
<glyph name="f" format="1">
  <advance width="600"/>
  <unicode hex="0066"/>
  <outline>
    <contour>
      <point x="191" y="0" type="line"/>
      <point x="216" y="0" type="line"/>
      <point x="326" y="553" type="line" smooth="yes"/>
      <point x="346" y="652"/>
      <point x="398" y="711"/>
      <point x="494" y="711" type="curve" smooth="yes"/>
      <point x="537" y="711"/>
      <point x="573" y="694"/>
      <point x="604" y="668" type="curve"/>
      <point x="622" y="686" type="line"/>
      <point x="590" y="715"/>
      <point x="542" y="734"/>
      <point x="496" y="734" type="curve" smooth="yes"/>
      <point x="401" y="734"/>
      <point x="326" y="686"/>
      <point x="301" y="557" type="curve" smooth="yes"/>
    </contour>
    <contour>
      <point x="137" y="454" type="line"/>
      <point x="540" y="454" type="line"/>
      <point x="543" y="478" type="line"/>
      <point x="286" y="478" type="line"/>
      <point x="139" y="474" type="line"/>
    </contour>
    <contour>
      <point x="366" y="740" type="move" name="aboveLC"/>
    </contour>
    <contour>
      <point x="230" y="-22" type="move" name="belowLC"/>
    </contour>
  </outline>
</glyph>
<glyph name="h" format="1">
  <advance width="600"/>
  <unicode hex="0068"/>
  <outline>
    <contour>
      <point x="50" y="0" type="line"/>
      <point x="78" y="0" type="line"/>
      <point x="144" y="324" type="line"/>
      <point x="228" y="410"/>
      <point x="306" y="464"/>
      <point x="384" y="464" type="curve" smooth="yes"/>
      <point x="438" y="464"/>
      <point x="486" y="432"/>
      <point x="486" y="370" type="curve" smooth="yes"/>
      <point x="486" y="342"/>
      <point x="484" y="318"/>
      <point x="478" y="288" type="curve" smooth="yes"/>
      <point x="420" y="0" type="line"/>
      <point x="448" y="0" type="line"/>
      <point x="506" y="290" type="line" smooth="yes"/>
      <point x="512" y="318"/>
      <point x="516" y="342"/>
      <point x="516" y="374" type="curve" smooth="yes"/>
      <point x="516" y="442"/>
      <point x="459" y="490"/>
      <point x="388" y="490" type="curve" smooth="yes"/>
      <point x="294" y="490"/>
      <point x="218" y="432"/>
      <point x="152" y="368" type="curve"/>
      <point x="148" y="368" type="line"/>
      <point x="160" y="414" type="line"/>
      <point x="222" y="722" type="line"/>
      <point x="194" y="722" type="line"/>
    </contour>
    <contour>
      <point x="91" y="730" type="move" name="aboveLC"/>
    </contour>
    <contour>
      <point x="259" y="-22" type="move" name="belowLC"/>
    </contour>
  </outline>
</glyph>
<glyph name="i" format="1">
  <advance width="600"/>
  <unicode hex="0069"/>
  <outline>
    <contour>
      <point x="347" y="600" type="curve" smooth="yes"/>
      <point x="368" y="600"/>
      <point x="390" y="619"/>
      <point x="390" y="645" type="curve" smooth="yes"/>
      <point x="390" y="667"/>
      <point x="375" y="682"/>
      <point x="356" y="682" type="curve" smooth="yes"/>
      <point x="335" y="682"/>
      <point x="313" y="662"/>
      <point x="313" y="634" type="curve" smooth="yes"/>
      <point x="313" y="615"/>
      <point x="328" y="600"/>
    </contour>
    <contour>
      <point x="125" y="452" type="line"/>
      <point x="314" y="452" type="line"/>
      <point x="248" y="142" type="line" smooth="yes"/>
      <point x="244" y="124"/>
      <point x="242" y="108"/>
      <point x="242" y="94" type="curve" smooth="yes"/>
      <point x="242" y="20"/>
      <point x="288" y="-12"/>
      <point x="351" y="-12" type="curve" smooth="yes"/>
      <point x="397" y="-12"/>
      <point x="433" y="0"/>
      <point x="473" y="19" type="curve"/>
      <point x="463" y="44" type="line"/>
      <point x="423" y="25"/>
      <point x="392" y="14"/>
      <point x="356" y="14" type="curve" smooth="yes"/>
      <point x="307" y="14"/>
      <point x="270" y="38"/>
      <point x="270" y="97" type="curve" smooth="yes"/>
      <point x="270" y="108"/>
      <point x="271" y="120"/>
      <point x="274" y="134" type="curve" smooth="yes"/>
      <point x="346" y="478" type="line"/>
      <point x="130" y="478" type="line"/>
    </contour>
    <contour>
      <point x="290" y="672" type="move" name="aboveLC"/>
    </contour>
    <contour>
      <point x="290" y="-22" type="move" name="belowLC"/>
    </contour>
    <contour>
      <point x="319" y="0" type="move" name="ogonekLC"/>
    </contour>
  </outline>
</glyph>
<glyph name="k" format="1">
  <advance width="599"/>
  <unicode hex="006B"/>
  <outline>
    <contour>
      <point x="130" y="0" type="line"/>
      <point x="158" y="0" type="line"/>
      <point x="186" y="136" type="line"/>
      <point x="368" y="276" type="line"/>
      <point x="532" y="0" type="line"/>
      <point x="564" y="0" type="line"/>
      <point x="390" y="292" type="line"/>
      <point x="624" y="478" type="line"/>
      <point x="584" y="478" type="line"/>
      <point x="198" y="178" type="line"/>
      <point x="194" y="178" type="line"/>
      <point x="302" y="722" type="line"/>
      <point x="274" y="722" type="line"/>
    </contour>
  </outline>
</glyph>
<glyph name="l" format="1">
  <advance width="600"/>
  <unicode hex="006C"/>
  <outline>
    <contour>
      <point x="224" y="696" type="line"/>
      <point x="393" y="696" type="line"/>
      <point x="281" y="144" type="line" smooth="yes"/>
      <point x="259" y="37"/>
      <point x="310" y="-12"/>
      <point x="385" y="-12" type="curve" smooth="yes"/>
      <point x="428" y="-12"/>
      <point x="470" y="-1"/>
      <point x="507" y="19" type="curve"/>
      <point x="496" y="43" type="line"/>
      <point x="458" y="23"/>
      <point x="424" y="14"/>
      <point x="391" y="14" type="curve" smooth="yes"/>
      <point x="321" y="14"/>
      <point x="290" y="57"/>
      <point x="309" y="151" type="curve" smooth="yes"/>
      <point x="425" y="722" type="line"/>
      <point x="229" y="722" type="line"/>
    </contour>
  </outline>
</glyph>
<glyph name="m" format="1">
  <advance width="600"/>
  <unicode hex="006D"/>
  <outline>
    <contour>
      <point x="77" y="0" type="line"/>
      <point x="104" y="0" type="line"/>
      <point x="178" y="365" type="line"/>
      <point x="228" y="430"/>
      <point x="269" y="464"/>
      <point x="318" y="464" type="curve" smooth="yes"/>
      <point x="361" y="464"/>
      <point x="375" y="423"/>
      <point x="362" y="344" type="curve" smooth="yes"/>
      <point x="293" y="0" type="line"/>
      <point x="321" y="0" type="line"/>
      <point x="394" y="365" type="line"/>
      <point x="444" y="431"/>
      <point x="486" y="464"/>
      <point x="535" y="464" type="curve" smooth="yes"/>
      <point x="580" y="464"/>
      <point x="596" y="431"/>
      <point x="580" y="352" type="curve" smooth="yes"/>
      <point x="510" y="0" type="line"/>
      <point x="537" y="0" type="line"/>
      <point x="608" y="356" type="line" smooth="yes"/>
      <point x="627" y="452"/>
      <point x="597" y="490"/>
      <point x="540" y="490" type="curve" smooth="yes"/>
      <point x="486" y="490"/>
      <point x="442" y="461"/>
      <point x="395" y="402" type="curve"/>
      <point x="393" y="459"/>
      <point x="374" y="490"/>
      <point x="324" y="490" type="curve" smooth="yes"/>
      <point x="280" y="490"/>
      <point x="232" y="467"/>
      <point x="189" y="411" type="curve"/>
      <point x="187" y="411" type="line"/>
      <point x="196" y="478" type="line"/>
      <point x="172" y="478" type="line"/>
    </contour>
  </outline>
</glyph>
<glyph name="n" format="1">
  <advance width="600"/>
  <unicode hex="006E"/>
  <outline>
    <contour>
      <point x="112" y="0" type="line"/>
      <point x="140" y="0" type="line"/>
      <point x="206" y="324" type="line"/>
      <point x="290" y="410"/>
      <point x="368" y="464"/>
      <point x="446" y="464" type="curve" smooth="yes"/>
      <point x="500" y="464"/>
      <point x="548" y="432"/>
      <point x="548" y="370" type="curve" smooth="yes"/>
      <point x="548" y="342"/>
      <point x="546" y="318"/>
      <point x="540" y="288" type="curve" smooth="yes"/>
      <point x="482" y="0" type="line"/>
      <point x="510" y="0" type="line"/>
      <point x="568" y="290" type="line" smooth="yes"/>
      <point x="574" y="318"/>
      <point x="578" y="342"/>
      <point x="578" y="374" type="curve" smooth="yes"/>
      <point x="578" y="442"/>
      <point x="521" y="490"/>
      <point x="450" y="490" type="curve" smooth="yes"/>
      <point x="356" y="490"/>
      <point x="284" y="432"/>
      <point x="218" y="368" type="curve"/>
      <point x="214" y="368" type="line"/>
      <point x="232" y="478" type="line"/>
      <point x="208" y="478" type="line"/>
    </contour>
  </outline>
</glyph>
<glyph name="o" format="1">
  <advance width="600"/>
  <unicode hex="006F"/>
  <outline>
    <contour>
      <point x="391" y="490" type="curve" smooth="yes"/>
      <point x="243" y="490"/>
      <point x="119" y="358"/>
      <point x="119" y="194" type="curve" smooth="yes"/>
      <point x="119" y="74"/>
      <point x="189" y="-12"/>
      <point x="309" y="-12" type="curve" smooth="yes"/>
      <point x="457" y="-12"/>
      <point x="581" y="120"/>
      <point x="581" y="284" type="curve" smooth="yes"/>
      <point x="581" y="404"/>
      <point x="511" y="490"/>
    </contour>
    <contour>
      <point x="311" y="14" type="curve" smooth="yes"/>
      <point x="207" y="14"/>
      <point x="147" y="88"/>
      <point x="147" y="200" type="curve" smooth="yes"/>
      <point x="147" y="341"/>
      <point x="261" y="464"/>
      <point x="389" y="464" type="curve" smooth="yes"/>
      <point x="493" y="464"/>
      <point x="553" y="390"/>
      <point x="553" y="278" type="curve" smooth="yes"/>
      <point x="553" y="137"/>
      <point x="439" y="14"/>
    </contour>
  </outline>
</glyph>
<glyph name="p" format="1">
  <advance width="600"/>
  <unicode hex="0070"/>
  <outline>
    <contour>
      <point x="153" y="68" type="line"/>
      <point x="155" y="68" type="line"/>
      <point x="189" y="22"/>
      <point x="249" y="-12"/>
      <point x="319" y="-12" type="curve" smooth="yes"/>
      <point x="477" y="-12"/>
      <point x="585" y="126"/>
      <point x="585" y="298" type="curve" smooth="yes"/>
      <point x="585" y="421"/>
      <point x="517" y="490"/>
      <point x="415" y="490" type="curve" smooth="yes"/>
      <point x="343" y="490"/>
      <point x="278" y="445"/>
      <point x="223" y="398" type="curve"/>
      <point x="219" y="398" type="line"/>
      <point x="233" y="478" type="line"/>
      <point x="209" y="478" type="line"/>
      <point x="69" y="-222" type="line"/>
      <point x="97" y="-222" type="line"/>
      <point x="131" y="-42" type="line"/>
    </contour>
    <contour>
      <point x="413" y="464" type="curve" smooth="yes"/>
      <point x="501" y="464"/>
      <point x="557" y="407"/>
      <point x="557" y="292" type="curve" smooth="yes"/>
      <point x="557" y="154"/>
      <point x="467" y="14"/>
      <point x="321" y="14" type="curve" smooth="yes"/>
      <point x="261" y="14"/>
      <point x="208" y="38"/>
      <point x="161" y="102" type="curve"/>
      <point x="213" y="360" type="line"/>
      <point x="274" y="420"/>
      <point x="354" y="464"/>
    </contour>
  </outline>
</glyph>
<glyph name="q" format="1">
  <advance width="599"/>
  <unicode hex="0071"/>
  <outline>
    <contour>
      <point x="112" y="178" type="curve" smooth="yes"/>
      <point x="112" y="56"/>
      <point x="176" y="-12"/>
      <point x="281" y="-12" type="curve" smooth="yes"/>
      <point x="352" y="-12"/>
      <point x="425" y="28"/>
      <point x="481" y="85" type="curve"/>
      <point x="458" y="-22" type="line"/>
      <point x="418" y="-223" type="line"/>
      <point x="445" y="-223" type="line"/>
      <point x="585" y="478" type="line"/>
      <point x="562" y="478" type="line"/>
      <point x="545" y="408" type="line"/>
      <point x="543" y="408" type="line"/>
      <point x="504" y="455"/>
      <point x="460" y="490"/>
      <point x="391" y="490" type="curve" smooth="yes"/>
      <point x="248" y="490"/>
      <point x="112" y="365"/>
    </contour>
    <contour>
      <point x="141" y="184" type="curve" smooth="yes"/>
      <point x="141" y="339"/>
      <point x="265" y="464"/>
      <point x="387" y="464" type="curve"/>
      <point x="443" y="464"/>
      <point x="489" y="439"/>
      <point x="538" y="374" type="curve"/>
      <point x="486" y="121" type="line"/>
      <point x="419" y="51"/>
      <point x="347" y="14"/>
      <point x="282" y="14" type="curve" smooth="yes"/>
      <point x="191" y="14"/>
      <point x="141" y="78"/>
    </contour>
  </outline>
</glyph>
<glyph name="r" format="1">
  <advance width="600"/>
  <unicode hex="0072"/>
  <outline>
    <contour>
      <point x="172" y="0" type="line"/>
      <point x="200" y="0" type="line"/>
      <point x="258" y="282" type="line"/>
      <point x="338" y="406"/>
      <point x="430" y="464"/>
      <point x="514" y="464" type="curve" smooth="yes"/>
      <point x="559" y="464"/>
      <point x="584" y="458"/>
      <point x="610" y="440" type="curve"/>
      <point x="622" y="464" type="line"/>
      <point x="597" y="480"/>
      <point x="566" y="490"/>
      <point x="520" y="490" type="curve" smooth="yes"/>
      <point x="422" y="490"/>
      <point x="339" y="431"/>
      <point x="274" y="344" type="curve"/>
      <point x="270" y="344" type="line"/>
      <point x="292" y="478" type="line"/>
      <point x="268" y="478" type="line"/>
    </contour>
  </outline>
</glyph>
<glyph name="s" format="1">
  <advance width="600"/>
  <unicode hex="0073"/>
  <outline>
    <contour>
      <point x="111" y="86" type="line"/>
      <point x="153" y="32"/>
      <point x="227" y="-12"/>
      <point x="342" y="-12" type="curve" smooth="yes"/>
      <point x="455" y="-12"/>
      <point x="530" y="29"/>
      <point x="530" y="116" type="curve" smooth="yes"/>
      <point x="530" y="186"/>
      <point x="477" y="219"/>
      <point x="367" y="253" type="curve" smooth="yes"/>
      <point x="268" y="284"/>
      <point x="208" y="320"/>
      <point x="214" y="382" type="curve" smooth="yes"/>
      <point x="219" y="437"/>
      <point x="279" y="464"/>
      <point x="358" y="464" type="curve" smooth="yes"/>
      <point x="450" y="464"/>
      <point x="514" y="422"/>
      <point x="545" y="390" type="curve"/>
      <point x="566" y="407" type="line"/>
      <point x="529" y="452"/>
      <point x="445" y="490"/>
      <point x="360" y="490" type="curve" smooth="yes"/>
      <point x="271" y="490"/>
      <point x="192" y="460"/>
      <point x="185" y="382" type="curve" smooth="yes"/>
      <point x="179" y="319"/>
      <point x="216" y="270"/>
      <point x="347" y="229" type="curve" smooth="yes"/>
      <point x="445" y="198"/>
      <point x="500" y="173"/>
      <point x="500" y="110" type="curve" smooth="yes"/>
      <point x="500" y="50"/>
      <point x="435" y="14"/>
      <point x="344" y="14" type="curve" smooth="yes"/>
      <point x="229" y="14"/>
      <point x="173" y="56"/>
      <point x="134" y="103" type="curve"/>
    </contour>
  </outline>
</glyph>
<glyph name="t" format="1">
  <advance width="599.0"/>
  <unicode hex="0074"/>
  <outline>
    <contour>
      <point x="248" y="175" type="line" smooth="yes"/>
      <point x="226" y="64"/>
      <point x="252" y="-12"/>
      <point x="379" y="-12" type="curve" smooth="yes"/>
      <point x="422" y="-12"/>
      <point x="478" y="0"/>
      <point x="524" y="20" type="curve"/>
      <point x="514" y="42" type="line"/>
      <point x="472" y="24"/>
      <point x="438" y="14"/>
      <point x="385" y="14" type="curve" smooth="yes"/>
      <point x="273" y="14"/>
      <point x="255" y="75"/>
      <point x="275" y="171" type="curve" smooth="yes"/>
      <point x="331" y="452" type="line"/>
      <point x="594" y="452" type="line"/>
      <point x="599" y="478" type="line"/>
      <point x="336" y="478" type="line"/>
      <point x="364" y="618" type="line"/>
      <point x="340" y="618" type="line"/>
      <point x="309" y="478" type="line"/>
      <point x="159" y="474" type="line"/>
      <point x="155" y="452" type="line"/>
      <point x="304" y="452" type="line"/>
    </contour>
  </outline>
</glyph>
<glyph name="u" format="1">
  <advance width="600"/>
  <unicode hex="0075"/>
  <outline>
    <contour>
      <point x="529" y="478" type="line"/>
      <point x="501" y="478" type="line"/>
      <point x="435" y="154" type="line"/>
      <point x="351" y="68"/>
      <point x="280" y="14"/>
      <point x="196" y="14" type="curve" smooth="yes"/>
      <point x="139" y="14"/>
      <point x="91" y="46"/>
      <point x="91" y="108" type="curve" smooth="yes"/>
      <point x="91" y="136"/>
      <point x="95" y="162"/>
      <point x="101" y="192" type="curve" smooth="yes"/>
      <point x="159" y="478" type="line"/>
      <point x="131" y="478" type="line"/>
      <point x="73" y="188" type="line" smooth="yes"/>
      <point x="67" y="160"/>
      <point x="63" y="136"/>
      <point x="63" y="104" type="curve" smooth="yes"/>
      <point x="63" y="36"/>
      <point x="118" y="-12"/>
      <point x="192" y="-12" type="curve" smooth="yes"/>
      <point x="286" y="-12"/>
      <point x="357" y="46"/>
      <point x="423" y="110" type="curve"/>
      <point x="427" y="110" type="line"/>
      <point x="409" y="0" type="line"/>
      <point x="433" y="0" type="line"/>
    </contour>
    <contour>
      <point x="262" y="-22" type="move" name="belowLC"/>
    </contour>
    <contour>
      <point x="234" y="500" type="move" name="aboveLC"/>
    </contour>
  </outline>
</glyph>
<glyph name="v" format="1">
  <advance width="600"/>
  <unicode hex="0076"/>
  <outline>
    <contour>
      <point x="227" y="0" type="line"/>
      <point x="261" y="0" type="line"/>
      <point x="565" y="478" type="line"/>
      <point x="533" y="478" type="line"/>
      <point x="335" y="166" type="line" smooth="yes"/>
      <point x="304" y="118"/>
      <point x="275" y="70"/>
      <point x="251" y="28" type="curve"/>
      <point x="247" y="28" type="line"/>
      <point x="237" y="70"/>
      <point x="223" y="116"/>
      <point x="211" y="164" type="curve" smooth="yes"/>
      <point x="129" y="478" type="line"/>
      <point x="101" y="478" type="line"/>
    </contour>
    <contour>
      <point x="241" y="500" type="move" name="aboveLC"/>
    </contour>
    <contour>
      <point x="241" y="-22" type="move" name="belowLC"/>
    </contour>
  </outline>
</glyph>
<glyph name="w" format="1">
  <advance width="600"/>
  <unicode hex="0077"/>
  <outline>
    <contour>
      <point x="144" y="0" type="line"/>
      <point x="186" y="0" type="line"/>
      <point x="330" y="314" type="line" smooth="yes"/>
      <point x="349" y="356"/>
      <point x="370" y="404"/>
      <point x="391" y="450" type="curve"/>
      <point x="393" y="450" type="line"/>
      <point x="397" y="404"/>
      <point x="398" y="362"/>
      <point x="401" y="316" type="curve" smooth="yes"/>
      <point x="421" y="0" type="line"/>
      <point x="461" y="0" type="line"/>
      <point x="686" y="478" type="line"/>
      <point x="654" y="478" type="line"/>
      <point x="505" y="153" type="line" smooth="yes"/>
      <point x="485" y="109"/>
      <point x="466" y="69"/>
      <point x="447" y="27" type="curve"/>
      <point x="443" y="27" type="line"/>
      <point x="441" y="69"/>
      <point x="439" y="109"/>
      <point x="436" y="153" type="curve" smooth="yes"/>
      <point x="416" y="478" type="line"/>
      <point x="376" y="478" type="line"/>
      <point x="228" y="153" type="line" smooth="yes"/>
      <point x="208" y="109"/>
      <point x="190" y="68"/>
      <point x="171" y="27" type="curve"/>
      <point x="167" y="27" type="line"/>
      <point x="166" y="69"/>
      <point x="162" y="109"/>
      <point x="160" y="153" type="curve" smooth="yes"/>
      <point x="139" y="478" type="line"/>
      <point x="108" y="478" type="line"/>
    </contour>
  </outline>
</glyph>
<glyph name="x" format="1">
  <advance width="599"/>
  <unicode hex="0078"/>
  <outline>
    <contour>
      <point x="475.0" y="0.0" type="line"/>
      <point x="509.0" y="0.0" type="line"/>
      <point x="363.0" y="245.0" type="line"/>
      <point x="589.0" y="478.0" type="line"/>
      <point x="551.0" y="478.0" type="line"/>
      <point x="428.0" y="350.0" type="line" smooth="yes"/>
      <point x="351.0" y="264.0" type="line"/>
      <point x="347.0" y="264.0" type="line"/>
      <point x="303.0" y="348.0" type="line"/>
      <point x="230.0" y="478.0" type="line"/>
      <point x="196.0" y="478.0" type="line"/>
      <point x="328.0" y="249.0" type="line"/>
      <point x="86.0" y="0.0" type="line"/>
      <point x="124.0" y="0.0" type="line"/>
      <point x="265.0" y="147.0" type="line"/>
      <point x="339" y="225" type="line"/>
      <point x="344" y="225" type="line"/>
      <point x="394.0" y="138.0" type="line"/>
    </contour>
  </outline>
</glyph>
<glyph name="y" format="1">
  <advance width="600"/>
  <unicode hex="0079"/>
  <outline>
    <contour>
      <point x="72" y="-223" type="curve" smooth="yes"/>
      <point x="169" y="-223"/>
      <point x="225" y="-168"/>
      <point x="279" y="-82" type="curve" smooth="yes"/>
      <point x="632" y="478" type="line"/>
      <point x="599" y="478" type="line"/>
      <point x="400" y="161" type="line" smooth="yes"/>
      <point x="376" y="123"/>
      <point x="341" y="64"/>
      <point x="315" y="19" type="curve"/>
      <point x="309" y="19" type="line"/>
      <point x="299" y="62"/>
      <point x="284" y="121"/>
      <point x="273" y="161" type="curve" smooth="yes"/>
      <point x="189" y="478" type="line"/>
      <point x="159" y="478" type="line"/>
      <point x="291" y="-10" type="line"/>
      <point x="259" y="-65" type="line" smooth="yes"/>
      <point x="216" y="-140"/>
      <point x="158" y="-196"/>
      <point x="80" y="-196" type="curve" smooth="yes"/>
      <point x="58" y="-196"/>
      <point x="39" y="-190"/>
      <point x="27" y="-183" type="curve"/>
      <point x="14" y="-209" type="line"/>
      <point x="26" y="-215"/>
      <point x="48" y="-223"/>
    </contour>
  </outline>
</glyph>
<glyph name="z" format="1">
  <advance width="599"/>
  <unicode hex="007A"/>
  <outline>
    <contour>
      <point x="101" y="10" type="line"/>
      <point x="594" y="455" type="line"/>
      <point x="597" y="478" type="line"/>
      <point x="200" y="478" type="line"/>
      <point x="195" y="452" type="line"/>
      <point x="565" y="452" type="line"/>
      <point x="569" y="469" type="line"/>
      <point x="75" y="22" type="line"/>
      <point x="72" y="0" type="line"/>
      <point x="514" y="0" type="line"/>
      <point x="519" y="26" type="line"/>
      <point x="105" y="26" type="line"/>
    </contour>
  </outline>
</glyph>
<glyph name="braceleft" format="1">
  <advance width="600"/>
  <unicode hex="007B"/>
  <outline>
    <contour>
      <point x="266" y="-68" type="curve" smooth="yes"/>
      <point x="266" y="-129"/>
      <point x="316" y="-152"/>
      <point x="388" y="-152" type="curve" smooth="yes"/>
      <point x="474" y="-152" type="line"/>
      <point x="480" y="-130" type="line"/>
      <point x="394" y="-130" type="line" smooth="yes"/>
      <point x="328" y="-130"/>
      <point x="290" y="-107"/>
      <point x="290" y="-62" type="curve" smooth="yes"/>
      <point x="290" y="2"/>
      <point x="346" y="142"/>
      <point x="346" y="210" type="curve" smooth="yes"/>
      <point x="346" y="234"/>
      <point x="330" y="269"/>
      <point x="282" y="274" type="curve"/>
      <point x="282" y="278" type="line"/>
      <point x="344" y="286"/>
      <point x="372" y="326"/>
      <point x="384" y="382" type="curve" smooth="yes"/>
      <point x="396" y="446"/>
      <point x="404" y="516"/>
      <point x="416" y="576" type="curve" smooth="yes"/>
      <point x="431" y="648"/>
      <point x="486" y="686"/>
      <point x="554" y="686" type="curve" smooth="yes"/>
      <point x="642" y="686" type="line"/>
      <point x="646" y="708" type="line"/>
      <point x="558" y="708" type="line" smooth="yes"/>
      <point x="480" y="708"/>
      <point x="415" y="680"/>
      <point x="394" y="580" type="curve" smooth="yes"/>
      <point x="380" y="512"/>
      <point x="370" y="436"/>
      <point x="358" y="372" type="curve" smooth="yes"/>
      <point x="350" y="332"/>
      <point x="320" y="290"/>
      <point x="190" y="290" type="curve"/>
      <point x="184" y="266" type="line"/>
      <point x="304" y="266"/>
      <point x="324" y="233"/>
      <point x="324" y="202" type="curve" smooth="yes"/>
      <point x="324" y="140"/>
      <point x="266" y="-2"/>
    </contour>
  </outline>
</glyph>
<glyph name="braceright" format="1">
  <advance width="600"/>
  <unicode hex="007D"/>
  <outline>
    <contour>
      <point x="445" y="624" type="curve" smooth="yes"/>
      <point x="445" y="685"/>
      <point x="395" y="708"/>
      <point x="323" y="708" type="curve" smooth="yes"/>
      <point x="237" y="708" type="line"/>
      <point x="231" y="686" type="line"/>
      <point x="317" y="686" type="line" smooth="yes"/>
      <point x="383" y="686"/>
      <point x="421" y="663"/>
      <point x="421" y="618" type="curve" smooth="yes"/>
      <point x="421" y="554"/>
      <point x="365" y="414"/>
      <point x="365" y="346" type="curve" smooth="yes"/>
      <point x="365" y="322"/>
      <point x="381" y="287"/>
      <point x="429" y="282" type="curve"/>
      <point x="429" y="278" type="line"/>
      <point x="367" y="270"/>
      <point x="339" y="230"/>
      <point x="327" y="174" type="curve" smooth="yes"/>
      <point x="315" y="110"/>
      <point x="307" y="40"/>
      <point x="295" y="-20" type="curve" smooth="yes"/>
      <point x="280" y="-92"/>
      <point x="225" y="-130"/>
      <point x="157" y="-130" type="curve" smooth="yes"/>
      <point x="69" y="-130" type="line"/>
      <point x="65" y="-152" type="line"/>
      <point x="153" y="-152" type="line" smooth="yes"/>
      <point x="231" y="-152"/>
      <point x="296" y="-124"/>
      <point x="317" y="-24" type="curve" smooth="yes"/>
      <point x="331" y="44"/>
      <point x="341" y="120"/>
      <point x="353" y="184" type="curve" smooth="yes"/>
      <point x="361" y="224"/>
      <point x="391" y="266"/>
      <point x="521" y="266" type="curve"/>
      <point x="527" y="290" type="line"/>
      <point x="407" y="290"/>
      <point x="387" y="323"/>
      <point x="387" y="354" type="curve" smooth="yes"/>
      <point x="387" y="416"/>
      <point x="445" y="558"/>
    </contour>
  </outline>
</glyph>
<glyph name="asciitilde" format="1">
  <advance width="600"/>
  <unicode hex="007E"/>
  <outline>
    <contour>
      <point x="388" y="272" type="curve" smooth="yes"/>
      <point x="424" y="272"/>
      <point x="462" y="298"/>
      <point x="488" y="350" type="curve"/>
      <point x="466" y="362" type="line"/>
      <point x="442" y="316"/>
      <point x="418" y="298"/>
      <point x="388" y="298" type="curve" smooth="yes"/>
      <point x="334" y="298"/>
      <point x="286" y="390"/>
      <point x="214" y="390" type="curve" smooth="yes"/>
      <point x="178" y="390"/>
      <point x="140" y="364"/>
      <point x="114" y="312" type="curve"/>
      <point x="136" y="300" type="line"/>
      <point x="160" y="346"/>
      <point x="184" y="364"/>
      <point x="214" y="364" type="curve" smooth="yes"/>
      <point x="268" y="364"/>
      <point x="316" y="272"/>
    </contour>
  </outline>
</glyph>
<glyph name="exclamdown" format="1">
  <advance width="599"/>
  <unicode hex="00A1"/>
  <outline>
    <contour>
      <point x="364" y="265" type="line"/>
      <point x="342" y="265" type="line"/>
      <point x="261" y="-132" type="line"/>
      <point x="249" y="-192" type="line"/>
      <point x="274" y="-192" type="line"/>
      <point x="286" y="-132" type="line"/>
    </contour>
    <contour>
      <point x="439" y="444" type="curve" smooth="yes"/>
      <point x="439" y="474"/>
      <point x="420" y="490"/>
      <point x="398" y="490" type="curve" smooth="yes"/>
      <point x="369" y="490"/>
      <point x="334" y="465"/>
      <point x="334" y="421" type="curve" smooth="yes"/>
      <point x="334" y="391"/>
      <point x="353" y="376"/>
      <point x="375" y="376" type="curve" smooth="yes"/>
      <point x="404" y="376"/>
      <point x="439" y="400"/>
    </contour>
  </outline>
</glyph>
<glyph name="cent" format="1">
  <advance width="600"/>
  <unicode hex="00A2"/>
  <outline>
    <contour>
      <point x="304" y="-26" type="line"/>
      <point x="331" y="-26" type="line"/>
      <point x="466" y="652" type="line"/>
      <point x="440" y="652" type="line"/>
    </contour>
    <contour>
      <point x="183" y="266" type="curve" smooth="yes"/>
      <point x="183" y="153"/>
      <point x="253" y="85"/>
      <point x="357" y="85" type="curve" smooth="yes"/>
      <point x="419" y="85"/>
      <point x="477" y="110"/>
      <point x="523" y="147" type="curve"/>
      <point x="508" y="166" type="line"/>
      <point x="467" y="133"/>
      <point x="415" y="111"/>
      <point x="360" y="111" type="curve" smooth="yes"/>
      <point x="267" y="111"/>
      <point x="213" y="173"/>
      <point x="213" y="272" type="curve" smooth="yes"/>
      <point x="213" y="413"/>
      <point x="311" y="514"/>
      <point x="442" y="514" type="curve" smooth="yes"/>
      <point x="494" y="514"/>
      <point x="534" y="496"/>
      <point x="563" y="468" type="curve"/>
      <point x="581" y="485" type="line"/>
      <point x="553" y="513"/>
      <point x="510" y="539"/>
      <point x="447" y="539" type="curve" smooth="yes"/>
      <point x="306" y="539"/>
      <point x="183" y="439"/>
    </contour>
  </outline>
</glyph>
<glyph name="sterling" format="1">
  <advance width="599"/>
  <unicode hex="00A3"/>
  <outline>
    <contour>
      <point x="145" y="21" type="line"/>
      <point x="242" y="73"/>
      <point x="291" y="147"/>
      <point x="291" y="254" type="curve" smooth="yes"/>
      <point x="291" y="319"/>
      <point x="272" y="394"/>
      <point x="272" y="453" type="curve" smooth="yes"/>
      <point x="272" y="560"/>
      <point x="340" y="628"/>
      <point x="452" y="628" type="curve" smooth="yes"/>
      <point x="527" y="628"/>
      <point x="567" y="602"/>
      <point x="597" y="570" type="curve"/>
      <point x="615" y="586" type="line"/>
      <point x="586" y="623"/>
      <point x="523" y="652"/>
      <point x="459" y="652" type="curve" smooth="yes"/>
      <point x="325" y="652"/>
      <point x="245" y="582"/>
      <point x="245" y="449" type="curve" smooth="yes"/>
      <point x="245" y="389"/>
      <point x="264" y="310"/>
      <point x="264" y="247" type="curve" smooth="yes"/>
      <point x="264" y="159"/>
      <point x="219" y="71"/>
      <point x="90" y="16" type="curve"/>
      <point x="87" y="0" type="line"/>
      <point x="514" y="0" type="line"/>
      <point x="520" y="26" type="line"/>
      <point x="151" y="26" type="line"/>
    </contour>
    <contour>
      <point x="141" y="300" type="line"/>
      <point x="488" y="300" type="line"/>
      <point x="493" y="323" type="line"/>
      <point x="263" y="323" type="line"/>
      <point x="146" y="321" type="line"/>
    </contour>
  </outline>
</glyph>
<glyph name="currency" format="1">
  <advance width="600"/>
  <unicode hex="00A4"/>
  <outline>
    <contour>
      <point x="216" y="296" type="curve" smooth="yes"/>
      <point x="216" y="408"/>
      <point x="308" y="493"/>
      <point x="400" y="493" type="curve" smooth="yes"/>
      <point x="471" y="493"/>
      <point x="515" y="442"/>
      <point x="515" y="360" type="curve" smooth="yes"/>
      <point x="515" y="247"/>
      <point x="425" y="166"/>
      <point x="332" y="166" type="curve" smooth="yes"/>
      <point x="255" y="166"/>
      <point x="216" y="218"/>
    </contour>
    <contour>
      <point x="501" y="468" type="line"/>
      <point x="518" y="444" type="line"/>
      <point x="631" y="540" type="line"/>
      <point x="613" y="563" type="line"/>
    </contour>
    <contour>
      <point x="282" y="464" type="line"/>
      <point x="208" y="561" type="line"/>
      <point x="185" y="540" type="line"/>
      <point x="261" y="441" type="line"/>
    </contour>
    <contour>
      <point x="454" y="189" type="line"/>
      <point x="528" y="91" type="line"/>
      <point x="551" y="112" type="line"/>
      <point x="481" y="205" type="line"/>
    </contour>
    <contour>
      <point x="186" y="182"/>
      <point x="255" y="138"/>
      <point x="327" y="138" type="curve" smooth="yes"/>
      <point x="449" y="138"/>
      <point x="545" y="237"/>
      <point x="545" y="364" type="curve" smooth="yes"/>
      <point x="545" y="474"/>
      <point x="475" y="520"/>
      <point x="404" y="520" type="curve" smooth="yes"/>
      <point x="288" y="520"/>
      <point x="186" y="423"/>
      <point x="186" y="292" type="curve" smooth="yes"/>
    </contour>
    <contour>
      <point x="212" y="214" type="line"/>
      <point x="101" y="120" type="line"/>
      <point x="120" y="97" type="line"/>
      <point x="233" y="194" type="line"/>
    </contour>
  </outline>
</glyph>
<glyph name="yen" format="1">
  <advance width="600"/>
  <unicode hex="00A5"/>
  <outline>
    <contour>
      <point x="199" y="640" type="line"/>
      <point x="335" y="297" type="line"/>
      <point x="153" y="297" type="line"/>
      <point x="147" y="270" type="line"/>
      <point x="340" y="270" type="line"/>
      <point x="325" y="195" type="line"/>
      <point x="132" y="195" type="line"/>
      <point x="127" y="169" type="line"/>
      <point x="320" y="169" type="line"/>
      <point x="286" y="0" type="line"/>
      <point x="313" y="0" type="line"/>
      <point x="347" y="169" type="line"/>
      <point x="541" y="169" type="line"/>
      <point x="547" y="195" type="line"/>
      <point x="352" y="195" type="line"/>
      <point x="367" y="270" type="line"/>
      <point x="562" y="270" type="line"/>
      <point x="567" y="297" type="line"/>
      <point x="383" y="297" type="line"/>
      <point x="657" y="640" type="line"/>
      <point x="630" y="640" type="line"/>
      <point x="471" y="436" type="line" smooth="yes"/>
      <point x="434" y="392"/>
      <point x="400" y="348"/>
      <point x="362" y="298" type="curve"/>
      <point x="358" y="298" type="line"/>
      <point x="340" y="348"/>
      <point x="323" y="392"/>
      <point x="306" y="436" type="curve" smooth="yes"/>
      <point x="228" y="640" type="line"/>
    </contour>
  </outline>
</glyph>
<glyph name="brokenbar" format="1">
  <advance width="600"/>
  <unicode hex="00A6"/>
  <outline>
    <contour>
      <point x="343" y="273" type="line"/>
      <point x="368" y="273" type="line"/>
      <point x="463" y="750" type="line"/>
      <point x="438" y="750" type="line"/>
    </contour>
    <contour>
      <point x="332" y="222" type="line"/>
      <point x="238" y="-250" type="line"/>
      <point x="263" y="-250" type="line"/>
      <point x="357" y="222" type="line"/>
    </contour>
  </outline>
</glyph>
<glyph name="section" format="1">
  <advance width="600"/>
  <unicode hex="00A7"/>
  <outline>
    <contour>
      <point x="393" y="164" type="curve"/>
      <point x="403" y="142" type="line"/>
      <point x="487" y="172"/>
      <point x="535" y="204"/>
      <point x="535" y="292" type="curve" smooth="yes"/>
      <point x="535" y="440"/>
      <point x="313" y="440"/>
      <point x="313" y="558" type="curve" smooth="yes"/>
      <point x="313" y="618"/>
      <point x="363" y="654"/>
      <point x="413" y="654" type="curve" smooth="yes"/>
      <point x="459" y="654"/>
      <point x="499" y="628"/>
      <point x="529" y="592" type="curve"/>
      <point x="551" y="612" type="line"/>
      <point x="517" y="648"/>
      <point x="471" y="680"/>
      <point x="415" y="680" type="curve" smooth="yes"/>
      <point x="343" y="680"/>
      <point x="285" y="632"/>
      <point x="285" y="552" type="curve" smooth="yes"/>
      <point x="285" y="422"/>
      <point x="507" y="422"/>
      <point x="507" y="286" type="curve" smooth="yes"/>
      <point x="507" y="214"/>
      <point x="467" y="188"/>
    </contour>
    <contour>
      <point x="153" y="24" type="line"/>
      <point x="195" y="-18"/>
      <point x="245" y="-44"/>
      <point x="301" y="-44" type="curve" smooth="yes"/>
      <point x="381" y="-44"/>
      <point x="443" y="18"/>
      <point x="443" y="92" type="curve" smooth="yes"/>
      <point x="443" y="234"/>
      <point x="217" y="218"/>
      <point x="217" y="352" type="curve" smooth="yes"/>
      <point x="217" y="418"/>
      <point x="261" y="456"/>
      <point x="329" y="480" type="curve"/>
      <point x="321" y="502" type="line"/>
      <point x="245" y="478"/>
      <point x="189" y="428"/>
      <point x="189" y="346" type="curve" smooth="yes"/>
      <point x="189" y="200"/>
      <point x="415" y="216"/>
      <point x="415" y="86" type="curve" smooth="yes"/>
      <point x="415" y="26"/>
      <point x="363" y="-18"/>
      <point x="303" y="-18" type="curve" smooth="yes"/>
      <point x="255" y="-18"/>
      <point x="209" y="6"/>
      <point x="173" y="46" type="curve"/>
    </contour>
  </outline>
</glyph>
<glyph name="copyright" format="1">
  <advance width="600"/>
  <unicode hex="00A9"/>
  <outline>
    <contour>
      <point x="93" y="241" type="curve" smooth="yes"/>
      <point x="93" y="88"/>
      <point x="169" y="-12"/>
      <point x="296" y="-12" type="curve" smooth="yes"/>
      <point x="488" y="-12"/>
      <point x="633" y="165"/>
      <point x="633" y="402" type="curve" smooth="yes"/>
      <point x="633" y="554"/>
      <point x="556" y="652"/>
      <point x="429" y="652" type="curve" smooth="yes"/>
      <point x="237" y="652"/>
      <point x="93" y="479"/>
    </contour>
    <contour>
      <point x="123" y="244" type="curve" smooth="yes"/>
      <point x="123" y="462"/>
      <point x="256" y="625"/>
      <point x="424" y="625" type="curve" smooth="yes"/>
      <point x="537" y="625"/>
      <point x="603" y="536"/>
      <point x="603" y="398" type="curve" smooth="yes"/>
      <point x="603" y="182"/>
      <point x="469" y="15"/>
      <point x="301" y="15" type="curve" smooth="yes"/>
      <point x="188" y="15"/>
      <point x="123" y="106"/>
    </contour>
    <contour>
      <point x="221" y="280" type="curve" smooth="yes"/>
      <point x="221" y="185"/>
      <point x="270" y="130"/>
      <point x="340" y="130" type="curve" smooth="yes"/>
      <point x="388" y="130"/>
      <point x="432" y="152"/>
      <point x="465" y="183" type="curve"/>
      <point x="448" y="203" type="line"/>
      <point x="418" y="176"/>
      <point x="388" y="158"/>
      <point x="344" y="158" type="curve" smooth="yes"/>
      <point x="284" y="158"/>
      <point x="252" y="206"/>
      <point x="252" y="282" type="curve" smooth="yes"/>
      <point x="252" y="403"/>
      <point x="337" y="487"/>
      <point x="411" y="487" type="curve" smooth="yes"/>
      <point x="447" y="487"/>
      <point x="466" y="475"/>
      <point x="489" y="444" type="curve"/>
      <point x="509" y="461" type="line"/>
      <point x="488" y="491"/>
      <point x="460" y="513"/>
      <point x="416" y="513" type="curve" smooth="yes"/>
      <point x="320" y="513"/>
      <point x="221" y="425"/>
    </contour>
  </outline>
</glyph>
<glyph name="logicalnot" format="1">
  <advance width="599"/>
  <unicode hex="00AC"/>
  <outline>
    <contour>
      <point x="168" y="318" type="line"/>
      <point x="528" y="318" type="line"/>
      <point x="528" y="110" type="line"/>
      <point x="556" y="110" type="line"/>
      <point x="556" y="344" type="line"/>
      <point x="168" y="344" type="line"/>
    </contour>
  </outline>
</glyph>
<glyph name="registered" format="1">
  <advance width="599"/>
  <unicode hex="00AE"/>
  <outline>
    <contour>
      <point x="365" y="326" type="curve" smooth="yes"/>
      <point x="477" y="326"/>
      <point x="587" y="420"/>
      <point x="587" y="555" type="curve" smooth="yes"/>
      <point x="587" y="649"/>
      <point x="526" y="712"/>
      <point x="442" y="712" type="curve" smooth="yes"/>
      <point x="330" y="712"/>
      <point x="219" y="616"/>
      <point x="219" y="482" type="curve" smooth="yes"/>
      <point x="219" y="388"/>
      <point x="280" y="326"/>
    </contour>
    <contour>
      <point x="370" y="352" type="curve" smooth="yes"/>
      <point x="297" y="352"/>
      <point x="247" y="408"/>
      <point x="247" y="487" type="curve" smooth="yes"/>
      <point x="247" y="598"/>
      <point x="341" y="686"/>
      <point x="437" y="686" type="curve" smooth="yes"/>
      <point x="509" y="686"/>
      <point x="559" y="628"/>
      <point x="559" y="549" type="curve" smooth="yes"/>
      <point x="559" y="438"/>
      <point x="466" y="352"/>
    </contour>
    <contour>
      <point x="318" y="418" type="line"/>
      <point x="345" y="418" type="line"/>
      <point x="360" y="496" type="line"/>
      <point x="411" y="496" type="line"/>
      <point x="436" y="418" type="line"/>
      <point x="469" y="418" type="line"/>
      <point x="436" y="506" type="line"/>
      <point x="463" y="513"/>
      <point x="489" y="542"/>
      <point x="489" y="576" type="curve" smooth="yes"/>
      <point x="489" y="615"/>
      <point x="458" y="626"/>
      <point x="425" y="626" type="curve" smooth="yes"/>
      <point x="359" y="626" type="line"/>
    </contour>
    <contour>
      <point x="366" y="522" type="line"/>
      <point x="381" y="601" type="line"/>
      <point x="416" y="601" type="line" smooth="yes"/>
      <point x="448" y="601"/>
      <point x="459" y="588"/>
      <point x="459" y="569" type="curve" smooth="yes"/>
      <point x="459" y="534"/>
      <point x="433" y="522"/>
      <point x="396" y="522" type="curve" smooth="yes"/>
    </contour>
  </outline>
</glyph>
<glyph name="degree" format="1">
  <advance width="599"/>
  <unicode hex="00B0"/>
  <outline>
    <contour>
      <point x="391" y="455" type="curve" smooth="yes"/>
      <point x="463" y="455"/>
      <point x="526" y="506"/>
      <point x="526" y="591" type="curve" smooth="yes"/>
      <point x="526" y="652"/>
      <point x="485" y="684"/>
      <point x="437" y="684" type="curve" smooth="yes"/>
      <point x="367" y="684"/>
      <point x="302" y="633"/>
      <point x="302" y="548" type="curve" smooth="yes"/>
      <point x="302" y="488"/>
      <point x="343" y="455"/>
    </contour>
    <contour>
      <point x="396" y="480" type="curve" smooth="yes"/>
      <point x="353" y="480"/>
      <point x="330" y="511"/>
      <point x="330" y="552" type="curve" smooth="yes"/>
      <point x="330" y="611"/>
      <point x="375" y="659"/>
      <point x="432" y="659" type="curve" smooth="yes"/>
      <point x="475" y="659"/>
      <point x="498" y="629"/>
      <point x="498" y="587" type="curve" smooth="yes"/>
      <point x="498" y="528"/>
      <point x="452" y="480"/>
    </contour>
  </outline>
</glyph>
<glyph name="plusminus" format="1">
  <advance width="600"/>
  <unicode hex="00B1"/>
  <outline>
    <contour>
      <point x="348" y="110" type="line"/>
      <point x="376" y="110" type="line"/>
      <point x="376" y="318" type="line"/>
      <point x="556" y="318" type="line"/>
      <point x="556" y="344" type="line"/>
      <point x="376" y="344" type="line"/>
      <point x="376" y="546" type="line"/>
      <point x="348" y="546" type="line"/>
      <point x="348" y="344" type="line"/>
      <point x="168" y="344" type="line"/>
      <point x="168" y="318" type="line"/>
      <point x="348" y="318" type="line"/>
    </contour>
    <contour>
      <point x="556" y="0" type="line"/>
      <point x="556" y="26" type="line"/>
      <point x="168" y="26" type="line"/>
      <point x="168" y="0" type="line"/>
    </contour>
  </outline>
</glyph>
<glyph name="paragraph" format="1">
  <advance width="599"/>
  <unicode hex="00B6"/>
  <outline>
    <contour>
      <point x="406" y="-80" type="line"/>
      <point x="434" y="-80" type="line"/>
      <point x="582" y="660" type="line"/>
      <point x="554" y="660" type="line"/>
    </contour>
    <contour>
      <point x="402" y="248" type="curve" smooth="yes"/>
      <point x="420" y="248" type="line"/>
      <point x="504" y="660" type="line"/>
      <point x="436" y="660" type="line" smooth="yes"/>
      <point x="306" y="660"/>
      <point x="178" y="578"/>
      <point x="178" y="418" type="curve" smooth="yes"/>
      <point x="178" y="306"/>
      <point x="280" y="248"/>
    </contour>
  </outline>
</glyph>
<glyph name="AE" format="1">
	<unicode hex="00C6"/>
	<advance width="600"/>
	<outline>
		<contour>
			<point x="-59" y="0" type="line"/>
			<point x="-26" y="0" type="line"/>
			<point x="231" y="395" type="line" smooth="yes"/>
			<point x="284" y="478"/>
			<point x="335" y="554"/>
			<point x="385" y="632" type="curve"/>
			<point x="391" y="632" type="line"/>
			<point x="265" y="0" type="line"/>
			<point x="529" y="0" type="line"/>
			<point x="534" y="26" type="line"/>
			<point x="299" y="26" type="line"/>
			<point x="361" y="340" type="line"/>
			<point x="541" y="340" type="line"/>
			<point x="546" y="365" type="line"/>
			<point x="366" y="365" type="line"/>
			<point x="420" y="635" type="line"/>
			<point x="646" y="635" type="line"/>
			<point x="651" y="660" type="line"/>
			<point x="377" y="660" type="line"/>
		</contour>
		<contour>
			<point x="116" y="228" type="line"/>
			<point x="334" y="228" type="line"/>
			<point x="339" y="254" type="line"/>
			<point x="122" y="254" type="line"/>
		</contour>
		<contour>
			<point name="aboveUC" x="500" y="680" type="move"/>
		</contour>
		<contour>
			<point name="baseLC" x="420" y="0" type="move"/>
		</contour>
		<contour>
			<point name="belowLC" x="300" y="-20" type="move"/>
		</contour>
	</outline>
</glyph>
<glyph name="Eth" format="1">
  <advance width="600"/>
  <unicode hex="00D0"/>
  <outline>
    <contour>
      <point x="106" y="0" type="line"/>
      <point x="274" y="0" type="line" smooth="yes"/>
      <point x="506" y="0"/>
      <point x="626" y="180"/>
      <point x="626" y="404" type="curve" smooth="yes"/>
      <point x="626" y="556"/>
      <point x="538" y="660"/>
      <point x="356" y="660" type="curve" smooth="yes"/>
      <point x="238" y="660" type="line"/>
      <point x="178" y="364" type="line"/>
      <point x="108" y="362" type="line"/>
      <point x="102" y="338" type="line"/>
      <point x="173" y="338" type="line"/>
    </contour>
    <contour>
      <point x="140" y="26" type="line"/>
      <point x="202" y="338" type="line"/>
      <point x="372" y="338" type="line"/>
      <point x="378" y="364" type="line"/>
      <point x="207" y="364" type="line"/>
      <point x="262" y="634" type="line"/>
      <point x="354" y="634" type="line" smooth="yes"/>
      <point x="518" y="634"/>
      <point x="596" y="538"/>
      <point x="596" y="402" type="curve" smooth="yes"/>
      <point x="596" y="202"/>
      <point x="482" y="26"/>
      <point x="276" y="26" type="curve" smooth="yes"/>
    </contour>
  </outline>
</glyph>
<glyph name="multiply" format="1">
  <advance width="600"/>
  <unicode hex="00D7"/>
  <outline>
    <contour>
      <point x="364" y="314" type="line"/>
      <point x="522" y="148" type="line"/>
      <point x="540" y="166" type="line"/>
      <point x="382" y="332" type="line"/>
      <point x="540" y="496" type="line"/>
      <point x="522" y="514" type="line"/>
      <point x="364" y="350" type="line"/>
      <point x="206" y="514" type="line"/>
      <point x="188" y="496" type="line"/>
      <point x="346" y="332" type="line"/>
      <point x="188" y="166" type="line"/>
      <point x="206" y="148" type="line"/>
    </contour>
  </outline>
</glyph>
<glyph name="Oslash" format="1">
  <advance width="600"/>
  <unicode hex="00D8"/>
  <outline>
    <contour>
      <point x="58" y="-4" type="line"/>
      <point x="76" y="-19" type="line"/>
      <point x="670" y="665" type="line"/>
      <point x="652" y="680" type="line"/>
    </contour>
    <contour>
      <point x="318" y="-12" type="curve" smooth="yes"/>
      <point x="519" y="-12"/>
      <point x="627" y="224"/>
      <point x="623" y="428" type="curve" smooth="yes"/>
      <point x="620" y="575"/>
      <point x="547" y="672"/>
      <point x="422" y="672" type="curve" smooth="yes"/>
      <point x="245" y="672"/>
      <point x="114" y="471"/>
      <point x="117" y="233" type="curve" smooth="yes"/>
      <point x="119" y="84"/>
      <point x="194" y="-12"/>
    </contour>
    <contour>
      <point x="319" y="15" type="curve" smooth="yes"/>
      <point x="213" y="15"/>
      <point x="149" y="105"/>
      <point x="147" y="233" type="curve" smooth="yes"/>
      <point x="144" y="468"/>
      <point x="270" y="646"/>
      <point x="419" y="646" type="curve" smooth="yes"/>
      <point x="527" y="646"/>
      <point x="590" y="561"/>
      <point x="593" y="426" type="curve" smooth="yes"/>
      <point x="597" y="232"/>
      <point x="491" y="15"/>
    </contour>
  </outline>
</glyph>
<glyph name="Thorn" format="1">
  <advance width="599"/>
  <unicode hex="00DE"/>
  <outline>
    <contour>
      <point x="124" y="0" type="line"/>
      <point x="154" y="0" type="line"/>
      <point x="188" y="170" type="line"/>
      <point x="326" y="170" type="line" smooth="yes"/>
      <point x="496" y="170"/>
      <point x="602" y="242"/>
      <point x="602" y="386" type="curve" smooth="yes"/>
      <point x="602" y="490"/>
      <point x="530" y="536"/>
      <point x="410" y="536" type="curve" smooth="yes"/>
      <point x="262" y="536" type="line"/>
      <point x="286" y="660" type="line"/>
      <point x="256" y="660" type="line"/>
    </contour>
    <contour>
      <point x="194" y="196" type="line"/>
      <point x="256" y="510" type="line"/>
      <point x="392" y="510" type="line" smooth="yes"/>
      <point x="510" y="510"/>
      <point x="572" y="474"/>
      <point x="572" y="384" type="curve" smooth="yes"/>
      <point x="572" y="260"/>
      <point x="486" y="196"/>
      <point x="320" y="196" type="curve" smooth="yes"/>
    </contour>
  </outline>
</glyph>
<glyph name="germandbls" format="1">
  <advance width="600"/>
  <unicode hex="00DF"/>
  <outline>
    <contour>
      <point x="113" y="0" type="line"/>
      <point x="141" y="0" type="line"/>
      <point x="245" y="520" type="line" smooth="yes"/>
      <point x="269" y="641"/>
      <point x="339" y="708"/>
      <point x="427" y="708" type="curve" smooth="yes"/>
      <point x="501" y="708"/>
      <point x="531" y="668"/>
      <point x="531" y="616" type="curve" smooth="yes"/>
      <point x="531" y="496"/>
      <point x="369" y="472"/>
      <point x="369" y="356" type="curve" smooth="yes"/>
      <point x="369" y="254"/>
      <point x="555" y="242"/>
      <point x="555" y="124" type="curve" smooth="yes"/>
      <point x="555" y="60"/>
      <point x="489" y="14"/>
      <point x="415" y="14" type="curve" smooth="yes"/>
      <point x="365" y="14"/>
      <point x="326" y="34"/>
      <point x="287" y="64" type="curve"/>
      <point x="271" y="42" type="line"/>
      <point x="312" y="8"/>
      <point x="364" y="-12"/>
      <point x="413" y="-12" type="curve" smooth="yes"/>
      <point x="513" y="-12"/>
      <point x="583" y="52"/>
      <point x="583" y="130" type="curve" smooth="yes"/>
      <point x="583" y="258"/>
      <point x="397" y="266"/>
      <point x="397" y="362" type="curve" smooth="yes"/>
      <point x="397" y="456"/>
      <point x="559" y="482"/>
      <point x="559" y="616" type="curve" smooth="yes"/>
      <point x="559" y="692"/>
      <point x="509" y="734"/>
      <point x="429" y="734" type="curve" smooth="yes"/>
      <point x="323" y="734"/>
      <point x="245" y="658"/>
      <point x="219" y="530" type="curve" smooth="yes"/>
    </contour>
  </outline>
</glyph>
<glyph name="ae" format="1">
  <advance width="599"/>
  <unicode hex="00E6"/>
  <outline>
    <contour>
      <point x="37" y="91" type="curve" smooth="yes"/>
      <point x="37" y="22"/>
      <point x="79" y="-12"/>
      <point x="139" y="-12" type="curve" smooth="yes"/>
      <point x="194" y="-12"/>
      <point x="264" y="27"/>
      <point x="332" y="91" type="curve"/>
      <point x="349" y="26"/>
      <point x="390" y="-12"/>
      <point x="459" y="-12" type="curve" smooth="yes"/>
      <point x="516" y="-12"/>
      <point x="559" y="10"/>
      <point x="591" y="28" type="curve"/>
      <point x="583" y="48" type="line"/>
      <point x="552" y="31"/>
      <point x="511" y="13"/>
      <point x="465" y="13" type="curve" smooth="yes"/>
      <point x="361" y="13"/>
      <point x="334" y="110"/>
      <point x="361" y="239" type="curve"/>
      <point x="646" y="239" type="line"/>
      <point x="652" y="259"/>
      <point x="664" y="271"/>
      <point x="664" y="340" type="curve" smooth="yes"/>
      <point x="664" y="421"/>
      <point x="633" y="490"/>
      <point x="558" y="490" type="curve" smooth="yes"/>
      <point x="489" y="490"/>
      <point x="426" y="443"/>
      <point x="382" y="370" type="curve"/>
      <point x="381" y="437"/>
      <point x="349" y="490"/>
      <point x="280" y="490" type="curve" smooth="yes"/>
      <point x="217" y="490"/>
      <point x="156" y="459"/>
      <point x="124" y="440" type="curve"/>
      <point x="133" y="418" type="line"/>
      <point x="165" y="439"/>
      <point x="224" y="465"/>
      <point x="266" y="465" type="curve" smooth="yes"/>
      <point x="350" y="465"/>
      <point x="364" y="393"/>
      <point x="344" y="297" type="curve"/>
      <point x="145" y="273"/>
      <point x="37" y="203"/>
    </contour>
    <contour>
      <point x="367" y="263" type="line"/>
      <point x="395" y="384"/>
      <point x="465" y="464"/>
      <point x="551" y="464" type="curve" smooth="yes"/>
      <point x="638" y="464"/>
      <point x="646" y="370"/>
      <point x="625" y="263" type="curve"/>
    </contour>
    <contour>
      <point x="67" y="94" type="curve" smooth="yes"/>
      <point x="67" y="191"/>
      <point x="139" y="244"/>
      <point x="339" y="273" type="curve"/>
      <point x="334" y="245" type="line" smooth="yes"/>
      <point x="324" y="196"/>
      <point x="322" y="152"/>
      <point x="326" y="116" type="curve"/>
      <point x="264" y="49"/>
      <point x="193" y="13"/>
      <point x="146" y="13" type="curve" smooth="yes"/>
      <point x="97" y="13"/>
      <point x="67" y="41"/>
    </contour>
  </outline>
</glyph>
<glyph name="eth" format="1">
  <advance width="600"/>
  <unicode hex="00F0"/>
  <outline>
    <contour>
      <point x="109" y="176" type="curve" smooth="yes"/>
      <point x="109" y="59"/>
      <point x="194" y="-12"/>
      <point x="298" y="-12" type="curve" smooth="yes"/>
      <point x="479" y="-12"/>
      <point x="586" y="130"/>
      <point x="586" y="339" type="curve" smooth="yes"/>
      <point x="586" y="532"/>
      <point x="486" y="652"/>
      <point x="351" y="722" type="curve"/>
      <point x="332" y="701" type="line"/>
      <point x="454" y="640"/>
      <point x="557" y="529"/>
      <point x="557" y="341" type="curve" smooth="yes"/>
      <point x="557" y="169"/>
      <point x="474" y="14"/>
      <point x="303" y="14" type="curve" smooth="yes"/>
      <point x="207" y="14"/>
      <point x="139" y="83"/>
      <point x="139" y="182" type="curve" smooth="yes"/>
      <point x="139" y="295"/>
      <point x="225" y="414"/>
      <point x="385" y="414" type="curve" smooth="yes"/>
      <point x="451" y="414"/>
      <point x="528" y="381"/>
      <point x="569" y="299" type="curve"/>
      <point x="574" y="337" type="line"/>
      <point x="543" y="392"/>
      <point x="469" y="440"/>
      <point x="388" y="440" type="curve" smooth="yes"/>
      <point x="226" y="440"/>
      <point x="109" y="329"/>
    </contour>
    <contour>
      <point x="306" y="521" type="line"/>
      <point x="637" y="678" type="line"/>
      <point x="629" y="699" type="line"/>
      <point x="297" y="542" type="line"/>
    </contour>
  </outline>
</glyph>
<glyph name="divide" format="1">
  <advance width="600"/>
  <unicode hex="00F7"/>
  <outline>
    <contour>
      <point x="363" y="478" type="curve" smooth="yes"/>
      <point x="381" y="478"/>
      <point x="393" y="494"/>
      <point x="393" y="512" type="curve" smooth="yes"/>
      <point x="393" y="530"/>
      <point x="381" y="544"/>
      <point x="363" y="544" type="curve" smooth="yes"/>
      <point x="345" y="544"/>
      <point x="333" y="530"/>
      <point x="333" y="512" type="curve" smooth="yes"/>
      <point x="333" y="494"/>
      <point x="345" y="478"/>
    </contour>
    <contour>
      <point x="363" y="114" type="curve" smooth="yes"/>
      <point x="381" y="114"/>
      <point x="393" y="130"/>
      <point x="393" y="148" type="curve" smooth="yes"/>
      <point x="393" y="166"/>
      <point x="381" y="180"/>
      <point x="363" y="180" type="curve" smooth="yes"/>
      <point x="345" y="180"/>
      <point x="333" y="166"/>
      <point x="333" y="148" type="curve" smooth="yes"/>
      <point x="333" y="130"/>
      <point x="345" y="114"/>
    </contour>
    <contour>
      <point x="557" y="318" type="line"/>
      <point x="557" y="344" type="line"/>
      <point x="169" y="344" type="line"/>
      <point x="169" y="318" type="line"/>
    </contour>
  </outline>
</glyph>
<glyph name="oslash" format="1">
  <advance width="600"/>
  <unicode hex="00F8"/>
  <outline>
    <contour>
      <point x="115" y="186" type="curve" smooth="yes"/>
      <point x="115" y="66"/>
      <point x="193" y="-12"/>
      <point x="300" y="-12" type="curve" smooth="yes"/>
      <point x="445" y="-12"/>
      <point x="586" y="104"/>
      <point x="586" y="290" type="curve" smooth="yes"/>
      <point x="586" y="413"/>
      <point x="504" y="490"/>
      <point x="401" y="490" type="curve" smooth="yes"/>
      <point x="255" y="490"/>
      <point x="115" y="373"/>
    </contour>
    <contour>
      <point x="144" y="192" type="curve" smooth="yes"/>
      <point x="144" y="346"/>
      <point x="260" y="464"/>
      <point x="395" y="464" type="curve" smooth="yes"/>
      <point x="493" y="464"/>
      <point x="556" y="390"/>
      <point x="556" y="284" type="curve" smooth="yes"/>
      <point x="556" y="129"/>
      <point x="439" y="14"/>
      <point x="305" y="14" type="curve" smooth="yes"/>
      <point x="207" y="14"/>
      <point x="144" y="86"/>
    </contour>
    <contour>
      <point x="72" y="-5" type="line"/>
      <point x="90" y="-22" type="line"/>
      <point x="628" y="480" type="line"/>
      <point x="611" y="497" type="line"/>
    </contour>
  </outline>
</glyph>
<glyph name="thorn" format="1">
  <advance width="599"/>
  <unicode hex="00FE"/>
  <outline>
    <contour>
      <point x="129" y="-42" type="line"/>
      <point x="149" y="58" type="line"/>
      <point x="193" y="14"/>
      <point x="251" y="-12"/>
      <point x="300" y="-12" type="curve" smooth="yes"/>
      <point x="439" y="-12"/>
      <point x="586" y="109"/>
      <point x="586" y="308" type="curve" smooth="yes"/>
      <point x="586" y="418"/>
      <point x="533" y="490"/>
      <point x="421" y="490" type="curve" smooth="yes"/>
      <point x="356" y="490"/>
      <point x="281" y="453"/>
      <point x="216" y="401" type="curve"/>
      <point x="237" y="497" type="line"/>
      <point x="282" y="723" type="line"/>
      <point x="255" y="723" type="line"/>
      <point x="66" y="-223" type="line"/>
      <point x="93" y="-223" type="line"/>
    </contour>
    <contour>
      <point x="156" y="91" type="curve"/>
      <point x="211" y="369" type="line"/>
      <point x="289" y="433"/>
      <point x="361" y="464"/>
      <point x="415" y="464" type="curve" smooth="yes"/>
      <point x="516" y="464"/>
      <point x="557" y="395"/>
      <point x="557" y="304" type="curve" smooth="yes"/>
      <point x="557" y="138"/>
      <point x="438" y="14"/>
      <point x="308" y="14" type="curve" smooth="yes"/>
      <point x="267" y="14"/>
      <point x="206" y="35"/>
    </contour>
  </outline>
</glyph>
<glyph name="dcaron" format="1">
  <advance width="600"/>
  <unicode hex="010F"/>
  <outline>
    <contour>
      <point x="236" y="-12" type="curve" smooth="yes"/>
      <point x="304" y="-12"/>
      <point x="372" y="26"/>
      <point x="426" y="78" type="curve"/>
      <point x="430" y="78" type="line"/>
      <point x="418" y="0" type="line"/>
      <point x="442" y="0" type="line"/>
      <point x="588" y="722" type="line"/>
      <point x="560" y="722" type="line"/>
      <point x="516" y="506" type="line"/>
      <point x="496" y="410" type="line"/>
      <point x="492" y="410" type="line"/>
      <point x="462" y="458"/>
      <point x="406" y="490"/>
      <point x="334" y="490" type="curve" smooth="yes"/>
      <point x="180" y="490"/>
      <point x="66" y="338"/>
      <point x="66" y="170" type="curve" smooth="yes"/>
      <point x="66" y="50"/>
      <point x="134" y="-12"/>
    </contour>
    <contour>
      <point x="238" y="14" type="curve" smooth="yes"/>
      <point x="150" y="14"/>
      <point x="94" y="66"/>
      <point x="94" y="176" type="curve" smooth="yes"/>
      <point x="94" y="320"/>
      <point x="196" y="464"/>
      <point x="332" y="464" type="curve" smooth="yes"/>
      <point x="392" y="464"/>
      <point x="446" y="438"/>
      <point x="490" y="372" type="curve"/>
      <point x="438" y="122" type="line"/>
      <point x="374" y="54"/>
      <point x="302" y="14"/>
    </contour>
    <component base="caron.alt" xOffset="320"/>
  </outline>
</glyph>
<glyph name="Dcroat" format="1">
  <advance width="600"/>
  <unicode hex="0110"/>
  <outline>
    <component base="Eth"/>
    <contour>
      <point x="360" y="680" type="move" name="aboveUC"/>
    </contour>
    <contour>
      <point x="220" y="-20" type="move" name="belowLC"/>
    </contour>
  </outline>
</glyph>
<glyph name="Eogonek" format="1">
  <advance width="600"/>
  <unicode hex="0118"/>
  <outline>
    <contour>
      <point x="382" y="-224" type="curve" smooth="yes"/>
      <point x="414" y="-224"/>
      <point x="438" y="-212"/>
      <point x="456" y="-196" type="curve"/>
      <point x="444" y="-178" type="line"/>
      <point x="428" y="-190"/>
      <point x="410" y="-198"/>
      <point x="388" y="-198" type="curve" smooth="yes"/>
      <point x="352" y="-198"/>
      <point x="324" y="-182"/>
      <point x="324" y="-144" type="curve" smooth="yes"/>
      <point x="324" y="-80"/>
      <point x="420" y="0"/>
      <point x="470" y="0" type="curve"/>
      <point x="472" y="0" type="line"/>
      <point x="478" y="26" type="line"/>
      <point x="112" y="26" type="line"/>
      <point x="176" y="338" type="line"/>
      <point x="472" y="338" type="line"/>
      <point x="478" y="364" type="line"/>
      <point x="180" y="364" type="line"/>
      <point x="234" y="634" type="line"/>
      <point x="590" y="634" type="line"/>
      <point x="596" y="660" type="line"/>
      <point x="210" y="660" type="line"/>
      <point x="78" y="0" type="line"/>
      <point x="410" y="0" type="line"/>
      <point x="350" y="-32"/>
      <point x="296" y="-88"/>
      <point x="296" y="-152" type="curve" smooth="yes"/>
      <point x="296" y="-204"/>
      <point x="339" y="-224"/>
    </contour>
    <contour>
      <point x="278.0" y="682.0" type="move" name="aboveUC"/>
    </contour>
  </outline>
</glyph>
<glyph name="eogonek" format="1">
  <advance width="599"/>
  <unicode hex="0119"/>
  <outline>
    <contour>
      <point x="513" y="73" type="line"/>
      <point x="461" y="36"/>
      <point x="407" y="14"/>
      <point x="333" y="14" type="curve" smooth="yes"/>
      <point x="225" y="14"/>
      <point x="159" y="87"/>
      <point x="159" y="193" type="curve" smooth="yes"/>
      <point x="159" y="355"/>
      <point x="281" y="464"/>
      <point x="395" y="464" type="curve" smooth="yes"/>
      <point x="478" y="464"/>
      <point x="548" y="413"/>
      <point x="548" y="320" type="curve" smooth="yes"/>
      <point x="548" y="298"/>
      <point x="546" y="278"/>
      <point x="543" y="257" type="curve"/>
      <point x="560" y="264" type="line"/>
      <point x="157" y="264" type="line"/>
      <point x="155" y="239" type="line"/>
      <point x="569" y="239" type="line"/>
      <point x="573" y="251"/>
      <point x="578" y="283"/>
      <point x="578" y="317" type="curve" smooth="yes"/>
      <point x="578" y="425"/>
      <point x="498" y="490"/>
      <point x="403" y="490" type="curve" smooth="yes"/>
      <point x="262" y="490"/>
      <point x="130" y="372"/>
      <point x="130" y="191" type="curve" smooth="yes"/>
      <point x="130" y="65"/>
      <point x="210" y="-12"/>
      <point x="328" y="-12" type="curve" smooth="yes"/>
      <point x="363" y="-12"/>
      <point x="396" y="-7"/>
      <point x="428" y="3" type="curve"/>
      <point x="390" y="-24"/>
      <point x="336" y="-70"/>
      <point x="336" y="-133" type="curve" smooth="yes"/>
      <point x="336" y="-176"/>
      <point x="364" y="-195"/>
      <point x="398" y="-195" type="curve" smooth="yes"/>
      <point x="421" y="-195"/>
      <point x="449" y="-185"/>
      <point x="465" y="-173" type="curve"/>
      <point x="455" y="-154" type="line"/>
      <point x="439" y="-163"/>
      <point x="423" y="-169"/>
      <point x="405" y="-169" type="curve" smooth="yes"/>
      <point x="382" y="-169"/>
      <point x="366" y="-156"/>
      <point x="366" y="-128" type="curve" smooth="yes"/>
      <point x="366" y="-83"/>
      <point x="400" y="-29"/>
      <point x="526" y="51" type="curve"/>
    </contour>
  </outline>
</glyph>
<glyph name="hbar" format="1">
  <advance width="600"/>
  <unicode hex="0127"/>
  <outline>
    <contour>
      <point x="150" y="588" type="line"/>
      <point x="492" y="588" type="line"/>
      <point x="498" y="612" type="line"/>
      <point x="233" y="612" type="line"/>
      <point x="154" y="608" type="line"/>
    </contour>
    <contour>
      <point x="111" y="0" type="line"/>
      <point x="138" y="0" type="line"/>
      <point x="203" y="326" type="line"/>
      <point x="287" y="397"/>
      <point x="355" y="444"/>
      <point x="439" y="444" type="curve" smooth="yes"/>
      <point x="523" y="444"/>
      <point x="559" y="391"/>
      <point x="537" y="280" type="curve" smooth="yes"/>
      <point x="482" y="0" type="line"/>
      <point x="509" y="0" type="line"/>
      <point x="566" y="283" type="line" smooth="yes"/>
      <point x="592" y="414"/>
      <point x="541" y="470"/>
      <point x="438" y="470" type="curve" smooth="yes"/>
      <point x="354" y="470"/>
      <point x="277" y="414"/>
      <point x="205" y="353" type="curve"/>
      <point x="236" y="487" type="line"/>
      <point x="283" y="723" type="line"/>
      <point x="255" y="723" type="line"/>
    </contour>
  </outline>
</glyph>
<glyph name="Iogonek" format="1">
  <advance width="600"/>
  <unicode hex="012E"/>
  <outline>
    <contour>
      <point x="228" y="0" type="line"/>
      <point x="182" y="-46"/>
      <point x="142" y="-83"/>
      <point x="142" y="-140" type="curve" smooth="yes"/>
      <point x="142" y="-181"/>
      <point x="167" y="-202"/>
      <point x="203" y="-202" type="curve" smooth="yes"/>
      <point x="231" y="-202"/>
      <point x="258" y="-192"/>
      <point x="274" y="-179" type="curve"/>
      <point x="264" y="-160" type="line"/>
      <point x="248" y="-170"/>
      <point x="230" y="-176"/>
      <point x="210" y="-176" type="curve" smooth="yes"/>
      <point x="188" y="-176"/>
      <point x="172" y="-162"/>
      <point x="172" y="-133" type="curve" smooth="yes"/>
      <point x="172" y="-90"/>
      <point x="210" y="-47"/>
      <point x="256" y="0" type="curve"/>
      <point x="431" y="0" type="line"/>
      <point x="436" y="24" type="line"/>
      <point x="262" y="24" type="line"/>
      <point x="386" y="637" type="line"/>
      <point x="560" y="637" type="line"/>
      <point x="565" y="660" type="line"/>
      <point x="189" y="660" type="line"/>
      <point x="184" y="637" type="line"/>
      <point x="356" y="637" type="line"/>
      <point x="232" y="24" type="line"/>
      <point x="62" y="24" type="line"/>
      <point x="57" y="0" type="line"/>
    </contour>
    <contour>
      <point x="240" y="682" type="move" name="aboveUC"/>
    </contour>
  </outline>
</glyph>
<glyph name="iogonek" format="1">
  <advance width="600"/>
  <unicode hex="012F"/>
  <outline>
    <contour>
      <point x="367" y="0" type="curve"/>
      <point x="462" y="478" type="line"/>
      <point x="188" y="478" type="line"/>
      <point x="183" y="452" type="line"/>
      <point x="430" y="452" type="line"/>
      <point x="340" y="0" type="line"/>
      <point x="341" y="0" type="line"/>
      <point x="298" y="-40"/>
      <point x="252" y="-81"/>
      <point x="252" y="-140" type="curve" smooth="yes"/>
      <point x="252" y="-181"/>
      <point x="278" y="-202"/>
      <point x="311" y="-202" type="curve" smooth="yes"/>
      <point x="337" y="-202"/>
      <point x="365" y="-192"/>
      <point x="381" y="-180" type="curve"/>
      <point x="372" y="-160" type="line"/>
      <point x="356" y="-170"/>
      <point x="340" y="-176"/>
      <point x="319" y="-176" type="curve" smooth="yes"/>
      <point x="295" y="-176"/>
      <point x="282" y="-161"/>
      <point x="282" y="-132" type="curve" smooth="yes"/>
      <point x="282" y="-85"/>
      <point x="325" y="-41"/>
    </contour>
    <contour>
      <point x="462" y="601" type="curve" smooth="yes"/>
      <point x="487" y="601"/>
      <point x="510" y="620"/>
      <point x="510" y="650" type="curve" smooth="yes"/>
      <point x="510" y="670"/>
      <point x="497" y="682"/>
      <point x="479" y="682" type="curve" smooth="yes"/>
      <point x="454" y="682"/>
      <point x="431" y="663"/>
      <point x="431" y="634" type="curve" smooth="yes"/>
      <point x="431" y="613"/>
      <point x="444" y="601"/>
    </contour>
  </outline>
</glyph>
<glyph name="dotlessi" format="1">
  <advance width="600"/>
  <unicode hex="0131"/>
  <outline>
    <contour>
      <point x="189" y="452" type="line"/>
      <point x="378" y="452" type="line"/>
      <point x="312" y="142" type="line" smooth="yes"/>
      <point x="308" y="124"/>
      <point x="306" y="108"/>
      <point x="306" y="94" type="curve" smooth="yes"/>
      <point x="306" y="20"/>
      <point x="352" y="-12"/>
      <point x="415" y="-12" type="curve" smooth="yes"/>
      <point x="461" y="-12"/>
      <point x="497" y="0"/>
      <point x="537" y="19" type="curve"/>
      <point x="528" y="43" type="line"/>
      <point x="488" y="24"/>
      <point x="456" y="14"/>
      <point x="420" y="14" type="curve" smooth="yes"/>
      <point x="371" y="14"/>
      <point x="334" y="38"/>
      <point x="334" y="97" type="curve" smooth="yes"/>
      <point x="334" y="108"/>
      <point x="335" y="120"/>
      <point x="338" y="134" type="curve" smooth="yes"/>
      <point x="410" y="478" type="line"/>
      <point x="194" y="478" type="line"/>
    </contour>
  </outline>
</glyph>
<glyph name="IJ" format="1">
  <advance width="600"/>
  <unicode hex="0132"/>
  <outline>
    <contour>
      <point x="68" y="0" type="line"/>
      <point x="98" y="0" type="line"/>
      <point x="230" y="660" type="line"/>
      <point x="200" y="660" type="line"/>
    </contour>
    <contour>
      <point x="294" y="-150" type="curve" smooth="yes"/>
      <point x="354" y="-150"/>
      <point x="391" y="-98"/>
      <point x="408" y="-12" type="curve" smooth="yes"/>
      <point x="542" y="660" type="line"/>
      <point x="512" y="660" type="line"/>
      <point x="376" y="-20" type="line"/>
      <point x="362" y="-82"/>
      <point x="336" y="-122"/>
      <point x="296" y="-122" type="curve" smooth="yes"/>
      <point x="270" y="-122"/>
      <point x="260" y="-116"/>
      <point x="248" y="-108" type="curve"/>
      <point x="236" y="-134" type="line"/>
      <point x="250" y="-142"/>
      <point x="266" y="-150"/>
    </contour>
  </outline>
</glyph>
<glyph name="kgreenlandic" format="1">
  <advance width="600"/>
  <unicode hex="0138"/>
  <outline>
    <contour>
      <point x="621" y="478" type="curve"/>
      <point x="584" y="478" type="line"/>
      <point x="192" y="173" type="line"/>
      <point x="189" y="171" type="line"/>
      <point x="251" y="478" type="line"/>
      <point x="223" y="478" type="line"/>
      <point x="128" y="0" type="line"/>
      <point x="155" y="0" type="line"/>
      <point x="182" y="136" type="line"/>
      <point x="182" y="136"/>
      <point x="621" y="478"/>
    </contour>
    <contour>
      <point x="357" y="284" type="line"/>
      <point x="528" y="0" type="line"/>
      <point x="559" y="0" type="line"/>
      <point x="380" y="301" type="line"/>
    </contour>
  </outline>
</glyph>
<glyph name="Lslash" format="1">
  <advance width="601"/>
  <unicode hex="0141"/>
  <outline>
    <contour>
      <point x="272" y="271" type="line"/>
      <point x="525" y="390" type="line"/>
      <point x="530" y="418" type="line"/>
      <point x="277" y="299" type="line"/>
      <point x="246" y="285" type="line"/>
      <point x="138" y="235" type="line"/>
      <point x="132" y="207" type="line"/>
      <point x="241" y="257" type="line"/>
    </contour>
    <component base="L"/>
  </outline>
</glyph>
<glyph name="lslash" format="1">
  <advance width="600"/>
  <unicode hex="0142"/>
  <outline>
    <contour>
      <point x="237" y="696" type="line"/>
      <point x="422" y="696" type="line"/>
      <point x="310" y="142" type="line" smooth="yes"/>
      <point x="289" y="35"/>
      <point x="342" y="-12"/>
      <point x="417" y="-12" type="curve" smooth="yes"/>
      <point x="463" y="-12"/>
      <point x="497" y="-2"/>
      <point x="535" y="18" type="curve"/>
      <point x="526" y="42" type="line"/>
      <point x="488" y="22"/>
      <point x="456" y="14"/>
      <point x="423" y="14" type="curve" smooth="yes"/>
      <point x="362" y="14"/>
      <point x="319" y="49"/>
      <point x="336" y="134" type="curve" smooth="yes"/>
      <point x="454" y="722" type="line"/>
      <point x="242" y="722" type="line"/>
    </contour>
    <contour>
      <point x="386" y="395" type="line"/>
      <point x="583" y="496" type="line"/>
      <point x="589" y="525" type="line"/>
      <point x="392" y="425" type="line"/>
      <point x="366" y="410" type="line"/>
      <point x="216" y="332" type="line"/>
      <point x="210" y="302" type="line"/>
      <point x="360" y="380" type="line"/>
    </contour>
  </outline>
</glyph>
<glyph name="napostrophe" format="1">
  <advance width="599"/>
  <unicode hex="0149"/>
  <outline>
    <contour>
      <point x="181" y="0" type="line"/>
      <point x="208" y="0" type="line"/>
      <point x="279" y="354" type="line"/>
      <point x="365" y="421"/>
      <point x="421" y="464"/>
      <point x="495" y="464" type="curve" smooth="yes"/>
      <point x="575" y="464"/>
      <point x="615" y="411"/>
      <point x="593" y="304" type="curve" smooth="yes"/>
      <point x="533" y="0" type="line"/>
      <point x="560" y="0" type="line"/>
      <point x="621" y="308" type="line" smooth="yes"/>
      <point x="646" y="432"/>
      <point x="597" y="490"/>
      <point x="493" y="490" type="curve" smooth="yes"/>
      <point x="419" y="490"/>
      <point x="356" y="447"/>
      <point x="291" y="388" type="curve"/>
      <point x="287" y="388" type="line"/>
      <point x="300" y="478" type="line"/>
      <point x="276" y="478" type="line"/>
    </contour>
    <contour>
      <point x="101" y="410" type="line"/>
      <point x="194" y="456"/>
      <point x="260" y="534"/>
      <point x="260" y="631" type="curve" smooth="yes"/>
      <point x="260" y="679"/>
      <point x="241" y="700"/>
      <point x="212" y="700" type="curve" smooth="yes"/>
      <point x="174" y="700"/>
      <point x="145" y="670"/>
      <point x="145" y="633" type="curve" smooth="yes"/>
      <point x="145" y="607"/>
      <point x="160" y="590"/>
      <point x="182" y="590" type="curve" smooth="yes"/>
      <point x="207" y="590"/>
      <point x="225" y="604"/>
      <point x="245" y="625" type="curve"/>
      <point x="203" y="677" type="line"/>
      <point x="221" y="614" type="line"/>
      <point x="206" y="521"/>
      <point x="161" y="474"/>
      <point x="88" y="432" type="curve"/>
    </contour>
  </outline>
</glyph>
<glyph name="Eng" format="1">
  <advance width="600"/>
  <unicode hex="014A"/>
  <outline>
    <contour>
      <point x="32" y="0" type="line"/>
      <point x="62" y="0" type="line"/>
      <point x="170" y="542" type="line"/>
      <point x="236" y="610"/>
      <point x="320" y="646"/>
      <point x="370" y="646" type="curve" smooth="yes"/>
      <point x="459" y="646"/>
      <point x="520" y="597"/>
      <point x="520" y="450" type="curve" smooth="yes"/>
      <point x="520" y="236"/>
      <point x="430" y="14"/>
      <point x="324" y="14" type="curve" smooth="yes"/>
      <point x="300" y="14"/>
      <point x="284" y="20"/>
      <point x="267" y="30" type="curve"/>
      <point x="252" y="6" type="line"/>
      <point x="270" y="-4"/>
      <point x="300" y="-12"/>
      <point x="322" y="-12" type="curve" smooth="yes"/>
      <point x="454" y="-12"/>
      <point x="550" y="216"/>
      <point x="550" y="456" type="curve" smooth="yes"/>
      <point x="550" y="609"/>
      <point x="478" y="672"/>
      <point x="372" y="672" type="curve" smooth="yes"/>
      <point x="316" y="672"/>
      <point x="230" y="630"/>
      <point x="178" y="580" type="curve"/>
      <point x="194" y="660" type="line"/>
      <point x="164" y="660" type="line"/>
    </contour>
  </outline>
</glyph>
<glyph name="OE" format="1">
  <advance width="600"/>
  <unicode hex="0152"/>
  <outline>
    <contour>
      <point x="99" y="246" type="curve" smooth="yes"/>
      <point x="99" y="100"/>
      <point x="153" y="0"/>
      <point x="325" y="0" type="curve" smooth="yes"/>
      <point x="586" y="0" type="line"/>
      <point x="592" y="26" type="line"/>
      <point x="359" y="26" type="line"/>
      <point x="423" y="338" type="line"/>
      <point x="592" y="338" type="line"/>
      <point x="598" y="364" type="line"/>
      <point x="427" y="364" type="line"/>
      <point x="481" y="634" type="line"/>
      <point x="704" y="634" type="line"/>
      <point x="710" y="660" type="line"/>
      <point x="451" y="660" type="line" smooth="yes"/>
      <point x="229" y="660"/>
      <point x="99" y="476"/>
    </contour>
    <contour>
      <point x="453" y="634" type="line"/>
      <point x="331" y="26" type="line"/>
      <point x="327" y="26" type="line" smooth="yes"/>
      <point x="173" y="26"/>
      <point x="129" y="118"/>
      <point x="129" y="248" type="curve" smooth="yes"/>
      <point x="129" y="453"/>
      <point x="243" y="634"/>
      <point x="449" y="634" type="curve" smooth="yes"/>
    </contour>
  </outline>
</glyph>
<glyph name="oe" format="1">
  <advance width="600"/>
  <unicode hex="0153"/>
  <outline>
    <contour>
      <point x="82" y="169" type="curve" smooth="yes"/>
      <point x="82" y="324"/>
      <point x="163" y="465"/>
      <point x="271" y="465" type="curve" smooth="yes"/>
      <point x="331" y="465"/>
      <point x="364" y="404"/>
      <point x="364" y="305" type="curve" smooth="yes"/>
      <point x="364" y="147"/>
      <point x="280" y="13"/>
      <point x="183" y="13" type="curve" smooth="yes"/>
      <point x="116" y="13"/>
      <point x="82" y="76"/>
    </contour>
    <contour>
      <point x="181" y="-12" type="curve" smooth="yes"/>
      <point x="251" y="-12"/>
      <point x="311" y="33"/>
      <point x="354" y="125" type="curve"/>
      <point x="351" y="133" type="line"/>
      <point x="354" y="37"/>
      <point x="403" y="-12"/>
      <point x="476" y="-12" type="curve" smooth="yes"/>
      <point x="526" y="-12"/>
      <point x="574" y="8"/>
      <point x="604" y="28" type="curve"/>
      <point x="592" y="49" type="line"/>
      <point x="565" y="29"/>
      <point x="521" y="13"/>
      <point x="482" y="13" type="curve" smooth="yes"/>
      <point x="411" y="13"/>
      <point x="378" y="62"/>
      <point x="378" y="150" type="curve" smooth="yes"/>
      <point x="378" y="302"/>
      <point x="461" y="464"/>
      <point x="556" y="464" type="curve" smooth="yes"/>
      <point x="617" y="464"/>
      <point x="634" y="411"/>
      <point x="634" y="343" type="curve" smooth="yes"/>
      <point x="634" y="316"/>
      <point x="629" y="281"/>
      <point x="622" y="256" type="curve"/>
      <point x="632" y="263" type="line"/>
      <point x="380" y="263" type="line"/>
      <point x="380" y="239" type="line"/>
      <point x="647" y="239" type="line"/>
      <point x="653" y="259"/>
      <point x="663" y="305"/>
      <point x="663" y="346" type="curve" smooth="yes"/>
      <point x="663" y="440"/>
      <point x="628" y="490"/>
      <point x="561" y="490" type="curve" smooth="yes"/>
      <point x="487" y="490"/>
      <point x="429" y="432"/>
      <point x="388" y="338" type="curve"/>
      <point x="390" y="336" type="line"/>
      <point x="383" y="433"/>
      <point x="341" y="490"/>
      <point x="275" y="490" type="curve" smooth="yes"/>
      <point x="158" y="490"/>
      <point x="52" y="358"/>
      <point x="52" y="168" type="curve" smooth="yes"/>
      <point x="52" y="55"/>
      <point x="94" y="-12"/>
    </contour>
  </outline>
</glyph>
<glyph name="Tbar" format="1">
  <advance width="600"/>
  <unicode hex="0166"/>
  <outline>
    <contour>
      <point x="159" y="362" type="line"/>
      <point x="457" y="362" type="line"/>
      <point x="462" y="386" type="line"/>
      <point x="240" y="386" type="line"/>
      <point x="163" y="382" type="line"/>
    </contour>
    <component base="T"/>
  </outline>
</glyph>
<glyph name="tbar" format="1">
  <advance width="600"/>
  <unicode hex="0167"/>
  <outline>
    <contour>
      <point x="139" y="264" type="line"/>
      <point x="482" y="264" type="line"/>
      <point x="487" y="288" type="line"/>
      <point x="222" y="288" type="line"/>
      <point x="143" y="284" type="line"/>
    </contour>
    <component base="t"/>
  </outline>
</glyph>
<glyph name="Uogonek" format="1">
  <advance width="600.0"/>
  <unicode hex="0172"/>
  <outline>
    <contour>
      <point x="302" y="-200" type="curve" smooth="yes"/>
      <point x="329" y="-200"/>
      <point x="355" y="-189"/>
      <point x="371" y="-177" type="curve"/>
      <point x="360" y="-156" type="line"/>
      <point x="344" y="-166"/>
      <point x="328" y="-174"/>
      <point x="308" y="-174" type="curve" smooth="yes"/>
      <point x="286" y="-174"/>
      <point x="270" y="-162"/>
      <point x="270" y="-132" type="curve" smooth="yes"/>
      <point x="270" y="-90"/>
      <point x="321" y="-30"/>
      <point x="386" y="-5" type="curve" smooth="yes"/>
      <point x="472" y="28"/>
      <point x="531" y="86"/>
      <point x="562" y="241" type="curve" smooth="yes"/>
      <point x="646" y="660" type="line"/>
      <point x="616" y="660" type="line"/>
      <point x="534" y="249" type="line" smooth="yes"/>
      <point x="500" y="80"/>
      <point x="421" y="18"/>
      <point x="317" y="18" type="curve" smooth="yes"/>
      <point x="203" y="18"/>
      <point x="149" y="107"/>
      <point x="182" y="270" type="curve" smooth="yes"/>
      <point x="260" y="660" type="line"/>
      <point x="230" y="660" type="line"/>
      <point x="150" y="262" type="line" smooth="yes"/>
      <point x="115" y="89"/>
      <point x="188" y="-12"/>
      <point x="313" y="-12" type="curve" smooth="yes"/>
      <point x="318" y="-12"/>
      <point x="323" y="-12"/>
      <point x="328" y="-12" type="curve"/>
      <point x="296" y="-34"/>
      <point x="240" y="-78"/>
      <point x="240" y="-140" type="curve" smooth="yes"/>
      <point x="240" y="-180"/>
      <point x="265" y="-200"/>
    </contour>
  </outline>
</glyph>
<glyph name="uogonek" format="1">
  <advance width="600"/>
  <unicode hex="0173"/>
  <outline>
    <contour>
      <point x="257" y="-12" type="curve" smooth="yes"/>
      <point x="341" y="-12"/>
      <point x="416" y="48"/>
      <point x="481" y="111" type="curve"/>
      <point x="485" y="111" type="line"/>
      <point x="468" y="8" type="line"/>
      <point x="395" y="-42"/>
      <point x="351" y="-84"/>
      <point x="351" y="-142" type="curve" smooth="yes"/>
      <point x="351" y="-183"/>
      <point x="376" y="-203"/>
      <point x="412" y="-203" type="curve" smooth="yes"/>
      <point x="436" y="-203"/>
      <point x="462" y="-193"/>
      <point x="478" y="-181" type="curve"/>
      <point x="468" y="-162" type="line"/>
      <point x="452" y="-172"/>
      <point x="439" y="-177"/>
      <point x="421" y="-177" type="curve" smooth="yes"/>
      <point x="396" y="-177"/>
      <point x="380" y="-164"/>
      <point x="380" y="-135" type="curve" smooth="yes"/>
      <point x="380" y="-88"/>
      <point x="422" y="-45"/>
      <point x="490" y="0" type="curve"/>
      <point x="585" y="478" type="line"/>
      <point x="558" y="478" type="line"/>
      <point x="492" y="154" type="line"/>
      <point x="411" y="71"/>
      <point x="334" y="14"/>
      <point x="261" y="14" type="curve" smooth="yes"/>
      <point x="165" y="14"/>
      <point x="132" y="69"/>
      <point x="155" y="183" type="curve" smooth="yes"/>
      <point x="214" y="478" type="line"/>
      <point x="187" y="478" type="line"/>
      <point x="127" y="180" type="line" smooth="yes"/>
      <point x="101" y="52"/>
      <point x="146" y="-12"/>
    </contour>
    <contour>
      <point x="294" y="500" type="move" name="aboveLC"/>
    </contour>
  </outline>
</glyph>
<glyph name="florin" format="1">
  <advance width="600"/>
  <unicode hex="0192"/>
  <outline>
    <contour>
      <point x="48" y="-58" type="curve"/>
      <point x="35" y="-77" type="line"/>
      <point x="54" y="-86"/>
      <point x="83" y="-98"/>
      <point x="122" y="-98" type="curve" smooth="yes"/>
      <point x="190" y="-98"/>
      <point x="248" y="-66"/>
      <point x="289" y="68" type="curve" smooth="yes"/>
      <point x="424" y="505" type="line" smooth="yes"/>
      <point x="451" y="592"/>
      <point x="488" y="648"/>
      <point x="563" y="648" type="curve" smooth="yes"/>
      <point x="595" y="648"/>
      <point x="621" y="643"/>
      <point x="639" y="632" type="curve"/>
      <point x="655" y="651" type="line"/>
      <point x="636" y="663"/>
      <point x="608" y="672"/>
      <point x="573" y="672" type="curve" smooth="yes"/>
      <point x="481" y="672"/>
      <point x="433" y="622"/>
      <point x="399" y="511" type="curve" smooth="yes"/>
      <point x="259" y="60" type="line" smooth="yes"/>
      <point x="233" y="-23"/>
      <point x="194" y="-76"/>
      <point x="123" y="-76" type="curve" smooth="yes"/>
      <point x="91" y="-76"/>
      <point x="66" y="-66"/>
    </contour>
    <contour>
      <point x="239" y="381" type="line"/>
      <point x="552" y="381" type="line"/>
      <point x="557" y="404" type="line"/>
      <point x="310" y="404" type="line"/>
      <point x="243" y="400" type="line"/>
    </contour>
  </outline>
</glyph>
<glyph name="Ohorn" format="1">
  <advance width="600"/>
  <unicode hex="01A0"/>
  <outline>
    <contour>
      <point x="537" y="615" type="line"/>
      <point x="626" y="626"/>
      <point x="679" y="659"/>
      <point x="679" y="724" type="curve" smooth="yes"/>
      <point x="679" y="737"/>
      <point x="676" y="751"/>
      <point x="670" y="764" type="curve"/>
      <point x="643" y="748" type="line"/>
      <point x="648" y="738"/>
      <point x="650" y="728"/>
      <point x="650" y="719" type="curve" smooth="yes"/>
      <point x="650" y="676"/>
      <point x="618" y="649"/>
      <point x="536" y="640" type="curve"/>
    </contour>
    <contour>
      <point x="298" y="-12" type="curve" smooth="yes"/>
      <point x="471" y="-12"/>
      <point x="622" y="174"/>
      <point x="622" y="420" type="curve" smooth="yes"/>
      <point x="622" y="574"/>
      <point x="550" y="672"/>
      <point x="435" y="672" type="curve" smooth="yes"/>
      <point x="262" y="672"/>
      <point x="112" y="491"/>
      <point x="112" y="243" type="curve" smooth="yes"/>
      <point x="112" y="89"/>
      <point x="183" y="-12"/>
    </contour>
    <contour>
      <point x="304" y="16" type="curve" smooth="yes"/>
      <point x="203" y="16"/>
      <point x="143" y="107"/>
      <point x="143" y="245" type="curve" smooth="yes"/>
      <point x="143" y="473"/>
      <point x="272" y="645"/>
      <point x="429" y="645" type="curve" smooth="yes"/>
      <point x="531" y="645"/>
      <point x="591" y="556"/>
      <point x="591" y="418" type="curve" smooth="yes"/>
      <point x="591" y="192"/>
      <point x="460" y="16"/>
    </contour>
  </outline>
</glyph>
<glyph name="ohorn" format="1">
  <advance width="600"/>
  <unicode hex="01A1"/>
  <outline>
    <contour>
      <point x="388" y="490" type="curve" smooth="yes"/>
      <point x="240" y="490"/>
      <point x="116" y="358"/>
      <point x="116" y="194" type="curve" smooth="yes"/>
      <point x="116" y="74"/>
      <point x="186" y="-12"/>
      <point x="306" y="-12" type="curve" smooth="yes"/>
      <point x="454" y="-12"/>
      <point x="578" y="120"/>
      <point x="578" y="284" type="curve" smooth="yes"/>
      <point x="578" y="404"/>
      <point x="508" y="490"/>
    </contour>
    <contour>
      <point x="308" y="14" type="curve" smooth="yes"/>
      <point x="204" y="14"/>
      <point x="144" y="88"/>
      <point x="144" y="200" type="curve" smooth="yes"/>
      <point x="144" y="341"/>
      <point x="258" y="464"/>
      <point x="386" y="464" type="curve" smooth="yes"/>
      <point x="490" y="464"/>
      <point x="550" y="390"/>
      <point x="550" y="278" type="curve" smooth="yes"/>
      <point x="550" y="137"/>
      <point x="436" y="14"/>
    </contour>
    <contour>
      <point x="485" y="444" type="line"/>
      <point x="577" y="455"/>
      <point x="627" y="484"/>
      <point x="627" y="545" type="curve" smooth="yes"/>
      <point x="627" y="564"/>
      <point x="622" y="578"/>
      <point x="617" y="589" type="curve"/>
      <point x="590" y="576" type="line"/>
      <point x="595" y="565"/>
      <point x="598" y="556"/>
      <point x="598" y="543" type="curve" smooth="yes"/>
      <point x="598" y="501"/>
      <point x="563" y="475"/>
      <point x="484" y="466" type="curve"/>
    </contour>
  </outline>
</glyph>
<glyph name="Uhorn" format="1">
  <advance width="600"/>
  <unicode hex="01AF"/>
  <outline>
    <contour>
      <point x="626" y="639" type="line"/>
      <point x="691" y="653"/>
      <point x="744" y="677"/>
      <point x="744" y="741" type="curve" smooth="yes"/>
      <point x="744" y="758"/>
      <point x="740" y="771"/>
      <point x="734" y="784" type="curve"/>
      <point x="707" y="768" type="line"/>
      <point x="713" y="758"/>
      <point x="715" y="748"/>
      <point x="715" y="739" type="curve" smooth="yes"/>
      <point x="715" y="696"/>
      <point x="686" y="672"/>
      <point x="608" y="660" type="curve"/>
    </contour>
    <contour>
      <point x="142" y="262" type="line" smooth="yes"/>
      <point x="107" y="89"/>
      <point x="179" y="-12"/>
      <point x="304" y="-12" type="curve" smooth="yes"/>
      <point x="425" y="-12"/>
      <point x="516" y="53"/>
      <point x="554" y="241" type="curve" smooth="yes"/>
      <point x="638" y="660" type="line"/>
      <point x="608" y="660" type="line"/>
      <point x="526" y="249" type="line" smooth="yes"/>
      <point x="492" y="79"/>
      <point x="413" y="16"/>
      <point x="308" y="16" type="curve" smooth="yes"/>
      <point x="196" y="16"/>
      <point x="141" y="107"/>
      <point x="174" y="270" type="curve" smooth="yes"/>
      <point x="252" y="660" type="line"/>
      <point x="222" y="660" type="line"/>
    </contour>
  </outline>
</glyph>
<glyph name="uhorn" format="1">
  <advance width="600"/>
  <unicode hex="01B0"/>
  <outline>
    <contour>
      <point x="579" y="459" type="line"/>
      <point x="627" y="469"/>
      <point x="688" y="496"/>
      <point x="688" y="557" type="curve" smooth="yes"/>
      <point x="688" y="577"/>
      <point x="684" y="589"/>
      <point x="678" y="601" type="curve"/>
      <point x="652" y="586" type="line"/>
      <point x="656" y="577"/>
      <point x="659" y="567"/>
      <point x="659" y="556" type="curve" smooth="yes"/>
      <point x="659" y="513"/>
      <point x="620" y="485"/>
      <point x="556" y="478" type="curve"/>
    </contour>
    <contour>
      <point x="584" y="478" type="line"/>
      <point x="556" y="478" type="line"/>
      <point x="490" y="154" type="line"/>
      <point x="406" y="68"/>
      <point x="329" y="14"/>
      <point x="245" y="14" type="curve" smooth="yes"/>
      <point x="188" y="14"/>
      <point x="146" y="46"/>
      <point x="146" y="108" type="curve" smooth="yes"/>
      <point x="146" y="136"/>
      <point x="150" y="162"/>
      <point x="156" y="192" type="curve" smooth="yes"/>
      <point x="214" y="478" type="line"/>
      <point x="186" y="478" type="line"/>
      <point x="128" y="188" type="line" smooth="yes"/>
      <point x="122" y="160"/>
      <point x="118" y="136"/>
      <point x="118" y="104" type="curve" smooth="yes"/>
      <point x="118" y="36"/>
      <point x="167" y="-12"/>
      <point x="241" y="-12" type="curve" smooth="yes"/>
      <point x="335" y="-12"/>
      <point x="412" y="46"/>
      <point x="478" y="110" type="curve"/>
      <point x="482" y="110" type="line"/>
      <point x="464" y="0" type="line"/>
      <point x="488" y="0" type="line"/>
    </contour>
  </outline>
</glyph>
<glyph name="Oogonek" format="1">
  <advance width="600"/>
  <unicode hex="01EA"/>
  <outline>
    <contour>
      <point x="210" y="-224" type="curve" smooth="yes"/>
      <point x="242" y="-224"/>
      <point x="266" y="-212"/>
      <point x="284" y="-196" type="curve"/>
      <point x="272" y="-178" type="line"/>
      <point x="256" y="-190"/>
      <point x="238" y="-198"/>
      <point x="216" y="-198" type="curve" smooth="yes"/>
      <point x="180" y="-198"/>
      <point x="152" y="-182"/>
      <point x="152" y="-144" type="curve" smooth="yes"/>
      <point x="152" y="-106"/>
      <point x="198" y="-29"/>
      <point x="299" y="-8" type="curve" smooth="yes"/>
      <point x="462" y="26"/>
      <point x="560" y="222"/>
      <point x="560" y="418" type="curve" smooth="yes"/>
      <point x="560" y="566"/>
      <point x="486" y="672"/>
      <point x="354" y="672" type="curve" smooth="yes"/>
      <point x="158" y="672"/>
      <point x="50" y="438"/>
      <point x="50" y="242" type="curve" smooth="yes"/>
      <point x="50" y="84"/>
      <point x="132" y="-2"/>
      <point x="228" y="-10" type="curve"/>
      <point x="172" y="-40"/>
      <point x="124" y="-96"/>
      <point x="124" y="-152" type="curve" smooth="yes"/>
      <point x="124" y="-204"/>
      <point x="167" y="-224"/>
    </contour>
    <contour>
      <point x="258" y="14" type="curve" smooth="yes"/>
      <point x="138" y="14"/>
      <point x="80" y="110"/>
      <point x="80" y="246" type="curve" smooth="yes"/>
      <point x="80" y="420"/>
      <point x="176" y="646"/>
      <point x="352" y="646" type="curve" smooth="yes"/>
      <point x="472" y="646"/>
      <point x="530" y="550"/>
      <point x="530" y="414" type="curve" smooth="yes"/>
      <point x="530" y="240"/>
      <point x="434" y="14"/>
    </contour>
    <contour>
      <point x="374" y="680" type="move" name="aboveUC"/>
    </contour>
  </outline>
</glyph>
<glyph name="Aringacute" format="1">
  <advance width="600"/>
  <unicode hex="01FA"/>
  <outline>
    <contour>
      <point x="374" y="838" type="line"/>
      <point x="508" y="908" type="line"/>
      <point x="494" y="932" type="line"/>
      <point x="360" y="854" type="line"/>
    </contour>
    <component base="Aring"/>
    <contour>
      <point x="458.0" y="0.0" type="move" name="ogonekUC"/>
    </contour>
  </outline>
</glyph>
<glyph name="Bstroke" format="1">
  <advance width="600"/>
  <unicode hex="0243"/>
  <outline>
    <contour>
      <point x="64" y="0" type="line"/>
      <point x="254" y="0" type="line" smooth="yes"/>
      <point x="412" y="0"/>
      <point x="518" y="66"/>
      <point x="518" y="206" type="curve" smooth="yes"/>
      <point x="518" y="290"/>
      <point x="456" y="334"/>
      <point x="392" y="348" type="curve"/>
      <point x="392" y="352" type="line"/>
      <point x="454" y="362"/>
      <point x="542" y="418"/>
      <point x="542" y="518" type="curve" smooth="yes"/>
      <point x="542" y="606"/>
      <point x="482" y="660"/>
      <point x="352" y="660" type="curve" smooth="yes"/>
      <point x="196" y="660" type="line"/>
    </contour>
    <contour>
      <point x="166" y="364" type="line"/>
      <point x="220" y="634" type="line"/>
      <point x="336" y="634" type="line" smooth="yes"/>
      <point x="466" y="634"/>
      <point x="512" y="590"/>
      <point x="512" y="516" type="curve" smooth="yes"/>
      <point x="512" y="428"/>
      <point x="436" y="364"/>
      <point x="284" y="364" type="curve" smooth="yes"/>
    </contour>
    <contour>
      <point x="98" y="26" type="line"/>
      <point x="162" y="338" type="line"/>
      <point x="302" y="338" type="line" smooth="yes"/>
      <point x="420" y="338"/>
      <point x="488" y="280"/>
      <point x="488" y="203" type="curve" smooth="yes"/>
      <point x="488" y="74"/>
      <point x="386" y="26"/>
      <point x="236" y="26" type="curve" smooth="yes"/>
    </contour>
    <contour>
      <point x="20" y="178" type="line"/>
      <point x="304" y="178" type="line"/>
      <point x="308" y="205" type="line"/>
      <point x="106" y="205" type="line"/>
      <point x="26" y="201" type="line"/>
    </contour>
  </outline>
</glyph>
<glyph name="ccurl" format="1">
  <advance width="600"/>
  <unicode hex="0255"/>
  <outline>
    <contour>
      <point x="79" y="-104" type="line"/>
      <point x="160" y="42"/>
      <point x="276" y="136"/>
      <point x="364" y="136" type="curve" smooth="yes"/>
      <point x="412" y="136"/>
      <point x="430" y="114"/>
      <point x="430" y="90" type="curve" smooth="yes"/>
      <point x="430.0" y="46.0"/>
      <point x="378" y="14"/>
      <point x="298" y="14" type="curve" smooth="yes"/>
      <point x="190" y="14"/>
      <point x="100.0" y="78.0"/>
      <point x="100.0" y="206.0" type="curve" smooth="yes"/>
      <point x="100.0" y="349.0"/>
      <point x="228.0" y="464.0"/>
      <point x="348.0" y="464.0" type="curve" smooth="yes"/>
      <point x="426.0" y="464.0"/>
      <point x="474.0" y="438.0"/>
      <point x="512.0" y="388.0" type="curve"/>
      <point x="534.0" y="406.0" type="line"/>
      <point x="500.0" y="452.0"/>
      <point x="440.0" y="490.0"/>
      <point x="358.0" y="490.0" type="curve" smooth="yes"/>
      <point x="212.0" y="490.0"/>
      <point x="72.0" y="372.0"/>
      <point x="72.0" y="200.0" type="curve" smooth="yes"/>
      <point x="72.0" y="60.0"/>
      <point x="174" y="-12"/>
      <point x="296" y="-12" type="curve" smooth="yes"/>
      <point x="402" y="-12"/>
      <point x="458.0" y="34.0"/>
      <point x="458" y="96" type="curve" smooth="yes"/>
      <point x="458" y="134"/>
      <point x="430" y="162"/>
      <point x="366" y="162" type="curve" smooth="yes"/>
      <point x="264" y="162"/>
      <point x="140" y="58"/>
      <point x="53" y="-94" type="curve"/>
    </contour>
    <contour>
      <point x="354.0" y="500.0" type="move" name="aboveLC"/>
    </contour>
    <contour>
      <point x="266.0" y="-20.0" type="move" name="belowLC"/>
    </contour>
  </outline>
</glyph>
<glyph name="eopenreversedclosed" format="1">
  <advance width="600"/>
  <unicode hex="025E"/>
  <outline>
    <contour>
      <point x="276" y="-12" type="curve" smooth="yes"/>
      <point x="409" y="-12"/>
      <point x="486.0" y="56.0"/>
      <point x="486" y="148" type="curve" smooth="yes"/>
      <point x="486" y="204"/>
      <point x="438" y="240"/>
      <point x="393" y="254" type="curve"/>
      <point x="394" y="258" type="line"/>
      <point x="450" y="278"/>
      <point x="504" y="308"/>
      <point x="504" y="380" type="curve" smooth="yes"/>
      <point x="504.0" y="452.0"/>
      <point x="436" y="490"/>
      <point x="348" y="490" type="curve" smooth="yes"/>
      <point x="178" y="490"/>
      <point x="56.0" y="358.0"/>
      <point x="56" y="194" type="curve" smooth="yes"/>
      <point x="56.0" y="74.0"/>
      <point x="146" y="-12"/>
    </contour>
    <contour>
      <point x="278" y="14" type="curve" smooth="yes"/>
      <point x="164" y="14"/>
      <point x="84.0" y="88.0"/>
      <point x="84" y="200" type="curve" smooth="yes"/>
      <point x="84.0" y="342.0"/>
      <point x="196" y="464"/>
      <point x="346" y="464" type="curve" smooth="yes"/>
      <point x="416" y="464"/>
      <point x="476.0" y="436.0"/>
      <point x="476" y="374" type="curve" smooth="yes"/>
      <point x="476" y="314"/>
      <point x="398" y="268"/>
      <point x="280" y="268" type="curve" smooth="yes"/>
      <point x="266" y="268" type="line"/>
      <point x="260" y="242" type="line"/>
      <point x="288" y="242" type="line" smooth="yes"/>
      <point x="398" y="242"/>
      <point x="458" y="200"/>
      <point x="458" y="142" type="curve" smooth="yes"/>
      <point x="458.0" y="74.0"/>
      <point x="391" y="14"/>
    </contour>
    <contour>
      <point x="340" y="500" type="move" name="aboveLC"/>
    </contour>
    <contour>
      <point x="260" y="-20" type="move" name="belowLC"/>
    </contour>
  </outline>
</glyph>
<glyph name="oesmall" format="1">
	<unicode hex="0276"/>
	<advance width="600"/>
	<outline>
		<contour>
			<point x="182" y="-12" type="curve" smooth="yes"/>
			<point x="215" y="-12"/>
			<point x="242" y="-8"/>
			<point x="269" y="0" type="curve"/>
			<point x="542" y="0" type="line"/>
			<point x="548" y="26" type="line"/>
			<point x="302" y="26" type="line"/>
			<point x="342" y="242" type="line"/>
			<point x="539" y="242" type="line"/>
			<point x="544" y="268" type="line"/>
			<point x="348" y="268" type="line"/>
			<point x="385" y="452" type="line"/>
			<point x="622" y="452" type="line"/>
			<point x="628" y="478" type="line"/>
			<point x="364" y="478" type="line"/>
			<point x="332" y="486"/>
			<point x="308" y="490"/>
			<point x="278" y="490" type="curve" smooth="yes"/>
			<point x="114" y="490"/>
			<point x="4" y="350"/>
			<point x="4" y="172" type="curve" smooth="yes"/>
			<point x="4" y="54"/>
			<point x="66" y="-12"/>
		</contour>
		<contour>
			<point x="184" y="14" type="curve" smooth="yes"/>
			<point x="90" y="14"/>
			<point x="32" y="73"/>
			<point x="32" y="178" type="curve" smooth="yes"/>
			<point x="32" y="334"/>
			<point x="134" y="464"/>
			<point x="276" y="464" type="curve" smooth="yes"/>
			<point x="302" y="464"/>
			<point x="330" y="458"/>
			<point x="354" y="450" type="curve"/>
			<point x="274" y="28" type="line"/>
			<point x="244" y="20"/>
			<point x="212" y="14"/>
		</contour>
		<contour>
			<point name="aboveLC" x="380" y="500" type="move"/>
		</contour>
		<contour>
			<point name="belowLC" x="310" y="-20" type="move"/>
		</contour>
	</outline>
</glyph>
<glyph name="tturned" format="1">
	<unicode hex="0287"/>
	<advance width="600"/>
	<outline>
		<component base="t" xScale="-1" yScale="-1" xOffset="580" yOffset="478"/>
		<contour>
			<point name="aboveLC" x="300" y="500" type="move"/>
		</contour>
		<contour>
			<point name="belowLC" x="290" y="-160" type="move"/>
		</contour>
	</outline>
</glyph>
<glyph name="ubar" format="1">
	<unicode hex="0289"/>
	<advance width="600"/>
	<outline>
		<contour>
			<point x="216" y="-12" type="curve" smooth="yes"/>
			<point x="274" y="-12"/>
			<point x="328" y="28"/>
			<point x="388" y="80" type="curve"/>
			<point x="392" y="80" type="line"/>
			<point x="380" y="0" type="line"/>
			<point x="404" y="0" type="line"/>
			<point x="500" y="478" type="line"/>
			<point x="472" y="478" type="line"/>
			<point x="400" y="120" type="line"/>
			<point x="324" y="46"/>
			<point x="264" y="14"/>
			<point x="220" y="14" type="curve" smooth="yes"/>
			<point x="156" y="14"/>
			<point x="130" y="46"/>
			<point x="130" y="108" type="curve" smooth="yes"/>
			<point x="130" y="128"/>
			<point x="132" y="142"/>
			<point x="138" y="172" type="curve" smooth="yes"/>
			<point x="200" y="478" type="line"/>
			<point x="172" y="478" type="line"/>
			<point x="110" y="168" type="line" smooth="yes"/>
			<point x="104" y="140"/>
			<point x="102" y="128"/>
			<point x="102" y="104" type="curve" smooth="yes"/>
			<point x="102" y="36"/>
			<point x="134" y="-12"/>
		</contour>
		<contour>
			<point x="28" y="258" type="line"/>
			<point x="554" y="258" type="line"/>
			<point x="560" y="284" type="line"/>
			<point x="134" y="284" type="line"/>
			<point x="32" y="280" type="line"/>
		</contour>
		<contour>
			<point name="aboveLC" x="338" y="500" type="move"/>
		</contour>
		<contour>
			<point name="baseLC" x="390" y="0" type="move"/>
		</contour>
		<contour>
			<point name="belowLC" x="250" y="-20" type="move"/>
		</contour>
	</outline>
</glyph>
<glyph name="bsmall" format="1">
  <advance width="600"/>
  <unicode hex="0299"/>
  <outline>
    <contour>
      <point x="90.0" y="0.0" type="line"/>
      <point x="262" y="0" type="line" smooth="yes"/>
      <point x="410" y="0"/>
      <point x="468" y="71"/>
      <point x="468" y="162" type="curve" smooth="yes"/>
      <point x="468" y="218"/>
      <point x="428" y="242"/>
      <point x="390" y="253" type="curve"/>
      <point x="391" y="256" type="line"/>
      <point x="442" y="270"/>
      <point x="490" y="308"/>
      <point x="490" y="384" type="curve" smooth="yes"/>
      <point x="490" y="449"/>
      <point x="432" y="478"/>
      <point x="351.0" y="478.0" type="curve" smooth="yes"/>
      <point x="186" y="478" type="line"/>
    </contour>
    <contour>
      <point x="124" y="26" type="line"/>
      <point x="168.0" y="242.0" type="line"/>
      <point x="292.0" y="242.0" type="line" smooth="yes"/>
      <point x="390" y="242"/>
      <point x="440" y="210"/>
      <point x="440" y="156" type="curve" smooth="yes"/>
      <point x="440" y="80"/>
      <point x="384" y="26"/>
      <point x="257" y="26" type="curve" smooth="yes"/>
    </contour>
    <contour>
      <point x="172.0" y="268.0" type="line"/>
      <point x="210" y="452" type="line"/>
      <point x="336" y="452" type="line" smooth="yes"/>
      <point x="422" y="452"/>
      <point x="462" y="424"/>
      <point x="462" y="378" type="curve" smooth="yes"/>
      <point x="462" y="316"/>
      <point x="417" y="268"/>
      <point x="292" y="268" type="curve" smooth="yes"/>
    </contour>
    <contour>
      <point x="340.0" y="500.0" type="move" name="aboveLC"/>
    </contour>
    <contour>
      <point x="270.0" y="-20.0" type="move" name="belowLC"/>
    </contour>
  </outline>
</glyph>
<glyph name="lsmall" format="1">
  <advance width="600"/>
  <unicode hex="029F"/>
  <outline>
    <contour>
      <point x="128" y="0" type="line"/>
      <point x="480" y="0" type="line"/>
      <point x="486" y="26" type="line"/>
      <point x="162" y="26" type="line"/>
      <point x="252" y="478" type="line"/>
      <point x="224" y="478" type="line"/>
    </contour>
    <contour>
      <point x="240" y="500" type="move" name="aboveLC"/>
    </contour>
    <contour>
      <point x="310" y="-20" type="move" name="belowLC"/>
    </contour>
  </outline>
</glyph>
<glyph name="dezh" format="1">
  <advance width="600"/>
  <unicode hex="02A4"/>
  <outline>
    <contour>
      <point x="108" y="-12" type="curve" smooth="yes"/>
      <point x="168" y="-12"/>
      <point x="207" y="24"/>
      <point x="250" y="78" type="curve"/>
      <point x="254" y="78" type="line"/>
      <point x="242" y="0" type="line"/>
      <point x="266" y="0" type="line"/>
      <point x="412" y="722" type="line"/>
      <point x="384" y="722" type="line"/>
      <point x="340" y="506" type="line"/>
      <point x="320" y="410" type="line"/>
      <point x="316" y="410" type="line"/>
      <point x="302" y="464"/>
      <point x="256" y="490"/>
      <point x="210" y="490" type="curve" smooth="yes"/>
      <point x="90" y="490"/>
      <point x="-10.0" y="338.0"/>
      <point x="-10" y="170" type="curve" smooth="yes"/>
      <point x="-10.0" y="50.0"/>
      <point x="40" y="-12"/>
    </contour>
    <contour>
      <point x="110" y="14" type="curve" smooth="yes"/>
      <point x="56" y="14"/>
      <point x="18.0" y="66.0"/>
      <point x="18" y="176" type="curve" smooth="yes"/>
      <point x="18.0" y="320.0"/>
      <point x="106" y="464"/>
      <point x="208" y="464" type="curve" smooth="yes"/>
      <point x="248" y="464"/>
      <point x="280" y="448"/>
      <point x="312" y="366" type="curve"/>
      <point x="264" y="128" type="line"/>
      <point x="210" y="58"/>
      <point x="160" y="14"/>
    </contour>
    <contour>
      <point x="378" y="-234" type="curve" smooth="yes"/>
      <point x="490" y="-234"/>
      <point x="588.0" y="-126.0"/>
      <point x="588" y="24" type="curve" smooth="yes"/>
      <point x="588.0" y="122.0"/>
      <point x="526" y="198"/>
      <point x="392" y="152" type="curve"/>
      <point x="402" y="138" type="line"/>
      <point x="662" y="460" type="line"/>
      <point x="664" y="478" type="line"/>
      <point x="352" y="478" type="line"/>
      <point x="346" y="452" type="line"/>
      <point x="622" y="452" type="line"/>
      <point x="372" y="144" type="line"/>
      <point x="385" y="122" type="line"/>
      <point x="412" y="134"/>
      <point x="433" y="142"/>
      <point x="463" y="142" type="curve" smooth="yes"/>
      <point x="527.430656934" y="142.0"/>
      <point x="560.0" y="102.0"/>
      <point x="560" y="18" type="curve" smooth="yes"/>
      <point x="560.0" y="-110.0"/>
      <point x="474" y="-208"/>
      <point x="380" y="-208" type="curve" smooth="yes"/>
      <point x="318" y="-208"/>
      <point x="270.0" y="-170.0"/>
      <point x="242" y="-140" type="curve"/>
      <point x="222" y="-158" type="line"/>
      <point x="252.0" y="-192.0"/>
      <point x="305" y="-234"/>
    </contour>
    <contour>
      <point x="400" y="740" type="move" name="aboveUC"/>
    </contour>
    <contour>
      <point x="250" y="-230" type="move" name="belowLC"/>
    </contour>
  </outline>
</glyph>
<glyph name="ringhalfleftmod" format="1">
  <advance width="600"/>
  <unicode hex="02BF"/>
  <outline>
    <contour>
      <point x="444" y="538" type="curve"/>
      <point x="450" y="562" type="line"/>
      <point x="381" y="562"/>
      <point x="336" y="589"/>
      <point x="336" y="662" type="curve" smooth="yes"/>
      <point x="336" y="743"/>
      <point x="405" y="796"/>
      <point x="496" y="798" type="curve"/>
      <point x="502" y="822" type="line"/>
      <point x="396" y="824"/>
      <point x="306" y="762"/>
      <point x="306" y="660" type="curve" smooth="yes"/>
      <point x="306" y="574"/>
      <point x="362" y="534"/>
    </contour>
  </outline>
</glyph>
<glyph name="breveinvertedcmb" format="1">
  <advance width="600"/>
  <unicode hex="0311"/>
  <outline>
    <contour>
      <point x="231" y="570" type="line"/>
      <point x="250" y="628"/>
      <point x="300" y="694"/>
      <point x="375" y="694" type="curve" smooth="yes"/>
      <point x="450" y="694"/>
      <point x="474" y="628"/>
      <point x="471" y="570" type="curve"/>
      <point x="498" y="574" type="line"/>
      <point x="502" y="636"/>
      <point x="481" y="720"/>
      <point x="380" y="720" type="curve" smooth="yes"/>
      <point x="279" y="720"/>
      <point x="226" y="636"/>
      <point x="206" y="574" type="curve"/>
    </contour>
    <contour>
      <point x="338" y="500" type="move" name="_aboveLC"/>
    </contour>
  </outline>
</glyph>
<glyph name="pi" format="1">
  <advance width="599"/>
  <unicode hex="03C0"/>
  <outline>
    <contour>
      <point x="425" y="45" type="curve" smooth="yes"/>
      <point x="425" y="5"/>
      <point x="445" y="-12"/>
      <point x="483" y="-12" type="curve" smooth="yes"/>
      <point x="499" y="-12"/>
      <point x="509" y="-8"/>
      <point x="521" y="-4" type="curve"/>
      <point x="520" y="20" type="line"/>
      <point x="504" y="16"/>
      <point x="495" y="14"/>
      <point x="489" y="14" type="curve" smooth="yes"/>
      <point x="463" y="14"/>
      <point x="451" y="26"/>
      <point x="451" y="50" type="curve" smooth="yes"/>
      <point x="451" y="65"/>
      <point x="499" y="291"/>
      <point x="538" y="450" type="curve"/>
      <point x="628" y="450" type="line"/>
      <point x="634" y="478" type="line"/>
      <point x="222" y="478" type="line"/>
      <point x="155" y="474" type="line"/>
      <point x="151" y="450" type="line"/>
      <point x="245" y="450" type="line"/>
      <point x="215" y="301"/>
      <point x="183" y="150"/>
      <point x="139" y="0" type="curve"/>
      <point x="166" y="-2" type="line"/>
      <point x="206" y="149"/>
      <point x="240" y="299"/>
      <point x="270" y="450" type="curve"/>
      <point x="511" y="450" type="line"/>
      <point x="478" y="298"/>
      <point x="425" y="76"/>
    </contour>
  </outline>
</glyph>
<glyph name="figuredash" format="1">
  <advance width="600"/>
  <unicode hex="2012"/>
  <outline>
    <contour>
      <point x="65" y="231" type="line"/>
      <point x="505" y="231" type="line"/>
      <point x="513" y="269" type="line"/>
      <point x="73" y="269" type="line"/>
    </contour>
  </outline>
</glyph>
<glyph name="endash" format="1">
  <advance width="599"/>
  <unicode hex="2013"/>
  <outline>
    <contour>
      <point x="126" y="231" type="line"/>
      <point x="566" y="231" type="line"/>
      <point x="574" y="269" type="line"/>
      <point x="134" y="269" type="line"/>
    </contour>
  </outline>
</glyph>
<glyph name="quoteleft" format="1">
  <advance width="599"/>
  <unicode hex="2018"/>
  <outline>
    <contour>
      <point x="488" y="700" type="line"/>
      <point x="399" y="653"/>
      <point x="326" y="557"/>
      <point x="326" y="468" type="curve" smooth="yes"/>
      <point x="326" y="426"/>
      <point x="349" y="401"/>
      <point x="378" y="401" type="curve" smooth="yes"/>
      <point x="415" y="401"/>
      <point x="446" y="431"/>
      <point x="446" y="468" type="curve" smooth="yes"/>
      <point x="446" y="494"/>
      <point x="429" y="513"/>
      <point x="402" y="513" type="curve" smooth="yes"/>
      <point x="382" y="513"/>
      <point x="363" y="499"/>
      <point x="343" y="478" type="curve"/>
      <point x="383" y="423" type="line"/>
      <point x="365" y="486" type="line"/>
      <point x="381" y="569"/>
      <point x="432" y="635"/>
      <point x="501" y="677" type="curve"/>
    </contour>
  </outline>
</glyph>
<glyph name="quoteright" format="1">
  <advance width="599"/>
  <unicode hex="2019"/>
  <outline>
    <contour>
      <point x="324" y="406" type="line"/>
      <point x="430" y="454"/>
      <point x="490" y="541"/>
      <point x="490" y="633" type="curve" smooth="yes"/>
      <point x="490" y="682"/>
      <point x="468" y="700"/>
      <point x="440" y="700" type="curve" smooth="yes"/>
      <point x="406" y="700"/>
      <point x="373" y="670"/>
      <point x="373" y="633" type="curve" smooth="yes"/>
      <point x="373" y="607"/>
      <point x="389" y="588"/>
      <point x="416" y="588" type="curve" smooth="yes"/>
      <point x="436" y="588"/>
      <point x="456" y="602"/>
      <point x="476" y="623" type="curve"/>
      <point x="433" y="677" type="line"/>
      <point x="451" y="614" type="line"/>
      <point x="444" y="530"/>
      <point x="388" y="471"/>
      <point x="311" y="430" type="curve"/>
    </contour>
  </outline>
</glyph>
<glyph name="dagger" format="1">
  <advance width="599"/>
  <unicode hex="2020"/>
  <outline>
    <contour>
      <point x="268" y="-80" type="line"/>
      <point x="298" y="-80" type="line"/>
      <point x="420" y="536" type="line"/>
      <point x="542" y="534" type="line"/>
      <point x="548" y="564" type="line"/>
      <point x="426" y="562" type="line"/>
      <point x="456" y="712" type="line"/>
      <point x="426" y="712" type="line"/>
      <point x="398" y="562" type="line"/>
      <point x="276" y="564" type="line"/>
      <point x="270" y="534" type="line"/>
      <point x="394" y="536" type="line"/>
    </contour>
  </outline>
</glyph>
<glyph name="daggerdbl" format="1">
  <advance width="600"/>
  <unicode hex="2021"/>
  <outline>
    <contour>
      <point x="177" y="68" type="line"/>
      <point x="299" y="70" type="line"/>
      <point x="269" y="-80" type="line"/>
      <point x="299" y="-80" type="line"/>
      <point x="327" y="70" type="line"/>
      <point x="449" y="68" type="line"/>
      <point x="455" y="98" type="line"/>
      <point x="331" y="96" type="line"/>
      <point x="377" y="316" type="line"/>
      <point x="419" y="536" type="line"/>
      <point x="541" y="534" type="line"/>
      <point x="547" y="564" type="line"/>
      <point x="425" y="562" type="line"/>
      <point x="455" y="712" type="line"/>
      <point x="425" y="712" type="line"/>
      <point x="397" y="562" type="line"/>
      <point x="275" y="564" type="line"/>
      <point x="269" y="534" type="line"/>
      <point x="393" y="536" type="line"/>
      <point x="347" y="316" type="line"/>
      <point x="305" y="96" type="line"/>
      <point x="183" y="98" type="line"/>
    </contour>
  </outline>
</glyph>
<glyph name="bullet" format="1">
  <advance width="599"/>
  <unicode hex="2022"/>
  <outline>
    <contour>
      <point x="325" y="127" type="curve" smooth="yes"/>
      <point x="408" y="127"/>
      <point x="490" y="189"/>
      <point x="490" y="285" type="curve" smooth="yes"/>
      <point x="490" y="355"/>
      <point x="439" y="397"/>
      <point x="379" y="397" type="curve" smooth="yes"/>
      <point x="296" y="397"/>
      <point x="214" y="335"/>
      <point x="214" y="239" type="curve" smooth="yes"/>
      <point x="214" y="169"/>
      <point x="266" y="127"/>
    </contour>
  </outline>
</glyph>
<glyph name="ellipsis" format="1">
  <advance width="599"/>
  <unicode hex="2026"/>
  <outline>
    <contour>
      <point x="67" y="34" type="curve" smooth="yes"/>
      <point x="67" y="6"/>
      <point x="83" y="-12"/>
      <point x="108" y="-12" type="curve" smooth="yes"/>
      <point x="142" y="-12"/>
      <point x="172" y="14"/>
      <point x="172" y="57" type="curve" smooth="yes"/>
      <point x="172" y="88"/>
      <point x="153" y="103"/>
      <point x="132" y="103" type="curve" smooth="yes"/>
      <point x="102" y="103"/>
      <point x="67" y="78"/>
    </contour>
    <contour>
      <point x="257" y="34" type="curve" smooth="yes"/>
      <point x="257" y="6"/>
      <point x="272" y="-12"/>
      <point x="298" y="-12" type="curve" smooth="yes"/>
      <point x="331" y="-12"/>
      <point x="361" y="14"/>
      <point x="361" y="57" type="curve" smooth="yes"/>
      <point x="361" y="88"/>
      <point x="343" y="103"/>
      <point x="322" y="103" type="curve" smooth="yes"/>
      <point x="292" y="103"/>
      <point x="257" y="78"/>
    </contour>
    <contour>
      <point x="446" y="34" type="curve" smooth="yes"/>
      <point x="446" y="6"/>
      <point x="462" y="-12"/>
      <point x="487" y="-12" type="curve" smooth="yes"/>
      <point x="521" y="-12"/>
      <point x="551" y="14"/>
      <point x="551" y="57" type="curve" smooth="yes"/>
      <point x="551" y="88"/>
      <point x="532" y="103"/>
      <point x="511" y="103" type="curve" smooth="yes"/>
      <point x="481" y="103"/>
      <point x="446" y="78"/>
    </contour>
  </outline>
</glyph>
<glyph name="perthousand" format="1">
  <advance width="600"/>
  <unicode hex="2030"/>
  <outline>
    <contour>
      <point x="108" y="283" type="line"/>
      <point x="101" y="302" type="line"/>
      <point x="583" y="487" type="line"/>
      <point x="594" y="459" type="line"/>
    </contour>
    <contour>
      <point x="304" y="90" type="curve" smooth="yes"/>
      <point x="304" y="171"/>
      <point x="352" y="225"/>
      <point x="410" y="225" type="curve" smooth="yes"/>
      <point x="449" y="225"/>
      <point x="470" y="196"/>
      <point x="470" y="147" type="curve" smooth="yes"/>
      <point x="470" y="65"/>
      <point x="423" y="14"/>
      <point x="366" y="14" type="curve" smooth="yes"/>
      <point x="327" y="14"/>
      <point x="304" y="41"/>
    </contour>
    <contour>
      <point x="361" y="-12" type="curve" smooth="yes"/>
      <point x="442" y="-12"/>
      <point x="499" y="55"/>
      <point x="499" y="153" type="curve" smooth="yes"/>
      <point x="499" y="212"/>
      <point x="468" y="250"/>
      <point x="414" y="250" type="curve" smooth="yes"/>
      <point x="332" y="250"/>
      <point x="275" y="182"/>
      <point x="275" y="85" type="curve" smooth="yes"/>
      <point x="275" y="28"/>
      <point x="307" y="-12"/>
    </contour>
    <contour>
      <point x="101" y="-12" type="curve" smooth="yes"/>
      <point x="182" y="-12"/>
      <point x="239" y="55"/>
      <point x="239" y="153" type="curve" smooth="yes"/>
      <point x="239" y="212"/>
      <point x="208" y="250"/>
      <point x="154" y="250" type="curve" smooth="yes"/>
      <point x="72" y="250"/>
      <point x="15" y="182"/>
      <point x="15" y="85" type="curve" smooth="yes"/>
      <point x="15" y="28"/>
      <point x="47" y="-12"/>
    </contour>
    <contour>
      <point x="150" y="225" type="curve" smooth="yes"/>
      <point x="189" y="225"/>
      <point x="210" y="196"/>
      <point x="210" y="147" type="curve" smooth="yes"/>
      <point x="210" y="65"/>
      <point x="163" y="14"/>
      <point x="106" y="14" type="curve" smooth="yes"/>
      <point x="67" y="14"/>
      <point x="44" y="41"/>
      <point x="44" y="90" type="curve" smooth="yes"/>
      <point x="44" y="171"/>
      <point x="92" y="225"/>
    </contour>
    <contour>
      <point x="187" y="416" type="curve" smooth="yes"/>
      <point x="148" y="416"/>
      <point x="125" y="443"/>
      <point x="125" y="492" type="curve" smooth="yes"/>
      <point x="125" y="573"/>
      <point x="173" y="627"/>
      <point x="231" y="627" type="curve" smooth="yes"/>
      <point x="270" y="627"/>
      <point x="291" y="598"/>
      <point x="291" y="549" type="curve" smooth="yes"/>
      <point x="291" y="467"/>
      <point x="244" y="416"/>
    </contour>
    <contour>
      <point x="235" y="652" type="curve" smooth="yes"/>
      <point x="153" y="652"/>
      <point x="96" y="584"/>
      <point x="96" y="487" type="curve" smooth="yes"/>
      <point x="96" y="430"/>
      <point x="128" y="390"/>
      <point x="182" y="390" type="curve" smooth="yes"/>
      <point x="263" y="390"/>
      <point x="320" y="457"/>
      <point x="320" y="555" type="curve" smooth="yes"/>
      <point x="320" y="614"/>
      <point x="289" y="652"/>
    </contour>
  </outline>
</glyph>
<glyph name="primereversed" format="1">
  <advance width="600"/>
  <unicode hex="2035"/>
  <outline>
    <contour>
      <point x="384" y="500" type="line"/>
      <point x="402" y="500" type="line"/>
      <point x="338" y="694" type="line"/>
      <point x="312" y="694" type="line"/>
      <point x="332" y="632" type="line"/>
    </contour>
  </outline>
</glyph>
<glyph name="guilsinglleft" format="1">
  <advance width="600"/>
  <unicode hex="2039"/>
  <outline>
    <contour>
      <point x="293" y="241" type="line"/>
      <point x="455" y="412" type="line"/>
      <point x="439" y="429" type="line"/>
      <point x="269" y="265" type="line"/>
      <point x="264" y="239" type="line"/>
      <point x="371" y="71" type="line"/>
      <point x="392" y="84" type="line"/>
      <point x="294" y="260" type="line"/>
    </contour>
  </outline>
</glyph>
<glyph name="guilsinglright" format="1">
  <advance width="600.0"/>
  <unicode hex="203A"/>
  <outline>
    <contour>
      <point x="391" y="260" type="line"/>
      <point x="229" y="89" type="line"/>
      <point x="245" y="72" type="line"/>
      <point x="415" y="236" type="line"/>
      <point x="420" y="262" type="line"/>
      <point x="313" y="430" type="line"/>
      <point x="292" y="417" type="line"/>
      <point x="390" y="241" type="line"/>
    </contour>
  </outline>
</glyph>
<glyph name="fraction" format="1">
  <advance width="600"/>
  <unicode hex="2044"/>
  <outline>
    <contour>
      <point x="71" y="36" type="line"/>
      <point x="284" y="242" type="line"/>
      <point x="270" y="258" type="line"/>
      <point x="50" y="57" type="line"/>
    </contour>
    <contour>
      <point x="661" y="624" type="line"/>
      <point x="448" y="418" type="line"/>
      <point x="462" y="403" type="line"/>
      <point x="682" y="603" type="line"/>
    </contour>
  </outline>
</glyph>
<glyph name="colonmonetary" format="1">
  <advance width="600"/>
  <unicode hex="20A1"/>
  <outline>
    <contour>
      <point x="160" y="233" type="curve" smooth="yes"/>
      <point x="160" y="85"/>
      <point x="226" y="-12"/>
      <point x="342" y="-12" type="curve" smooth="yes"/>
      <point x="428" y="-12"/>
      <point x="491" y="24"/>
      <point x="548" y="79" type="curve"/>
      <point x="530" y="97" type="line"/>
      <point x="471" y="42"/>
      <point x="415" y="15"/>
      <point x="349" y="15" type="curve" smooth="yes"/>
      <point x="245" y="15"/>
      <point x="190" y="102"/>
      <point x="190" y="233" type="curve" smooth="yes"/>
      <point x="190" y="459"/>
      <point x="313" y="627"/>
      <point x="487" y="627" type="curve" smooth="yes"/>
      <point x="542" y="627"/>
      <point x="583" y="608"/>
      <point x="620" y="562" type="curve"/>
      <point x="640" y="577" type="line"/>
      <point x="609" y="620"/>
      <point x="558" y="652"/>
      <point x="490" y="652" type="curve" smooth="yes"/>
      <point x="299" y="652"/>
      <point x="160" y="482"/>
    </contour>
    <contour>
      <point x="190" y="-110" type="line"/>
      <point x="218" y="-110" type="line"/>
      <point x="492" y="750" type="line"/>
      <point x="464" y="750" type="line"/>
    </contour>
    <contour>
      <point x="291" y="-110" type="line"/>
      <point x="318" y="-110" type="line"/>
      <point x="592" y="750" type="line"/>
      <point x="564" y="750" type="line"/>
    </contour>
  </outline>
</glyph>
<glyph name="lira" format="1">
  <advance width="599"/>
  <unicode hex="20A4"/>
  <outline>
    <contour>
      <point x="155" y="21" type="line"/>
      <point x="252" y="73"/>
      <point x="301" y="147"/>
      <point x="301" y="254" type="curve" smooth="yes"/>
      <point x="301" y="319"/>
      <point x="282" y="394"/>
      <point x="282" y="453" type="curve" smooth="yes"/>
      <point x="282" y="568"/>
      <point x="350" y="628"/>
      <point x="462" y="628" type="curve" smooth="yes"/>
      <point x="537" y="628"/>
      <point x="577" y="602"/>
      <point x="607" y="570" type="curve"/>
      <point x="625" y="586" type="line"/>
      <point x="596" y="623"/>
      <point x="533" y="652"/>
      <point x="469" y="652" type="curve" smooth="yes"/>
      <point x="335" y="652"/>
      <point x="255" y="582"/>
      <point x="255" y="449" type="curve" smooth="yes"/>
      <point x="255" y="389"/>
      <point x="274" y="310"/>
      <point x="274" y="247" type="curve" smooth="yes"/>
      <point x="274" y="159"/>
      <point x="229" y="71"/>
      <point x="100" y="16" type="curve"/>
      <point x="97" y="0" type="line"/>
      <point x="524" y="0" type="line"/>
      <point x="530" y="26" type="line"/>
      <point x="142" y="26" type="line"/>
    </contour>
    <contour>
      <point x="163" y="349" type="line"/>
      <point x="508" y="349" type="line"/>
      <point x="513" y="373" type="line"/>
      <point x="263" y="373" type="line"/>
      <point x="168" y="371" type="line"/>
    </contour>
    <contour>
      <point x="144" y="254" type="line"/>
      <point x="489" y="254" type="line"/>
      <point x="494" y="278" type="line"/>
      <point x="244" y="278" type="line"/>
      <point x="149" y="274" type="line"/>
    </contour>
  </outline>
</glyph>
<glyph name="peseta" format="1">
  <advance width="599"/>
  <unicode hex="20A7"/>
  <outline>
    <contour>
      <point x="143" y="0" type="line"/>
      <point x="170" y="0" type="line"/>
      <point x="226" y="273" type="line"/>
      <point x="317" y="273" type="line" smooth="yes"/>
      <point x="466" y="273"/>
      <point x="570" y="349"/>
      <point x="570" y="501" type="curve" smooth="yes"/>
      <point x="570" y="601"/>
      <point x="501" y="640"/>
      <point x="391" y="640" type="curve" smooth="yes"/>
      <point x="271" y="640" type="line"/>
    </contour>
    <contour>
      <point x="230" y="298" type="line"/>
      <point x="293" y="616" type="line"/>
      <point x="374" y="616" type="line" smooth="yes"/>
      <point x="482" y="616"/>
      <point x="540" y="587"/>
      <point x="540" y="498" type="curve" smooth="yes"/>
      <point x="540" y="365"/>
      <point x="459" y="298"/>
      <point x="309" y="298" type="curve" smooth="yes"/>
    </contour>
    <contour>
      <point x="150" y="450" type="line"/>
      <point x="628" y="450" type="line"/>
      <point x="633" y="474" type="line"/>
      <point x="239" y="474" type="line"/>
      <point x="154" y="470" type="line"/>
    </contour>
  </outline>
</glyph>
<glyph name="dong" format="1">
  <advance width="600"/>
  <unicode hex="20AB"/>
  <outline>
    <contour>
      <point x="379" y="570" type="line"/>
      <point x="563" y="570" type="line"/>
      <point x="646" y="574" type="line"/>
      <point x="650" y="594" type="line"/>
      <point x="384" y="594" type="line"/>
    </contour>
    <contour>
      <point x="308" y="106" type="curve" smooth="yes"/>
      <point x="364" y="106"/>
      <point x="414" y="132"/>
      <point x="453" y="164" type="curve"/>
      <point x="457" y="164" type="line"/>
      <point x="452" y="116" type="line"/>
      <point x="472" y="116" type="line"/>
      <point x="585" y="677" type="line"/>
      <point x="557" y="677" type="line"/>
      <point x="525" y="516" type="line"/>
      <point x="508" y="415" type="line"/>
      <point x="481" y="446"/>
      <point x="447" y="473"/>
      <point x="386" y="473" type="curve" smooth="yes"/>
      <point x="278" y="473"/>
      <point x="178" y="386"/>
      <point x="178" y="247" type="curve" smooth="yes"/>
      <point x="178" y="156"/>
      <point x="229" y="106"/>
    </contour>
    <contour>
      <point x="315" y="132" type="curve" smooth="yes"/>
      <point x="244" y="132"/>
      <point x="209" y="176"/>
      <point x="209" y="247" type="curve" smooth="yes"/>
      <point x="209" y="363"/>
      <point x="286" y="446"/>
      <point x="381" y="446" type="curve" smooth="yes"/>
      <point x="434" y="446"/>
      <point x="464" y="431"/>
      <point x="500" y="393" type="curve"/>
      <point x="461" y="199" type="line"/>
      <point x="409" y="152"/>
      <point x="358" y="132"/>
    </contour>
    <contour>
      <point x="135" y="0" type="line"/>
      <point x="479" y="0" type="line"/>
      <point x="484" y="24" type="line"/>
      <point x="140" y="24" type="line"/>
    </contour>
  </outline>
</glyph>
<glyph name="Euro" format="1">
  <advance width="600"/>
  <unicode hex="20AC"/>
  <outline>
    <contour>
      <point x="126" y="359" type="line"/>
      <point x="541" y="359" type="line"/>
      <point x="547" y="383" type="line"/>
      <point x="198" y="383" type="line"/>
      <point x="131" y="379" type="line"/>
    </contour>
    <contour>
      <point x="104" y="255" type="line"/>
      <point x="478" y="255" type="line"/>
      <point x="485" y="278" type="line"/>
      <point x="174" y="278" type="line"/>
      <point x="110" y="274" type="line"/>
    </contour>
    <contour>
      <point x="181" y="233" type="curve" smooth="yes"/>
      <point x="181" y="85"/>
      <point x="247" y="-12"/>
      <point x="363" y="-12" type="curve" smooth="yes"/>
      <point x="450" y="-12"/>
      <point x="513" y="25"/>
      <point x="570" y="80" type="curve"/>
      <point x="552" y="98" type="line"/>
      <point x="493" y="43"/>
      <point x="436" y="15"/>
      <point x="370" y="15" type="curve" smooth="yes"/>
      <point x="266" y="15"/>
      <point x="211" y="102"/>
      <point x="211" y="233" type="curve" smooth="yes"/>
      <point x="211" y="459"/>
      <point x="334" y="627"/>
      <point x="508" y="627" type="curve" smooth="yes"/>
      <point x="563" y="627"/>
      <point x="604" y="608"/>
      <point x="641" y="562" type="curve"/>
      <point x="661" y="577" type="line"/>
      <point x="631" y="620"/>
      <point x="579" y="652"/>
      <point x="511" y="652" type="curve" smooth="yes"/>
      <point x="320" y="652"/>
      <point x="181" y="482"/>
    </contour>
  </outline>
</glyph>
<glyph name="trademark" format="1">
  <advance width="600"/>
  <unicode hex="2122"/>
  <outline>
    <contour>
      <point x="398" y="370" type="line"/>
      <point x="427" y="370" type="line"/>
      <point x="461" y="542" type="line"/>
      <point x="476" y="638" type="line"/>
      <point x="480" y="638" type="line"/>
      <point x="523" y="418" type="line"/>
      <point x="552" y="418" type="line"/>
      <point x="683" y="638" type="line"/>
      <point x="687" y="638" type="line"/>
      <point x="664" y="542" type="line"/>
      <point x="630" y="370" type="line"/>
      <point x="658" y="370" type="line"/>
      <point x="719" y="676" type="line"/>
      <point x="676" y="676" type="line"/>
      <point x="597" y="545" type="line"/>
      <point x="547" y="457" type="line"/>
      <point x="543" y="457" type="line"/>
      <point x="529" y="545" type="line"/>
      <point x="500" y="676" type="line"/>
      <point x="459" y="676" type="line"/>
    </contour>
    <contour>
      <point x="290" y="660" type="line"/>
      <point x="262" y="660" type="line"/>
      <point x="204" y="370" type="line"/>
      <point x="232" y="370" type="line"/>
    </contour>
    <contour>
      <point x="398" y="651" type="curve"/>
      <point x="404" y="676" type="line"/>
      <point x="154" y="676" type="line"/>
      <point x="148" y="651" type="line"/>
      <point x="148" y="651"/>
      <point x="398" y="651"/>
    </contour>
  </outline>
</glyph>
